<?xml version="1.0" encoding="utf-8"?>
<!-- Generator: Adobe Illustrator 27.2.0, SVG Export Plug-In . SVG Version: 6.00 Build 0)  -->
<svg version="1.1" id="Ebene_1" xmlns="http://www.w3.org/2000/svg" xmlns:xlink="http://www.w3.org/1999/xlink" x="0px" y="0px"
	 viewBox="0 0 393 52" style="enable-background:new 0 0 393 52;" xml:space="preserve">
<style type="text/css">
	.st0{fill:#646469;}
	.st1{fill:#AA96A0;}
</style>
<g>
	<g>
		<path class="st0" d="M366.1,51.3H25.6c-14.2,0-25.8-11.6-25.8-25.8c0-14.2,11.6-25.8,25.8-25.8h340.5c14.2,0,25.8,11.6,25.8,25.8
			C391.9,39.8,380.3,51.3,366.1,51.3z M25.6,1.8C12.5,1.8,1.9,12.5,1.9,25.6c0,13.1,10.7,23.8,23.8,23.8h340.5
			c13.1,0,23.8-10.7,23.8-23.8c0-13.1-10.7-23.8-23.8-23.8H25.6z"/>
	</g>
</g>
<path class="st1" d="M75.8,25.6l-22.1-8v5H25c-1.7,0-3,1.3-3,3s1.3,3,3,3h28.8v5L75.8,25.6z"/>
<g>
	<path class="st0" d="M92.6,21.4c0.2,0,0.8,0,1.5,0c0,1.3,0,4,0,8c0,0.5-0.1,1.1-0.4,1.6c-0.1,0.2-0.2,0.4-0.4,0.6
		c-0.2,0.2-0.4,0.4-0.5,0.5c-0.2,0.2-0.4,0.3-0.6,0.4c-0.5,0.2-0.9,0.3-1.4,0.3c-0.2,0-0.4,0-0.8,0c-0.5,0-1-0.1-1.5-0.4
		c-0.2-0.1-0.4-0.2-0.6-0.4c-0.1-0.1-0.2-0.2-0.3-0.3c-0.2-0.2-0.3-0.4-0.4-0.6c-0.1-0.1-0.2-0.3-0.2-0.5c-0.2-0.4-0.2-0.8-0.2-1.2
		c0-0.1,0-0.3,0-0.6c0.2,0,0.8,0,1.5,0c0,0.1,0,0.3,0,0.5c0,0.5,0.2,0.9,0.5,1.3c0.2,0.1,0.3,0.2,0.3,0.3c0.3,0.2,0.7,0.4,1,0.4
		c0.2,0,0.4,0,0.7,0c0.4,0,0.8-0.1,1.1-0.4c0.2-0.1,0.3-0.3,0.4-0.4c0.3-0.4,0.4-0.8,0.4-1.2C92.6,27.6,92.6,24.9,92.6,21.4
		L92.6,21.4z"/>
	<path class="st0" d="M97.2,21.4c1,0,3.1,0,6.1,0c0,0.2,0,0.8,0,1.5c-0.8,0-2.3,0-4.6,0c0,0.6,0,1.7,0,3.5c0.6,0,1.8,0,3.7,0l0,0
		c0,0.2,0,0.7,0,1.5l0,0c-0.6,0-1.8,0-3.7,0c0,0.6,0,1.7,0,3.5c0.8,0,2.3,0,4.6,0c0,0.2,0,0.8,0,1.5c-1,0-3.1,0-6.1,0h0
		C97.2,30.9,97.2,27.1,97.2,21.4L97.2,21.4z"/>
	<path class="st0" d="M112.4,21.4c0,0.2,0,0.8,0,1.5c-0.5,0-1.5,0-3,0c0,1.7,0,5,0,9.9c-0.2,0-0.8,0-1.5,0h0c0-1.7,0-5,0-9.9
		c-0.5,0-1.5,0-3,0c0-0.2,0-0.8,0-1.5C106.1,21.4,108.6,21.4,112.4,21.4z"/>
	<path class="st0" d="M114.1,21.4c1.4,0,4.2,0,8.5,0v0c-1.1,1.7-3.2,5-6.5,9.9c1.1,0,3.2,0,6.4,0l0,0c0,0.2,0,0.7,0,1.5l0,0
		c-1.5,0-4.6,0-9.2,0v0c1.1-1.7,3.2-5,6.5-9.9c-0.9,0-2.8,0-5.7,0v0C114.1,22.6,114.1,22.1,114.1,21.4L114.1,21.4z"/>
	<path class="st0" d="M131.4,21.4c0,0.2,0,0.8,0,1.5c-0.5,0-1.5,0-3,0c0,1.7,0,5,0,9.9c-0.2,0-0.8,0-1.5,0h0c0-1.7,0-5,0-9.9
		c-0.5,0-1.5,0-3,0c0-0.2,0-0.8,0-1.5C125.1,21.4,127.6,21.4,131.4,21.4z"/>
	<path class="st0" d="M137.5,21.4c1,0,3.1,0,6.1,0c0,0.2,0,0.8,0,1.5c-0.8,0-2.3,0-4.6,0c0,0.6,0,1.7,0,3.5c0.6,0,1.8,0,3.7,0l0,0
		c0,0.2,0,0.7,0,1.5l0,0c-0.6,0-1.8,0-3.7,0c0,0.6,0,1.7,0,3.5c0.8,0,2.3,0,4.6,0c0,0.2,0,0.8,0,1.5c-1,0-3.1,0-6.1,0h0
		C137.5,30.9,137.5,27.1,137.5,21.4L137.5,21.4z"/>
	<path class="st0" d="M146.1,21.4c0.2,0,0.7,0,1.5,0h0c0,1.9,0,5.7,0,11.4h0c-0.2,0-0.7,0-1.5,0h0C146,30.9,146,27.1,146.1,21.4
		L146.1,21.4z"/>
	<path class="st0" d="M150.7,21.4c0.3,0,0.8,0,1.6,0c0.9,1.4,2.7,4.1,5.5,8.2c0.1,0.1,0.2,0.4,0.5,0.8c0-1.5,0-4.5,0-8.9l0,0
		c0.2,0,0.7,0,1.5,0l0,0c0,1.9,0,5.7,0,11.4l0,0c-0.3,0-0.8,0-1.6,0c-0.3-0.4-1.3-1.9-3.1-4.7c-0.6-0.9-1.6-2.4-2.9-4.3
		c0,1.5,0,4.5,0,8.9l0,0c-0.2,0-0.7,0-1.5,0c0,0,0,0,0,0C150.6,30.9,150.6,27.1,150.7,21.4L150.7,21.4z"/>
	<path class="st0" d="M162.9,21.4c1,0,3.1,0,6.1,0c0,0.2,0,0.8,0,1.5c-0.8,0-2.3,0-4.6,0c0,0.6,0,1.7,0,3.5c0.6,0,1.8,0,3.7,0l0,0
		c0,0.2,0,0.7,0,1.5l0,0c-0.6,0-1.8,0-3.7,0c0,0.6,0,1.7,0,3.5c0.8,0,2.3,0,4.6,0c0,0.2,0,0.8,0,1.5c-1,0-3.1,0-6.1,0h0
		C162.9,30.9,162.9,27.1,162.9,21.4L162.9,21.4z"/>
	<path class="st0" d="M171.5,21.4c0.3,0,0.8,0,1.6,0c0.9,1.4,2.7,4.1,5.5,8.2c0.1,0.1,0.2,0.4,0.5,0.8c0-1.5,0-4.5,0-8.9l0,0
		c0.2,0,0.7,0,1.5,0l0,0c0,1.9,0,5.7,0,11.4l0,0c-0.3,0-0.8,0-1.6,0c-0.3-0.4-1.3-1.9-3.1-4.7c-0.6-0.9-1.6-2.4-2.9-4.3
		c0,1.5,0,4.5,0,8.9l0,0c-0.2,0-0.7,0-1.5,0c0,0,0,0,0,0C171.4,30.9,171.4,27.1,171.5,21.4L171.5,21.4z"/>
	<path class="st0" d="M190.9,21.2c0,0,0.1,0,0.1,0c0.6,0,1.2,0.1,1.8,0.4c0.2,0.1,0.4,0.2,0.5,0.3c0.1,0.1,0.2,0.2,0.4,0.4
		c0.2,0.2,0.3,0.4,0.4,0.5c0.1,0.1,0.1,0.2,0.2,0.3c-0.3,0.1-0.8,0.4-1.4,0.7c0-0.1-0.1-0.2-0.3-0.4c-0.5-0.5-1.1-0.8-1.8-0.8
		c-0.7,0-1.3,0.2-1.7,0.6c-0.2,0.2-0.3,0.3-0.3,0.4c-0.1,0.2-0.2,0.5-0.2,0.7c0,0,0,0,0,0c0,0.4,0.1,0.6,0.4,0.8
		c0.1,0.1,0.2,0.2,0.4,0.2c0.3,0.2,0.7,0.3,1.2,0.5c0.4,0.1,0.9,0.2,1.4,0.3c0.3,0.1,0.6,0.2,0.8,0.3c0.2,0.1,0.4,0.2,0.6,0.4
		c0.2,0.2,0.4,0.3,0.5,0.5c0.4,0.6,0.6,1.2,0.6,1.9v0c0,0.7-0.2,1.3-0.6,1.9c-0.1,0.1-0.2,0.2-0.4,0.4c-0.2,0.2-0.4,0.4-0.6,0.5
		c-0.2,0.1-0.3,0.2-0.5,0.3c-0.6,0.2-1.1,0.3-1.7,0.3c-0.9,0-1.7-0.3-2.5-0.8c-0.1-0.1-0.3-0.2-0.4-0.4c-0.2-0.2-0.4-0.4-0.4-0.5
		c-0.2-0.2-0.3-0.4-0.4-0.6c-0.1-0.2-0.1-0.3-0.1-0.3c0.3-0.1,0.8-0.4,1.4-0.6c0.1,0.2,0.2,0.4,0.3,0.6c0.1,0.1,0.2,0.2,0.3,0.4
		c0.2,0.2,0.4,0.3,0.5,0.4c0.4,0.2,0.9,0.3,1.3,0.3c0,0,0,0,0.1,0c0.5,0,0.9-0.1,1.3-0.3c0.1-0.1,0.2-0.2,0.4-0.3
		c0.1-0.1,0.2-0.3,0.3-0.4c0.2-0.3,0.3-0.6,0.3-1c0-0.5-0.2-1-0.7-1.3c-0.1-0.1-0.2-0.1-0.4-0.2c-0.2-0.1-0.5-0.2-0.8-0.2
		c-1.1-0.2-1.9-0.5-2.4-0.8c-1.1-0.6-1.7-1.4-1.7-2.5c0-0.8,0.2-1.4,0.7-2c0.2-0.2,0.3-0.4,0.5-0.5c0.2-0.2,0.4-0.3,0.6-0.4
		c0.2-0.1,0.4-0.2,0.7-0.3C190.1,21.3,190.5,21.2,190.9,21.2z"/>
	<path class="st0" d="M201.7,21.4L201.7,21.4c1.5,0,2.8,0.6,3.9,1.7c0.4,0.4,0.7,0.8,0.8,1.2c0,0-0.5,0.3-1.3,0.7
		c-0.1-0.3-0.4-0.6-0.6-0.9c-0.8-0.8-1.7-1.2-2.8-1.2c-1,0-1.9,0.4-2.8,1.2c-0.8,0.9-1.2,1.9-1.2,3c0,1.3,0.5,2.4,1.5,3.3
		c0.8,0.6,1.5,0.9,2.4,0.9c0,0,0.1,0,0.2,0c0.9,0,1.8-0.4,2.6-1.1c0.3-0.4,0.6-0.7,0.7-1c0.3,0.2,0.7,0.4,1.3,0.7c0,0,0,0,0,0
		c-0.2,0.3-0.4,0.7-0.7,1c-1.1,1.2-2.5,1.9-4,1.9c-1.5,0-2.8-0.6-4-1.8c-1-1.2-1.4-2.4-1.4-3.9c0,0,0,0,0-0.1c0-1.4,0.5-2.7,1.5-3.9
		C198.9,22,200.2,21.4,201.7,21.4z"/>
	<path class="st0" d="M208.7,21.4c0.2,0,0.7,0,1.5,0l0,0c0,0.8,0,2.5,0,4.9c0.8,0,2.5,0,5,0c0-0.8,0-2.5,0-4.9l0,0
		c0.2,0,0.7,0,1.5,0l0,0c0,1.9,0,5.7,0,11.4l0,0c-0.2,0-0.7,0-1.5,0l0,0c0-0.8,0-2.5,0-4.9c-0.8,0-2.5,0-5,0c0,0.8,0,2.5,0,4.9l0,0
		c-0.2,0-0.7,0-1.5,0c0,0,0,0,0,0C208.7,30.9,208.7,27.1,208.7,21.4L208.7,21.4z"/>
	<path class="st0" d="M219.7,21.4c0.2,0,0.7,0,1.5,0l0,0c0,1.2,0,3.5,0,7c0,0.8,0.1,1.5,0.4,1.9c0.3,0.4,0.7,0.8,1.3,1
		c0.2,0.1,0.5,0.1,0.7,0.1c0.2,0,0.6,0,1.1,0c0.9,0,1.6-0.4,2.1-1.2c0.2-0.4,0.3-0.9,0.3-1.5c0-1.6,0-4,0-7.2l0,0c0.2,0,0.7,0,1.5,0
		c0,0,0,0,0,0c0,1.1,0,3.4,0,6.8c0,0.9-0.1,1.6-0.2,2c-0.3,0.9-0.8,1.6-1.6,2.1c-0.6,0.4-1.4,0.6-2.3,0.6c-0.2,0-0.4,0-0.8,0
		c-1.2,0-2.2-0.4-2.9-1.1c-0.3-0.3-0.6-0.6-0.7-1c-0.3-0.7-0.5-1.4-0.5-2.1C219.7,27,219.7,24.6,219.7,21.4L219.7,21.4z"/>
	<path class="st0" d="M231.7,21.4c0.2,0,0.7,0,1.5,0h0c0,1.7,0,5,0,9.9c0.8,0,2.5,0,5,0c0,0.2,0,0.8,0,1.5c-1.1,0-3.2,0-6.5,0h0
		C231.7,30.9,231.7,27.1,231.7,21.4L231.7,21.4z"/>
	<path class="st0" d="M240,21.4c0.6,0,1.9,0,3.8,0c1.2,0,2.2,0.4,2.9,1.2c0.4,0.5,0.6,1,0.6,1.7c0,0,0,0.1,0,0.2
		c0,0.9-0.3,1.6-1,2.2v0c0.2,0.1,0.4,0.2,0.6,0.5c0.5,0.6,0.8,1.2,0.8,1.9c0,0.1,0,0.3,0,0.6c0,1.1-0.5,1.9-1.5,2.6
		c-0.5,0.3-0.8,0.4-0.9,0.4c-0.3,0.1-0.8,0.2-1.4,0.2c-0.9,0-2.1,0-3.9,0c0,0,0,0,0,0C239.9,30.9,239.9,27.1,240,21.4L240,21.4z
		 M241.4,27.6c0,0.6,0,1.8,0,3.7c0.4,0,1.3,0,2.6,0c0.9,0,1.5-0.3,1.9-1c0.1-0.2,0.2-0.5,0.2-0.8c0-0.1,0-0.2,0-0.3
		c0-0.7-0.4-1.1-1.1-1.4c-0.3-0.1-0.7-0.2-1.2-0.2C243.3,27.6,242.5,27.6,241.4,27.6C241.5,27.6,241.5,27.6,241.4,27.6z M241.5,22.9
		c0,0.5,0,1.6,0,3.2c0.4,0,1.1,0,2.2,0c0.9,0,1.6-0.3,1.9-1c0.1-0.2,0.1-0.4,0.1-0.5c0-0.1,0-0.2,0-0.3c0-0.6-0.4-1-1.2-1.2
		c-0.2-0.1-0.6-0.1-1-0.1C243.1,22.9,242.4,22.9,241.5,22.9z"/>
	<path class="st0" d="M250.2,21.4c1,0,3.1,0,6.1,0c0,0.2,0,0.8,0,1.5c-0.8,0-2.3,0-4.6,0c0,0.6,0,1.7,0,3.5c0.6,0,1.8,0,3.7,0l0,0
		c0,0.2,0,0.7,0,1.5l0,0c-0.6,0-1.8,0-3.7,0c0,0.6,0,1.7,0,3.5c0.8,0,2.3,0,4.6,0c0,0.2,0,0.8,0,1.5c-1,0-3.1,0-6.1,0h0
		C250.2,30.9,250.2,27.1,250.2,21.4L250.2,21.4z"/>
	<path class="st0" d="M261.8,21.2c0,0,0.1,0,0.1,0c0.6,0,1.2,0.1,1.8,0.4c0.2,0.1,0.4,0.2,0.5,0.3c0.1,0.1,0.2,0.2,0.4,0.4
		c0.2,0.2,0.3,0.4,0.4,0.5c0.1,0.1,0.1,0.2,0.2,0.3c-0.3,0.1-0.8,0.4-1.4,0.7c0-0.1-0.1-0.2-0.3-0.4c-0.5-0.5-1.1-0.8-1.8-0.8
		c-0.7,0-1.3,0.2-1.7,0.6c-0.2,0.2-0.3,0.3-0.3,0.4c-0.1,0.2-0.2,0.5-0.2,0.7c0,0,0,0,0,0c0,0.4,0.1,0.6,0.4,0.8
		c0.1,0.1,0.2,0.2,0.4,0.2c0.3,0.2,0.7,0.3,1.2,0.5c0.4,0.1,0.9,0.2,1.4,0.3c0.3,0.1,0.6,0.2,0.8,0.3c0.2,0.1,0.4,0.2,0.6,0.4
		c0.2,0.2,0.4,0.3,0.5,0.5c0.4,0.6,0.6,1.2,0.6,1.9v0c0,0.7-0.2,1.3-0.6,1.9c-0.1,0.1-0.2,0.2-0.4,0.4c-0.2,0.2-0.4,0.4-0.6,0.5
		c-0.2,0.1-0.3,0.2-0.5,0.3c-0.6,0.2-1.1,0.3-1.7,0.3c-0.9,0-1.7-0.3-2.5-0.8c-0.1-0.1-0.3-0.2-0.4-0.4c-0.2-0.2-0.4-0.4-0.4-0.5
		c-0.2-0.2-0.3-0.4-0.4-0.6c-0.1-0.2-0.1-0.3-0.1-0.3c0.3-0.1,0.8-0.4,1.4-0.6c0.1,0.2,0.2,0.4,0.3,0.6c0.1,0.1,0.2,0.2,0.3,0.4
		c0.2,0.2,0.4,0.3,0.5,0.4c0.4,0.2,0.9,0.3,1.3,0.3c0,0,0,0,0.1,0c0.5,0,0.9-0.1,1.3-0.3c0.1-0.1,0.2-0.2,0.4-0.3
		c0.1-0.1,0.2-0.3,0.3-0.4c0.2-0.3,0.3-0.6,0.3-1c0-0.5-0.2-1-0.7-1.3c-0.1-0.1-0.2-0.1-0.4-0.2c-0.2-0.1-0.5-0.2-0.8-0.2
		c-1.1-0.2-1.9-0.5-2.4-0.8c-1.1-0.6-1.7-1.4-1.7-2.5c0-0.8,0.2-1.4,0.7-2c0.2-0.2,0.3-0.4,0.5-0.5c0.2-0.2,0.4-0.3,0.6-0.4
		c0.2-0.1,0.4-0.2,0.7-0.3C261,21.3,261.4,21.2,261.8,21.2z"/>
	<path class="st0" d="M267.8,21.4c0.2,0,0.7,0,1.5,0l0,0c0,1.2,0,3.5,0,7c0,0.8,0.1,1.5,0.4,1.9c0.3,0.4,0.7,0.8,1.3,1
		c0.2,0.1,0.5,0.1,0.7,0.1c0.2,0,0.6,0,1.1,0c0.9,0,1.6-0.4,2.1-1.2c0.2-0.4,0.3-0.9,0.3-1.5c0-1.6,0-4,0-7.2l0,0c0.2,0,0.7,0,1.5,0
		c0,0,0,0,0,0c0,1.1,0,3.4,0,6.8c0,0.9-0.1,1.6-0.2,2c-0.3,0.9-0.8,1.6-1.6,2.1c-0.6,0.4-1.4,0.6-2.3,0.6c-0.2,0-0.4,0-0.8,0
		c-1.2,0-2.2-0.4-2.9-1.1c-0.3-0.3-0.6-0.6-0.7-1c-0.3-0.7-0.5-1.4-0.5-2.1C267.8,27,267.8,24.6,267.8,21.4L267.8,21.4z"/>
	<path class="st0" d="M284.5,21.4L284.5,21.4c1.5,0,2.8,0.6,3.9,1.7c0.4,0.4,0.7,0.8,0.8,1.2c0,0-0.5,0.3-1.3,0.7
		c-0.1-0.3-0.4-0.6-0.6-0.9c-0.8-0.8-1.7-1.2-2.8-1.2c-1,0-1.9,0.4-2.8,1.2c-0.8,0.9-1.2,1.9-1.2,3c0,1.3,0.5,2.4,1.5,3.3
		c0.8,0.6,1.5,0.9,2.4,0.9c0,0,0.1,0,0.2,0c0.9,0,1.8-0.4,2.6-1.1c0.3-0.4,0.6-0.7,0.7-1c0.3,0.2,0.7,0.4,1.3,0.7c0,0,0,0,0,0
		c-0.2,0.3-0.4,0.7-0.7,1c-1.1,1.2-2.5,1.9-4,1.9c-1.5,0-2.8-0.6-4-1.8c-1-1.2-1.4-2.4-1.4-3.9c0,0,0,0,0-0.1c0-1.4,0.5-2.7,1.5-3.9
		C281.7,22,283,21.4,284.5,21.4z"/>
	<path class="st0" d="M291.5,21.4c0.2,0,0.7,0,1.5,0l0,0c0,0.8,0,2.5,0,4.9c0.8,0,2.5,0,5,0c0-0.8,0-2.5,0-4.9l0,0
		c0.2,0,0.7,0,1.5,0l0,0c0,1.9,0,5.7,0,11.4l0,0c-0.2,0-0.7,0-1.5,0l0,0c0-0.8,0-2.5,0-4.9c-0.8,0-2.5,0-5,0c0,0.8,0,2.5,0,4.9l0,0
		c-0.2,0-0.7,0-1.5,0c0,0,0,0,0,0C291.5,30.9,291.5,27.1,291.5,21.4L291.5,21.4z"/>
	<path class="st0" d="M306.7,21.4c0.6,0,1.9,0,3.8,0c1.2,0,2.2,0.4,2.9,1.2c0.4,0.5,0.6,1,0.6,1.7c0,0,0,0.1,0,0.2
		c0,0.9-0.3,1.6-1,2.2v0c0.2,0.1,0.4,0.2,0.6,0.5c0.5,0.6,0.8,1.2,0.8,1.9c0,0.1,0,0.3,0,0.6c0,1.1-0.5,1.9-1.5,2.6
		c-0.5,0.3-0.8,0.4-0.9,0.4c-0.3,0.1-0.8,0.2-1.4,0.2c-0.9,0-2.1,0-3.9,0c0,0,0,0,0,0C306.7,30.9,306.7,27.1,306.7,21.4L306.7,21.4z
		 M308.2,27.6c0,0.6,0,1.8,0,3.7c0.4,0,1.3,0,2.6,0c0.9,0,1.5-0.3,1.9-1c0.1-0.2,0.2-0.5,0.2-0.8c0-0.1,0-0.2,0-0.3
		c0-0.7-0.4-1.1-1.1-1.4c-0.3-0.1-0.7-0.2-1.2-0.2C310,27.6,309.3,27.6,308.2,27.6C308.2,27.6,308.2,27.6,308.2,27.6z M308.2,22.9
		c0,0.5,0,1.6,0,3.2c0.4,0,1.1,0,2.2,0c0.9,0,1.6-0.3,1.9-1c0.1-0.2,0.1-0.4,0.1-0.5c0-0.1,0-0.2,0-0.3c0-0.6-0.4-1-1.2-1.2
		c-0.2-0.1-0.6-0.1-1-0.1C309.8,22.9,309.1,22.9,308.2,22.9z"/>
	<path class="st0" d="M316.8,21.4c0.2,0,0.7,0,1.5,0l0,0c0,1.2,0,3.5,0,7c0,0.8,0.1,1.5,0.4,1.9c0.3,0.4,0.7,0.8,1.3,1
		c0.2,0.1,0.5,0.1,0.7,0.1c0.2,0,0.6,0,1.1,0c0.9,0,1.6-0.4,2.1-1.2c0.2-0.4,0.3-0.9,0.3-1.5c0-1.6,0-4,0-7.2l0,0c0.2,0,0.7,0,1.5,0
		c0,0,0,0,0,0c0,1.1,0,3.4,0,6.8c0,0.9-0.1,1.6-0.2,2c-0.3,0.9-0.8,1.6-1.6,2.1c-0.6,0.4-1.4,0.6-2.3,0.6c-0.2,0-0.4,0-0.8,0
		c-1.2,0-2.2-0.4-2.9-1.1c-0.3-0.3-0.6-0.6-0.7-1c-0.3-0.7-0.5-1.4-0.5-2.1C316.8,27,316.8,24.6,316.8,21.4L316.8,21.4z"/>
	<path class="st0" d="M333.5,21.4L333.5,21.4c1.5,0,2.8,0.6,3.9,1.7c0.4,0.4,0.7,0.8,0.8,1.2c0,0-0.5,0.3-1.3,0.7
		c-0.1-0.3-0.4-0.6-0.6-0.9c-0.8-0.8-1.7-1.2-2.8-1.2c-1,0-1.9,0.4-2.8,1.2c-0.8,0.9-1.2,1.9-1.2,3c0,1.3,0.5,2.4,1.5,3.3
		c0.8,0.6,1.5,0.9,2.4,0.9c0,0,0.1,0,0.2,0c0.9,0,1.8-0.4,2.6-1.1c0.3-0.4,0.6-0.7,0.7-1c0.3,0.2,0.7,0.4,1.3,0.7c0,0,0,0,0,0
		c-0.2,0.3-0.4,0.7-0.7,1c-1.1,1.2-2.5,1.9-4,1.9c-1.5,0-2.8-0.6-4-1.8c-1-1.2-1.4-2.4-1.4-3.9c0,0,0,0,0-0.1c0-1.4,0.5-2.7,1.5-3.9
		C330.7,22,332,21.4,333.5,21.4z"/>
	<path class="st0" d="M340.5,21.4c0.2,0,0.7,0,1.5,0l0,0c0,0.8,0,2.5,0,4.9c0.8,0,2.5,0,5,0c0-0.8,0-2.5,0-4.9l0,0
		c0.2,0,0.7,0,1.5,0l0,0c0,1.9,0,5.7,0,11.4l0,0c-0.2,0-0.7,0-1.5,0l0,0c0-0.8,0-2.5,0-4.9c-0.8,0-2.5,0-5,0c0,0.8,0,2.5,0,4.9l0,0
		c-0.2,0-0.7,0-1.5,0c0,0,0,0,0,0C340.4,30.9,340.4,27.1,340.5,21.4L340.5,21.4z"/>
	<path class="st0" d="M351.5,21.4c1,0,3.1,0,6.1,0c0,0.2,0,0.8,0,1.5c-0.8,0-2.3,0-4.6,0c0,0.6,0,1.7,0,3.5c0.6,0,1.8,0,3.7,0l0,0
		c0,0.2,0,0.7,0,1.5l0,0c-0.6,0-1.8,0-3.7,0c0,0.6,0,1.7,0,3.5c0.8,0,2.3,0,4.6,0c0,0.2,0,0.8,0,1.5c-1,0-3.1,0-6.1,0h0
		C351.5,30.9,351.5,27.1,351.5,21.4L351.5,21.4z"/>
	<path class="st0" d="M360.1,21.4c0.3,0,0.8,0,1.6,0c0.9,1.4,2.7,4.1,5.5,8.2c0.1,0.1,0.2,0.4,0.5,0.8c0-1.5,0-4.5,0-8.9l0,0
		c0.2,0,0.7,0,1.5,0l0,0c0,1.9,0,5.7,0,11.4l0,0c-0.3,0-0.8,0-1.6,0c-0.3-0.4-1.3-1.9-3.1-4.7c-0.6-0.9-1.6-2.4-2.9-4.3
		c0,1.5,0,4.5,0,8.9l0,0c-0.2,0-0.7,0-1.5,0c0,0,0,0,0,0C360,30.9,360,27.1,360.1,21.4L360.1,21.4z"/>
</g>
</svg>
