<?xml version="1.0" encoding="utf-8"?>
<!-- Generator: Adobe Illustrator 27.2.0, SVG Export Plug-In . SVG Version: 6.00 Build 0)  -->
<svg version="1.1" id="Ebene_1" xmlns="http://www.w3.org/2000/svg" xmlns:xlink="http://www.w3.org/1999/xlink" x="0px" y="0px"
	 viewBox="0 0 230 52" style="enable-background:new 0 0 230 52;" xml:space="preserve">
<style type="text/css">
	.st0{fill:#646469;}
	.st1{fill:#AA96A0;}
</style>
<g>
	<g>
		<path class="st0" d="M204.7,51.8H26.2C12,51.8,0.5,40.2,0.5,26S12,0.3,26.2,0.3h178.5c14.2,0,25.8,11.6,25.8,25.8
			S218.9,51.8,204.7,51.8z M26.2,2.3C13.1,2.3,2.5,12.9,2.5,26c0,13.1,10.7,23.8,23.8,23.8h178.5c13.1,0,23.8-10.7,23.8-23.8
			c0-13.1-10.7-23.8-23.8-23.8H26.2z"/>
	</g>
</g>
<g>
	<path class="st0" d="M93.7,21.8c0.2,0,0.8,0,1.5,0c0,1.3,0,4,0,8c0,0.5-0.1,1.1-0.4,1.6c-0.1,0.2-0.2,0.4-0.4,0.6
		c-0.2,0.2-0.4,0.4-0.5,0.5c-0.2,0.2-0.4,0.3-0.6,0.4c-0.5,0.2-0.9,0.3-1.4,0.3c-0.2,0-0.4,0-0.8,0c-0.5,0-1-0.1-1.5-0.4
		c-0.2-0.1-0.4-0.2-0.6-0.4c-0.1-0.1-0.2-0.2-0.3-0.3c-0.2-0.2-0.3-0.4-0.4-0.6c-0.1-0.1-0.2-0.3-0.2-0.5c-0.2-0.4-0.2-0.8-0.2-1.2
		c0-0.1,0-0.3,0-0.6c0.2,0,0.8,0,1.5,0c0,0.1,0,0.3,0,0.5c0,0.5,0.2,0.9,0.5,1.3c0.2,0.1,0.3,0.2,0.3,0.3c0.3,0.2,0.7,0.4,1,0.4
		c0.2,0,0.4,0,0.7,0c0.4,0,0.8-0.1,1.1-0.4c0.2-0.1,0.3-0.3,0.4-0.4c0.3-0.4,0.4-0.8,0.4-1.2C93.7,28,93.7,25.4,93.7,21.8L93.7,21.8
		z"/>
	<path class="st0" d="M98.3,21.8c1,0,3.1,0,6.1,0c0,0.2,0,0.8,0,1.5c-0.8,0-2.3,0-4.6,0c0,0.6,0,1.7,0,3.5c0.6,0,1.8,0,3.7,0l0,0
		c0,0.2,0,0.7,0,1.5l0,0c-0.6,0-1.8,0-3.7,0c0,0.6,0,1.7,0,3.5c0.8,0,2.3,0,4.6,0c0,0.2,0,0.8,0,1.5c-1,0-3.1,0-6.1,0h0
		C98.3,31.3,98.3,27.5,98.3,21.8L98.3,21.8z"/>
	<path class="st0" d="M113.5,21.8c0,0.2,0,0.8,0,1.5c-0.5,0-1.5,0-3,0c0,1.7,0,5,0,9.9c-0.2,0-0.8,0-1.5,0h0c0-1.7,0-5,0-9.9
		c-0.5,0-1.5,0-3,0c0-0.2,0-0.8,0-1.5C107.2,21.8,109.8,21.8,113.5,21.8z"/>
	<path class="st0" d="M115.3,21.8c1.4,0,4.2,0,8.5,0v0c-1.1,1.7-3.2,5-6.5,9.9c1.1,0,3.2,0,6.4,0l0,0c0,0.2,0,0.7,0,1.5l0,0
		c-1.5,0-4.6,0-9.2,0v0c1.1-1.7,3.2-5,6.5-9.9c-0.9,0-2.8,0-5.7,0v0C115.3,23.1,115.3,22.6,115.3,21.8L115.3,21.8z"/>
	<path class="st0" d="M132.6,21.8c0,0.2,0,0.8,0,1.5c-0.5,0-1.5,0-3,0c0,1.7,0,5,0,9.9c-0.2,0-0.8,0-1.5,0h0c0-1.7,0-5,0-9.9
		c-0.5,0-1.5,0-3,0c0-0.2,0-0.8,0-1.5C126.2,21.8,128.8,21.8,132.6,21.8z"/>
	<path class="st0" d="M138.6,21.8c0.6,0,1.9,0,3.8,0c1.2,0,2.2,0.4,2.9,1.2c0.4,0.5,0.6,1,0.6,1.7c0,0,0,0.1,0,0.2
		c0,0.9-0.3,1.6-1,2.2v0c0.2,0.1,0.4,0.2,0.6,0.5c0.5,0.6,0.8,1.2,0.8,1.9c0,0.1,0,0.3,0,0.6c0,1.1-0.5,1.9-1.5,2.6
		c-0.5,0.3-0.8,0.4-0.9,0.4c-0.3,0.1-0.8,0.2-1.4,0.2c-0.9,0-2.1,0-3.9,0c0,0,0,0,0,0C138.6,31.3,138.6,27.5,138.6,21.8L138.6,21.8z
		 M140.1,28.1c0,0.6,0,1.8,0,3.7c0.4,0,1.3,0,2.6,0c0.9,0,1.5-0.3,1.9-1c0.1-0.2,0.2-0.5,0.2-0.8c0-0.1,0-0.2,0-0.3
		c0-0.7-0.4-1.1-1.1-1.4c-0.3-0.1-0.7-0.2-1.2-0.2C141.9,28,141.2,28,140.1,28.1C140.1,28,140.1,28,140.1,28.1z M140.1,23.3
		c0,0.5,0,1.6,0,3.2c0.4,0,1.1,0,2.2,0c0.9,0,1.6-0.3,1.9-1c0.1-0.2,0.1-0.4,0.1-0.5c0-0.1,0-0.2,0-0.3c0-0.6-0.4-1-1.2-1.2
		c-0.2-0.1-0.6-0.1-1-0.1C141.7,23.3,141,23.3,140.1,23.3z"/>
	<path class="st0" d="M148.7,21.8c0.2,0,0.7,0,1.5,0l0,0c0,1.2,0,3.5,0,7c0,0.8,0.1,1.5,0.4,1.9c0.3,0.4,0.7,0.8,1.3,1
		c0.2,0.1,0.5,0.1,0.7,0.1c0.2,0,0.6,0,1.1,0c0.9,0,1.6-0.4,2.1-1.2c0.2-0.4,0.3-0.9,0.3-1.5c0-1.6,0-4,0-7.2l0,0c0.2,0,0.7,0,1.5,0
		c0,0,0,0,0,0c0,1.1,0,3.4,0,6.8c0,0.9-0.1,1.6-0.2,2c-0.3,0.9-0.8,1.6-1.6,2.1c-0.6,0.4-1.4,0.6-2.3,0.6c-0.2,0-0.4,0-0.8,0
		c-1.2,0-2.2-0.4-2.9-1.1c-0.3-0.3-0.6-0.6-0.7-1c-0.3-0.7-0.5-1.4-0.5-2.1C148.7,27.5,148.7,25.1,148.7,21.8L148.7,21.8z"/>
	<path class="st0" d="M165.4,21.8L165.4,21.8c1.5,0,2.8,0.6,3.9,1.7c0.4,0.4,0.7,0.8,0.8,1.2c0,0-0.5,0.3-1.3,0.7
		c-0.1-0.3-0.4-0.6-0.6-0.9c-0.8-0.8-1.7-1.2-2.8-1.2c-1,0-1.9,0.4-2.8,1.2c-0.8,0.9-1.2,1.9-1.2,3c0,1.3,0.5,2.4,1.5,3.3
		c0.8,0.6,1.5,0.9,2.4,0.9c0,0,0.1,0,0.2,0c0.9,0,1.8-0.4,2.6-1.1c0.3-0.4,0.6-0.7,0.7-1c0.3,0.2,0.7,0.4,1.3,0.7c0,0,0,0,0,0
		c-0.2,0.3-0.4,0.7-0.7,1c-1.1,1.2-2.5,1.9-4,1.9c-1.5,0-2.8-0.6-4-1.8c-1-1.2-1.4-2.4-1.4-3.9c0,0,0,0,0-0.1c0-1.4,0.5-2.7,1.5-3.9
		C162.6,22.4,163.9,21.8,165.4,21.8z"/>
	<path class="st0" d="M172.4,21.8c0.2,0,0.7,0,1.5,0l0,0c0,0.8,0,2.5,0,4.9c0.8,0,2.5,0,5,0c0-0.8,0-2.5,0-4.9l0,0
		c0.2,0,0.7,0,1.5,0l0,0c0,1.9,0,5.7,0,11.4l0,0c-0.2,0-0.7,0-1.5,0l0,0c0-0.8,0-2.5,0-4.9c-0.8,0-2.5,0-5,0c0,0.8,0,2.5,0,4.9l0,0
		c-0.2,0-0.7,0-1.5,0c0,0,0,0,0,0C172.3,31.3,172.3,27.5,172.4,21.8L172.4,21.8z"/>
	<path class="st0" d="M183.4,21.8c1,0,3.1,0,6.1,0c0,0.2,0,0.8,0,1.5c-0.8,0-2.3,0-4.6,0c0,0.6,0,1.7,0,3.5c0.6,0,1.8,0,3.7,0l0,0
		c0,0.2,0,0.7,0,1.5l0,0c-0.6,0-1.8,0-3.7,0c0,0.6,0,1.7,0,3.5c0.8,0,2.3,0,4.6,0c0,0.2,0,0.8,0,1.5c-1,0-3.1,0-6.1,0h0
		C183.4,31.3,183.4,27.5,183.4,21.8L183.4,21.8z"/>
	<path class="st0" d="M192,21.8c0.3,0,0.8,0,1.6,0c0.9,1.4,2.7,4.1,5.5,8.2c0.1,0.1,0.2,0.4,0.5,0.8c0-1.5,0-4.5,0-8.9l0,0
		c0.2,0,0.7,0,1.5,0l0,0c0,1.9,0,5.7,0,11.4l0,0c-0.3,0-0.8,0-1.6,0c-0.3-0.4-1.3-1.9-3.1-4.7c-0.6-0.9-1.6-2.4-2.9-4.3
		c0,1.5,0,4.5,0,8.9l0,0c-0.2,0-0.7,0-1.5,0c0,0,0,0,0,0C191.9,31.3,191.9,27.5,192,21.8L192,21.8z"/>
</g>
<path class="st1" d="M76.5,26l-22.1-8v5H25.6c-1.7,0-3,1.3-3,3s1.3,3,3,3h28.8v5L76.5,26z"/>
</svg>
