<?xml version="1.0" encoding="utf-8"?>
<!-- Generator: Adobe Illustrator 27.2.0, SVG Export Plug-In . SVG Version: 6.00 Build 0)  -->
<svg version="1.1" id="Ebene_1" xmlns="http://www.w3.org/2000/svg" xmlns:xlink="http://www.w3.org/1999/xlink" x="0px" y="0px"
	 viewBox="0 0 107 108" style="enable-background:new 0 0 107 108;" xml:space="preserve">
<style type="text/css">
	.st0{fill:#FFFFFF;}
</style>
<g>
	<path class="st0" d="M24.3,76.5c-2.5,2.4-4.9,4.9-7.3,7.3c-0.2,0.2-0.4,0.4-0.6,0.6c-0.8,0.8-0.9,1.6-0.3,2.2
		c0.6,0.6,1.3,0.7,2.2,0c0.7-0.5,1.4-0.6,2,0.1c0.6,0.6,0.6,1.3,0,2c-0.6,0.7-0.6,1.4,0,2.1c0.6,0.6,1.3,0.5,2,0
		c0.8-0.6,1.6-0.5,2.2,0.1c0.5,0.6,0.5,1.4-0.2,2.1c-1.9,1.9-3.9,3.9-5.8,5.8c-1.4,1.4-3.1,2-5.3,2c-2.9-0.2-5.2-1.6-6.5-4.4
		c-1.2-2.9-0.8-5.6,1.4-7.9c2.9-3,5.9-5.9,8.8-8.9c1.8-1.8,3.6-3.6,5.4-5.4c0.9-0.9,2-0.8,2.5,0.1C25.1,75.3,24.9,75.9,24.3,76.5
		 M26.5,78.4c1.3-1.3,1.7-2.9,1.1-4.7c-1.1-3.2-4.9-4-7.4-1.5c-4.1,4.1-8.1,8.2-12.3,12.2c-2.3,2.2-4.4,4.6-4.9,7.9v2.5
		c0.3,0.9,0.4,1.8,0.8,2.7c1.5,3.3,4,5.4,7.6,6.1c0.2,0,0.4,0.1,0.6,0.2h2.5c2.2-0.5,4.2-1.2,5.8-2.8c2-2,4.1-4,6-6
		c2.5-2.6,1.3-6.5-2.2-7.4c-0.3-0.1-0.6-0.3-0.7-0.5c-0.3-1.5-1.1-2.5-2.4-3.3C22.9,82,24.7,80.2,26.5,78.4"/>
	<path class="st0" d="M96.1,100.3c-2.8,1.3-5.5,0.9-7.8-1.2c-2.1-1.9-4.1-4-6.1-6c-0.6-0.6-0.7-1.3-0.2-2c0.5-0.6,1.3-0.7,2.1-0.2
		c0.7,0.5,1.4,0.7,2.1,0c0.7-0.7,0.5-1.4,0-2.2c-0.5-0.7-0.5-1.3,0.1-1.9c0.6-0.6,1.3-0.6,2-0.1c1,0.7,1.7,0.7,2.3,0
		c0.6-0.7,0.5-1.4-0.4-2.3c-2.6-2.6-5.1-5.1-7.7-7.7c-0.2-0.2-0.5-0.5-0.6-0.7c-0.4-0.6-0.3-1.3,0.2-1.8c0.5-0.5,1.2-0.6,1.8-0.2
		c0.2,0.2,0.5,0.4,0.7,0.6c4.5,4.5,9,9,13.6,13.6c1.5,1.5,2.4,3.3,2.4,5.7C100.3,96.7,98.9,99,96.1,100.3 M100.3,86.4
		c-4.7-4.8-9.4-9.5-14.2-14.2c-1.8-1.8-4.6-1.8-6.3-0.1c-1.7,1.7-1.7,4.5,0.1,6.3c1.6,1.6,3.2,3.2,4.8,4.8c0.2,0.2,0.4,0.4,0.6,0.6
		c-1.3,0.8-2.1,1.8-2.4,3.2c-0.1,0.2-0.4,0.5-0.7,0.6c-3.5,0.9-4.7,4.9-2.2,7.5c1.3,1.3,2.6,2.5,3.9,3.9c2.2,2.4,4.6,4.3,7.9,4.9
		h2.5c0.1-0.1,0.2-0.1,0.4-0.2c4.1-0.8,6.9-3.1,8.1-7C104.1,92.8,103.2,89.3,100.3,86.4"/>
	<path class="st0" d="M24.5,33.4c-0.6,0.5-1.2,0.6-1.9,0.1c-0.2-0.1-0.3-0.3-0.5-0.5c-4.6-4.6-9.2-9.2-13.8-13.8
		c-1.5-1.5-2.3-3.2-2.3-5.6c0.1-2.8,1.5-5.1,4.3-6.4c2.8-1.3,5.5-0.9,7.8,1.1c2.1,1.9,4.1,4,6.1,6.1c0.7,0.7,0.7,1.5,0.1,2.1
		c-0.6,0.6-1.3,0.6-2,0.1c-0.7-0.6-1.4-0.7-2.1-0.1c-0.7,0.7-0.6,1.4,0,2.2c0.5,0.6,0.5,1.4-0.1,1.9c-0.6,0.6-1.3,0.6-2,0.1
		c-0.9-0.6-1.6-0.6-2.2,0c-0.6,0.7-0.5,1.4,0.3,2.2c2.6,2.6,5.1,5.1,7.7,7.7c0.2,0.2,0.5,0.5,0.7,0.7C25.1,32.2,25,32.8,24.5,33.4
		 M21.1,23.8c1.4-0.8,2.2-1.9,2.5-3.3c0-0.2,0.5-0.5,0.8-0.5c3.3-0.8,4.6-4.7,2.3-7.2c-2.1-2.3-4.3-4.6-6.7-6.6
		C14.5,1.4,6,3.8,3.6,10.6c-0.2,0.7-0.4,1.4-0.6,2.1v2.5c0.5,2.2,1.3,4.3,3,5.9c4.8,4.8,9.5,9.5,14.3,14.2c0.7,0.7,1.8,1.2,2.8,1.3
		c1.8,0.3,3.5-0.8,4.3-2.4c0.8-1.7,0.5-3.6-0.8-5C24.8,27.4,22.9,25.7,21.1,23.8"/>
	<path class="st0" d="M90.1,23.1c0.8-0.8,0.8-1.5,0.3-2.2c-0.5-0.7-1.3-0.7-2.2-0.1c-0.7,0.5-1.4,0.6-2,0c-0.7-0.7-0.6-1.4,0-2.1
		c0.5-0.7,0.6-1.4,0-2c-0.6-0.6-1.3-0.6-2-0.1c-0.9,0.6-1.6,0.6-2.2-0.1c-0.6-0.7-0.5-1.4,0.3-2.2c1.9-1.9,3.8-3.8,5.7-5.7
		c1.4-1.4,3.1-2.1,5.3-2.1c2.9,0.1,5.2,1.5,6.5,4.3c1.3,2.8,0.9,5.5-1.2,7.8c-1.8,2.1-3.9,4-5.8,5.9c-2.7,2.7-5.4,5.4-8.1,8.1
		c-0.2,0.2-0.3,0.3-0.5,0.5c-0.8,0.7-1.6,0.8-2.2,0.1c-0.6-0.6-0.5-1.4,0.2-2.2c0.9-0.9,1.8-1.8,2.8-2.8
		C86.6,26.6,88.4,24.9,90.1,23.1 M79.9,29.1c-1,1-1.5,2.2-1.4,3.6c0.2,1.8,1.1,3.1,2.8,3.7c1.7,0.7,3.4,0.3,4.7-1
		c2.2-2.1,4.3-4.2,6.4-6.4c2.6-2.6,5.1-5.1,7.7-7.7c2.7-2.8,3.8-6,2.9-9.8c-0.9-3.8-3.4-6.4-7.1-7.5C92,3,88.5,4,85.6,6.8
		c-1.8,1.8-3.7,3.6-5.5,5.5c-2.7,2.8-1.6,6.6,2.1,7.7c0.2,0.1,0.5,0.3,0.6,0.5c0.3,1.5,1.1,2.5,2.4,3.3
		C83.5,25.6,81.7,27.4,79.9,29.1"/>
	<path class="st0" d="M69.2,73.9C69.2,74,69.1,74,69.2,73.9L53.2,74H37.4c0,0-0.1,0-0.1-0.1c0-4.9,0-9.7,0-14.5c0-0.4,0-0.8,0-1.1
		c0.3-2.6,2.4-4.7,5.2-4.7c3.6,0,7.1-0.1,10.7-0.1c3.6,0,7.1,0,10.7,0.1c2.8,0,5,2.1,5.2,4.7c0,0.4,0,0.8,0,1.1
		C69.2,64.2,69.2,69,69.2,73.9 M42.4,39.2c0-6,4.8-10.8,10.8-10.8c5.9,0,10.8,4.9,10.8,10.8c0,6-4.8,10.8-10.8,10.9
		C47.2,50,42.4,45.2,42.4,39.2 M72.6,57.3c-0.2-1.1-0.7-2.1-1.2-3c-0.5-0.8-1.1-1.5-1.8-2.1c-1.5-1.2-3.3-1.9-5.2-2.1c0,0,0,0,0,0
		c-0.6-0.1-0.9-0.8-0.5-1.3c3.8-4.7,4.9-9.9,2.3-15.5c-2.9-6.3-9.8-9.7-16.5-8c-4.2,1.1-7.5,4-9.3,8c-2.6,5.6-1.5,10.8,2.3,15.5
		C43,49.3,42.6,50,42,50c0,0,0,0,0,0c-1.9,0.2-3.7,0.9-5.2,2.1c-0.7,0.6-1.3,1.3-1.8,2.1c-0.6,1-1.1,1.9-1.2,3
		c-0.3,2.1-0.1,4.3-0.1,6.4c0,2.2,0,4.3,0,6.5v6.6c0,0.4,0.4,0.8,0.8,0.8h18.7h18.7c0.4,0,0.8-0.4,0.8-0.8v-6.6c0-2.2,0-4.3,0-6.5
		C72.7,61.6,72.9,59.4,72.6,57.3"/>
	<path class="st0" d="M49.2,45.1c0.9,0.1,1.5-0.3,1.7-1.3c0.1-0.5,0.2-1.1,0.6-1.6c0.4-0.5,1.3-0.7,1.9-0.7c0.7,0,1.4,0.3,1.7,0.9
		c0.2,0.4,0.3,0.9,0.4,1.3c0.2,1,0.8,1.4,1.7,1.3c0.8-0.1,1.3-0.7,1.3-1.6c0-2-1.4-3.6-3.3-4.1c-3-0.9-7.2,0.5-7.3,4.1
		C47.9,44.4,48.4,45,49.2,45.1"/>
</g>
</svg>
