<?xml version="1.0" encoding="utf-8"?>
<!-- Generator: Adobe Illustrator 27.2.0, SVG Export Plug-In . SVG Version: 6.00 Build 0)  -->
<svg version="1.1" id="Ebene_1" xmlns="http://www.w3.org/2000/svg" xmlns:xlink="http://www.w3.org/1999/xlink" x="0px" y="0px"
	 viewBox="0 0 119 114" style="enable-background:new 0 0 119 114;" xml:space="preserve">
<style type="text/css">
	.st0{fill:#FFFFFF;}
</style>
<g>
	<path class="st0" d="M106.1,104.3H86.6c0-3.2-0.1-6.4,0-9.6c0.1-1.7,1.4-2.9,3.2-2.9c4.4,0,8.8,0,13.2,0c1.7,0,3,1.3,3.2,2.9
		c0,0.2,0,0.5,0,0.7C106.1,98.3,106.1,101.3,106.1,104.3 M89.7,83c0-3.7,3-6.6,6.6-6.6c3.6,0,6.6,3,6.6,6.6c0,3.7-2.9,6.6-6.6,6.6
		C92.7,89.7,89.7,86.7,89.7,83 M83.4,68.2c-3.7,0-6.6-3-6.6-6.7c0-3.6,3-6.6,6.7-6.6c3.7,0,6.6,3,6.6,6.7
		C90,65.3,87.1,68.2,83.4,68.2 M76.4,83.1c0,3.6-3,6.6-6.6,6.6c-3.7,0-6.7-3-6.7-6.7c0-3.7,3-6.6,6.7-6.6
		C73.5,76.4,76.4,79.4,76.4,83.1 M76,91.8c2,0,3.6,1.6,3.6,3.6c0,2.9,0,5.9,0,8.9H60c0-0.3-0.1-0.6-0.1-0.9c0-2.7,0-5.3,0-8
		c0-2.4,1.3-3.7,3.6-3.7C67.7,91.8,71.9,91.8,76,91.8 M56.2,68.2c-3.7,0-6.7-2.9-6.7-6.5c0-3.7,2.9-6.7,6.6-6.7
		c3.6,0,6.6,2.9,6.6,6.6C62.8,65.2,59.9,68.2,56.2,68.2 M49.9,83c0,3.6-3,6.6-6.6,6.6c-3.6,0-6.6-2.9-6.7-6.6c0-3.6,2.9-6.7,6.6-6.7
		C46.9,76.4,49.9,79.4,49.9,83 M53,95.5c0,2.9,0,5.8,0,8.8H33.4v-1c0-2.6,0-5.2,0-7.9c0-2.6,1.5-3.9,4.3-3.7c3.7,0.3,7.3,0.2,11,0
		C51.6,91.6,53,92.9,53,95.5 M108.2,94.1c-0.1-0.7-0.4-1.3-0.8-1.9c-0.3-0.5-0.7-0.9-1.1-1.3c-0.9-0.8-2-1.1-3.2-1.3
		c0,0-0.1,0-0.1,0c-0.3,0-0.5-0.4-0.3-0.7c2.4-2.9,3-6,1.4-9.5c-1.6-3.5-4.6-5.2-8.5-5.2c-0.2,0-0.4-0.2-0.4-0.4
		c0-1.5-0.4-2.9-1.5-4c-1-1-2.2-1.5-3.6-1.6c-0.3,0-0.5-0.4-0.3-0.7c3.7-4.6,2.2-9.6-0.3-12.1c-3.1-3.1-7.9-3.5-11.4-0.9
		c-1.8,1.3-2.9,3-3.4,5.1c-0.7,3,0.1,5.6,2,7.9c0.2,0.3,0.1,0.7-0.3,0.7c-3.4,0.4-5.1,2.4-5.2,5.7c0,0.2-0.2,0.4-0.4,0.4h-2.4
		c-0.2,0-0.4-0.2-0.4-0.4c-0.2-3.4-1.9-5.4-5.2-5.8c-0.3,0-0.5-0.4-0.3-0.7c2.9-4.2,3-8.2,0.5-11.3c-3.2-4-9.3-4.4-13-0.9
		c-1.3,1.2-2.1,2.7-2.5,4.5c-0.6,2.9,0.2,5.5,2.1,7.7c0.2,0.3,0,0.7-0.3,0.7c-1.4,0.1-2.6,0.6-3.6,1.6c-1.1,1.1-1.5,2.5-1.6,4
		c0,0.2-0.2,0.4-0.4,0.4c-3.8,0-6.7,1.6-8.4,5.1c-1.8,3.8-0.9,7.2,1.9,10.3c-0.3,0-0.4,0.1-0.6,0.1c-3.4,0.3-5.4,2.4-5.4,5.8
		c0,3.1,0,6.3,0,9.4c0,0.5,0.3,0.9,0.6,1.4c0.1,0.1,0.2,0.2,0.4,0.2h22c0.2,0,0.3-0.1,0.4-0.3c0.2-0.5,0.4-1,0.4-1.5
		c0.1-3,0-6.1,0-9.1c0-3.6-1.9-5.7-5.5-5.9c-0.1,0-0.2,0-0.5-0.1c0.3-0.3,0.5-0.5,0.6-0.7c3.8-4.3,2.5-11-2.5-13.6
		c-0.8-0.4-1-0.8-1-1.6c0.1-2,1.3-3.3,3.3-3.3c4.4,0,8.7,0,13.1,0c2.6,0,3.6,2.2,3.2,4.6c0,0.2-0.3,0.4-0.4,0.5
		c-5.1,2.9-6,9.9-1.8,14c0,0,0,0.1,0.1,0.2c-0.3,0-0.5,0-0.8,0.1c-3.1,0.3-5.1,2.4-5.1,5.5c0,1.9,0,3.9,0,5.8c0,1.3-0.1,2.7,0,4
		c0,0.4,0.3,0.9,0.6,1.3c0.1,0.1,0.2,0.2,0.4,0.2h22c0.2,0,0.3-0.1,0.4-0.3c0.2-0.5,0.4-1,0.5-1.5c0.1-3,0-6,0-9
		c0-3.7-1.9-5.8-5.6-6.1c-0.1,0-0.2,0-0.4-0.1c0.2-0.3,0.4-0.5,0.7-0.8c3.4-3.9,2.7-9.9-1.5-12.9c-0.4-0.3-1.1-0.6-1.1-0.9
		c-0.2-0.7-0.1-1.6,0.1-2.3c0.3-1.3,1.5-2.3,2.9-2.3c4.5,0,9-0.1,13.6,0c2,0,3.6,2.3,3,4.2c-0.1,0.2-0.3,0.4-0.5,0.4
		c-5.6,2.5-6.9,10-2.5,14.3c0,0,0,0.1,0.1,0.2c-0.5,0.1-1.1,0.1-1.6,0.2c-2.2,0.4-4.1,2.3-4.2,4.5c-0.1,3.7-0.1,7.4-0.1,11.1
		c0,0.3,0.3,0.6,0.5,0.9c0.1,0.1,0.2,0.2,0.3,0.2h22.5c0.2,0,0.4-0.2,0.4-0.4V102c0-1.3,0-2.6,0-4C108.3,96.7,108.4,95.4,108.2,94.1
		"/>
	<path class="st0" d="M18.3,20.3c4.3,0,7.7,3.5,7.8,7.7c0,4.3-3.5,7.8-7.7,7.8s-7.7-3.5-7.7-7.8C10.6,23.7,14,20.3,18.3,20.3
		 M18.3,37.9c5.4,0,9.8-4.4,9.9-9.9c0-5.4-4.4-9.9-9.8-9.9c-5.4,0-9.9,4.4-9.9,9.8C8.4,33.4,12.8,37.9,18.3,37.9"/>
	<path class="st0" d="M52.4,15.8V8.4H106v35.8H52.3C52.3,43.8,52.4,15.8,52.4,15.8 M50.2,31.7v0.6c0,0.9,0,1.8,0,2.7
		c0,1.7,0,3.4,0,5.1c0,1.7,0,3.4,0,5c0,0.3,0,0.5,0.2,0.8c0.3,0.6,1.1,0.5,1.6,0.5c6.1,0,12.2,0,18.4,0c12,0,24,0,36.1,0
		c0.5,0,1.2-0.1,1.6-0.6c0.2-0.3,0.2-0.7,0.3-1.1c0-0.7,0-1.3,0-2v-4v-5.1v-5.7v-5.8v-5.4v-4.5V9.2V8c0-1-0.8-1.8-1.8-1.8H52
		c-0.8,0-1.6,0.6-1.8,1.4c0,0.1,0,0.2,0,0.3c0,2.9,0,5.8,0,8.8h0v12.6v1.2C50.2,30.8,50.2,31.3,50.2,31.7"/>
	<path class="st0" d="M27.5,54.3c-2.4-1.7-4.7-3.4-7.1-5.1c-0.2-0.2-0.4-0.3-0.6-0.5c-0.6-0.4-1.2-0.5-1.6,0.2
		c-0.5,0.6-0.2,1.2,0.4,1.6c2.5,1.8,4.9,3.6,7.4,5.3c0.9,0.6,0.7,1.2,0.8,2.5c0.1,1.9,0.1,3.9,0,5.9c0,0.6,0,1,0,1.6
		c0,0.1,0,0.1-0.1,0.1H10c-0.1,0-0.1,0-0.1-0.1c0-0.3,0-0.6,0-0.9c0-4.8,0-9.6,0-14.4c0-5.4,4.6-8.8,9.8-7.2
		c2.2,0.7,4.1,1.9,5.9,3.3c1.2,0.9,2.3,1.8,3.5,2.7c0.9,0.7,1.4,0.6,2.1-0.3c2.4-3.4,4.8-6.8,7.3-10.1c0.4-0.6,1.1-1.1,1.7-1.3
		c0.8-0.3,1.6-0.1,2.2,0.5c0.9,0.9,1,2.4,0.2,3.4c-1.2,1.7-2.5,3.5-3.8,5.2c-1.6,2.2-3.2,4.4-4.8,6.6C32.5,55.3,29.6,55.8,27.5,54.3
		 M26.7,100.4c0,2.2-1.6,3.8-3.8,3.8c-2.1,0-3.6-1.6-3.6-4c0-6.6,0-13.2,0-19.8c0-1.6,0-3.2,0-4.8c0-0.7-0.3-1.2-1.1-1.2
		c-0.7,0-1,0.5-1,1.2c0,0.3,0,0.6,0,0.9c0,7.8,0,15.5,0,23.3c0,0.4,0,0.8,0,1.2c-0.2,2.2-2.1,3.6-4.3,3.3c-1.8-0.3-3.1-1.8-3.1-3.9
		c0-10.4,0-20.8,0-31.1c0-0.3,0-0.5,0.1-0.8c0-0.1,0-0.1,0.1-0.1h1.1c5.2,0,10.3,0,15.5,0c0.1,0,0.1,0,0.1,0.1c0,4.8,0,15.5,0,16.8
		C26.7,90.2,26.8,95.3,26.7,100.4 M35.2,55.2c3.1-4.2,6.2-8.4,9.3-12.6c1.1-1.5,1-3.5,0.1-5c-0.4-0.7-1-1.3-1.7-1.7
		c-1.1-0.6-2.4-0.7-3.5-0.4c-1.1,0.3-2,1.2-2.7,2.1c-2.1,3-4.2,5.9-6.3,8.9c-0.1,0.2-0.3,0.4-0.5,0.6c0,0-0.1,0.1-0.1,0
		c-0.9-0.7-1.8-1.4-2.7-2c-2-1.5-4-2.9-6.4-3.7c-5-1.6-10,0.5-12,5.1c-0.6,1.4-0.8,2.8-0.8,4.3c0,1.6,0,3.1,0,4.7v5.8v6.8v7.3v7.3
		v6.8v5.8c0,1.3,0,2.6,0,3.9c0,1.1,0,2.2,0.3,3.3c0.3,1,0.9,1.9,1.6,2.5c1,0.9,2.4,1.5,3.8,1.5c0.1,0,0.3,0,0.4,0
		c1.8-0.1,3.2-0.9,4.4-2.3c0,0,0.1,0,0.2,0c0.1,0.2,0.2,0.3,0.4,0.4c1.7,1.8,4.2,2.4,6.5,1.5c2.3-0.9,3.7-3,3.7-5.5
		c0-6.7,0-27.7,0-34.4c0-0.1,0-0.2,0-0.2c0-2.1,0-4.2,0-6.3c0-0.6,0-1.3,0-1.9c0-0.1,0.1-0.1,0.1-0.1C31.5,57.8,33.7,57.2,35.2,55.2
		"/>
	<path class="st0" d="M73.5,16.2c-1.7,0-3.1,0.7-4.3,2c-1.3,1.6-1.8,3.4-1.5,5.7c0.2,1.2,0.7,2.4,1.7,3.6c1.1,1.5,2.6,2.9,4,4.1
		c1.8,1.6,3.6,3.1,5.4,4.7l0,0c0.3,0.3,0.5,0.2,0.7,0l0.9-0.8c2-1.7,4.1-3.5,6.1-5.3c1.2-1,2.1-2.2,2.9-3.3c1-1.5,1.4-3.1,1.3-4.7
		l0-0.1c-0.2-2.6-1.9-5-4.2-5.7c-0.9-0.3-2.2-0.5-3.6,0c-1.1,0.4-2,1.2-3,2.3l-0.8,1l-0.8-1c-1.4-1.6-2.6-2.4-3.9-2.6
		C74.1,16.2,73.8,16.2,73.5,16.2 M79.2,38.6c-0.6,0-1.2-0.2-1.8-0.7l0,0c-1.8-1.5-3.6-3.1-5.4-4.7c-1.5-1.3-3-2.7-4.3-4.4
		c-1.1-1.5-1.8-3-2.1-4.6c-0.4-2.9,0.2-5.4,2-7.4c1.8-2.1,4.3-3,7.1-2.7c1.9,0.2,3.4,1.3,4.5,2.4c0.9-1,2-1.7,3.1-2.1
		c1.5-0.6,3.2-0.6,4.9,0c3.1,1,5.4,4,5.6,7.6l0,0.1c0.1,2-0.5,4.2-1.7,6c-0.9,1.3-1.9,2.6-3.2,3.7c-2,1.8-4.1,3.6-6.1,5.3L80.9,38
		C80.4,38.4,79.8,38.6,79.2,38.6"/>
</g>
</svg>
