<?xml version="1.0" encoding="utf-8"?>
<!-- Generator: Adobe Illustrator 27.2.0, SVG Export Plug-In . SVG Version: 6.00 Build 0)  -->
<svg version="1.1" id="Ebene_1" xmlns="http://www.w3.org/2000/svg" xmlns:xlink="http://www.w3.org/1999/xlink" x="0px" y="0px"
	 viewBox="0 0 44 70" style="enable-background:new 0 0 44 70;" xml:space="preserve">
<style type="text/css">
	.st0{fill:#FFFFFF;}
</style>
<g>
	<path class="st0" d="M23.7,61.5h-2.2v-8.3h2.2V61.5z M28.6,52.1c6.7-2.5,11.1-8.8,11.2-15.9c0-1.4-1-2.4-2.4-2.2
		c-1.1,0.1-1.8,1-1.9,2.2c-0.1,1.3-0.2,2.7-0.6,3.9c-1.8,5.6-7.3,9.4-13.2,8.8c-5.3-0.5-9-3.3-11.1-8.2C10,39.2,9.7,37.6,9.7,36
		c0-1.3-1-2.1-2.2-2.1c-1.1,0-2.1,1-2,2.2c0.1,1.5,0.2,3,0.6,4.4c1.6,5.6,5.2,9.5,10.7,11.6c0.4,0.1,0.5,0.3,0.5,0.7
		c0,2.7,0,5.4,0,8.1c0,0.2,0,0.3,0,0.6c-1,0-1.9,0-2.8,0c-1.1,0.1-1.9,1-1.9,2.1c0,1.1,0.7,1.7,1.7,2.1h17c0.6-0.3,1.2-0.6,1.5-1.3
		c0.6-1.3-0.3-2.8-1.7-2.9c-0.9-0.1-1.9,0-2.9,0v-0.8c0-2.6,0-5.2,0-7.8C28,52.5,28.1,52.3,28.6,52.1"/>
	<path class="st0" d="M18.1,13.3c0-2.3,1.1-3.9,3.1-4.4c2.7-0.7,5.1,0.4,5.7,3c0.1,0.5,0.2,1,0.2,1.5c0,4,0,8,0,12c0,4,0,8.1,0,12.1
		c0,1.8-0.7,3.3-2.4,4.1c-2.2,1-5.6,0.5-6.5-2.7c-0.1-0.5-0.2-1-0.2-1.5C18.1,29.4,18.1,21.4,18.1,13.3 M13.9,37.7
		c0,1,0.1,2,0.4,2.9c1.2,3.7,4.8,6.5,10,5.6c4.2-0.7,7-4.1,7-8.4c0-8.2,0-16.5,0-24.7c0-0.7-0.1-1.3-0.2-2c-0.9-4.3-5-7.6-10.7-6.4
		c-4,0.8-6.6,4.2-6.6,8.3c0,4.1,0,8.3,0,12.4C13.9,29.5,13.9,33.6,13.9,37.7"/>
</g>
</svg>
