<?xml version="1.0" encoding="utf-8"?>
<!-- Generator: Adobe Illustrator 27.2.0, SVG Export Plug-In . SVG Version: 6.00 Build 0)  -->
<svg version="1.1" id="Ebene_1" xmlns="http://www.w3.org/2000/svg" xmlns:xlink="http://www.w3.org/1999/xlink" x="0px" y="0px"
	 viewBox="0 0 129 116" style="enable-background:new 0 0 129 116;" xml:space="preserve">
<style type="text/css">
	.st0{fill:#AA96A0;}
</style>
<g>
	<path class="st0" d="M119,72.7c-0.3,0.7-0.5,1-0.7,1.4c-3.6,7.7-8,14.9-14.1,20.9c-1.2,1.2-2.5,1.7-4.2,1.7c-22.3,0-44.6,0-66.9,0
		h-1.4v7.2H119V72.7z M97.4,17H79c0,1.2,0,2.3,0,3.3c0,2.2-1.6,3.8-3.7,3.8c-2,0-3.5-1.6-3.6-3.8c0-1.1,0-2.2,0-3.4H53.6
		c0,1.1,0,2.1,0,3.2c0,2.3-1.5,4-3.6,4c-2.1,0-3.6-1.6-3.6-4c0-1.1,0-2.1,0-3.2H31.7v14.3H119V16.9h-14.4c0,1.2,0,2.4,0,3.5
		c-0.1,2.1-1.6,3.6-3.6,3.7c-2,0-3.6-1.6-3.7-3.7C97.3,19.3,97.4,18.2,97.4,17 M14.6,89.3c0.5,0,0.6,0,0.8,0c27.8,0,55.5,0,83.3,0
		c0.5,0,1.2-0.4,1.6-0.8c3.5-3.6,6.4-7.7,8.8-12.1c5-9.2,7.9-19,9.3-29.4c0.4-2.8,0.5-5.6,0.8-8.4H31.6c-0.3,9.1-1.8,18-4.5,26.6
		C24.3,73.9,20.3,82,14.6,89.3 M126.3,12.3v96.2c-1,2.1-2.6,2.7-4.9,2.7c-30.5,0-61.1-0.1-91.6,0c-4.1,0-5.7-1.3-5.5-5.5
		c0.2-3,0-5.9,0-9H23c-5.2,0-10.4-0.1-15.6,0c-2.2,0-3.8-0.7-4.7-2.7V92c0.4-0.6,0.8-1.3,1.3-1.8c3.8-3.3,6.8-7.3,9.3-11.7
		c7.4-12.9,10.8-26.9,11.1-41.6c0.2-7.7,0-15.5,0-23.2c0-2.7,1.4-4.1,4.1-4.1c5.5,0,11,0,16.5,0h1.3c0-1.2,0-2.2,0-3.2
		c0-2.4,1.5-4.1,3.7-4.1c2.1,0,3.6,1.7,3.6,4c0,1.1,0,2.1,0,3.2h18.1c0-1.1,0-2.1,0-3.2c0-2.3,1.5-4,3.6-4c2.1,0,3.6,1.6,3.6,4
		c0,1.1,0,2.1,0,3.2h18.4c0-1.2,0-2.3,0-3.3c0-2.2,1.5-3.8,3.6-3.8c2.1,0,3.6,1.6,3.7,3.8c0,1.1,0,2.2,0,3.5h1.4
		c5.2,0,10.3,0.1,15.5,0C123.7,9.6,125.4,10.2,126.3,12.3"/>
</g>
</svg>
