<?xml version="1.0" encoding="utf-8"?>
<!-- Generator: Adobe Illustrator 27.1.1, SVG Export Plug-In . SVG Version: 6.00 Build 0)  -->
<svg version="1.1" id="Ebene_1" xmlns="http://www.w3.org/2000/svg" xmlns:xlink="http://www.w3.org/1999/xlink" x="0px" y="0px"
	 viewBox="0 0 64 30" style="enable-background:new 0 0 64 30;" xml:space="preserve">
<style type="text/css">
	.st0{fill:#EBD480;}
	.st1{fill:#FFFFFF;}
</style>
<g>
	<g>
		<path class="st0" d="M15,0.6c-7.7,0-14,6.3-14,14s6.3,14,14,14h34.8c7.7,0,14-6.3,14-14s-6.3-14-14-14H15z"/>
	</g>
</g>
<g>
	<path class="st1" d="M13.1,10.7c0.2,0,0.6,0,1.1,0h0c0,1.2,0,3.7,0,7.5c0.6,0,1.9,0,3.7,0c0,0.2,0,0.6,0,1.1c-0.8,0-2.4,0-4.8,0h0
		C13.1,17.9,13.1,15,13.1,10.7L13.1,10.7z"/>
	<path class="st1" d="M18.9,10.7c0.2,0,0.6,0,1.1,0h0c0,1.4,0,4.3,0,8.6h0c-0.2,0-0.6,0-1.1,0h0C18.9,17.9,18.9,15,18.9,10.7
		L18.9,10.7z"/>
	<path class="st1" d="M25.3,10.7c0.2,0,0.6,0,1.1,0c0,1,0,3,0,6c0,0.4-0.1,0.8-0.3,1.2c-0.1,0.1-0.2,0.3-0.3,0.4
		c-0.2,0.2-0.3,0.3-0.4,0.4c-0.2,0.1-0.3,0.2-0.5,0.3c-0.4,0.2-0.7,0.2-1,0.2c-0.1,0-0.3,0-0.6,0c-0.4,0-0.7-0.1-1.1-0.3
		c-0.1-0.1-0.3-0.2-0.4-0.3c-0.1-0.1-0.2-0.1-0.3-0.2c-0.1-0.2-0.3-0.3-0.3-0.4c-0.1-0.1-0.1-0.2-0.2-0.4c-0.1-0.3-0.2-0.6-0.2-0.9
		c0-0.1,0-0.3,0-0.5c0.2,0,0.6,0,1.1,0c0,0.1,0,0.2,0,0.4c0,0.4,0.1,0.7,0.4,1c0.1,0.1,0.2,0.2,0.3,0.2c0.2,0.2,0.5,0.3,0.8,0.3
		c0.1,0,0.3,0,0.5,0c0.3,0,0.6-0.1,0.8-0.3c0.1-0.1,0.2-0.2,0.3-0.3c0.2-0.3,0.3-0.6,0.3-0.9C25.3,15.4,25.3,13.4,25.3,10.7
		L25.3,10.7z"/>
	<path class="st1" d="M31.6,10.7c0,0,0.2,0.4,0.5,1.3c0.7,1.6,1.7,4.1,3,7.3c0,0,0,0,0,0c-0.2,0-0.6,0-1.2,0c0,0-0.1-0.1-0.2-0.4
		c-0.1-0.3-0.3-0.8-0.6-1.5c-0.7,0-2,0-4.1,0c-0.1,0.3-0.4,0.9-0.7,1.8c-0.2,0-0.6,0-1.2,0c0.5-1.2,1.5-3.7,3-7.3
		c0.1-0.2,0.3-0.6,0.5-1.3C30.7,10.7,31.1,10.7,31.6,10.7z M29.5,16.3c0.5,0,1.6,0,3.1,0c-0.3-0.6-0.8-1.9-1.6-3.9
		c0,0-0.2,0.5-0.6,1.6C30.2,14.6,29.9,15.3,29.5,16.3z"/>
	<path class="st1" d="M36,10.7c0.2,0,0.6,0,1.2,0c0.7,1,2.1,3.1,4.1,6.1c0.1,0.1,0.2,0.3,0.4,0.6c0-1.1,0-3.3,0-6.7l0,0
		c0.2,0,0.6,0,1.1,0l0,0c0,1.4,0,4.3,0,8.6l0,0c-0.2,0-0.6,0-1.2,0c-0.2-0.3-1-1.5-2.3-3.5c-0.5-0.7-1.2-1.8-2.2-3.2
		c0,1.1,0,3.3,0,6.7l0,0c-0.2,0-0.5,0-1.1,0c0,0,0,0,0,0C36,17.9,36,15,36,10.7L36,10.7z"/>
	<path class="st1" d="M48.3,10.7c0,0,0.2,0.4,0.5,1.3c0.7,1.6,1.7,4.1,3,7.3c0,0,0,0,0,0c-0.2,0-0.6,0-1.2,0c0,0-0.1-0.1-0.2-0.4
		c-0.1-0.3-0.3-0.8-0.6-1.5c-0.7,0-2,0-4.1,0c-0.1,0.3-0.4,0.9-0.7,1.8c-0.2,0-0.6,0-1.2,0c0.5-1.2,1.5-3.7,3-7.3
		c0.1-0.2,0.3-0.6,0.5-1.3C47.4,10.7,47.8,10.7,48.3,10.7z M46.2,16.3c0.5,0,1.6,0,3.1,0c-0.3-0.6-0.8-1.9-1.6-3.9
		c0,0-0.2,0.5-0.6,1.6C46.9,14.6,46.6,15.3,46.2,16.3z"/>
</g>
</svg>
