<?xml version="1.0" encoding="utf-8"?>
<!-- Generator: Adobe Illustrator 27.1.1, SVG Export Plug-In . SVG Version: 6.00 Build 0)  -->
<svg version="1.1" id="Ebene_1" xmlns="http://www.w3.org/2000/svg" xmlns:xlink="http://www.w3.org/1999/xlink" x="0px" y="0px"
	 viewBox="0 0 113 30" style="enable-background:new 0 0 113 30;" xml:space="preserve">
<style type="text/css">
	.st0{fill:#EBD480;}
	.st1{fill:#FFFFFF;}
</style>
<g>
	<g>
		<path class="st0" d="M14.2,1.4c-7.7,0-14,6.3-14,14s6.3,14,14,14H98c7.7,0,14-6.3,14-14s-6.3-14-14-14H14.2z"/>
	</g>
</g>
<g>
	<path class="st1" d="M15.9,11.5L15.9,11.5c1.1,0,2.1,0.4,2.9,1.3c0.3,0.3,0.5,0.6,0.6,0.9c0,0-0.4,0.2-1,0.6
		c-0.1-0.2-0.3-0.4-0.5-0.7c-0.6-0.6-1.3-0.9-2.1-0.9c-0.8,0-1.5,0.3-2.1,0.9C13.3,14.2,13,15,13,15.8c0,1,0.4,1.8,1.1,2.5
		c0.6,0.5,1.2,0.7,1.8,0.7c0,0,0.1,0,0.1,0c0.7,0,1.3-0.3,1.9-0.8c0.3-0.3,0.4-0.5,0.6-0.7c0.2,0.1,0.5,0.3,1,0.5c0,0,0,0,0,0
		c-0.1,0.2-0.3,0.5-0.5,0.8c-0.9,0.9-1.9,1.4-3,1.4c-1.1,0-2.1-0.5-3-1.4c-0.7-0.9-1.1-1.8-1.1-2.9c0,0,0,0,0,0c0-1.1,0.4-2,1.1-2.9
		C13.8,12,14.8,11.5,15.9,11.5z"/>
	<path class="st1" d="M20.8,11.5c0,0,0.4,0.6,1.2,1.6c0.3,0.4,0.7,0.9,1.2,1.7c1.5-2.1,2.3-3.2,2.4-3.3c0.3,0,0.8,0,1.4,0
		c-0.5,0.7-1.6,2.2-3.2,4.4c0,0.7,0,2.1,0,4.1l0,0c-0.2,0-0.6,0-1.2,0c0,0,0,0,0,0c0-0.7,0-2.1,0-4.1c0,0-0.1-0.2-0.4-0.6
		c-0.6-0.9-1.6-2.2-2.8-3.9C19.6,11.5,20.1,11.5,20.8,11.5z"/>
	<path class="st1" d="M28,11.5c0.5,0,1.4,0,2.8,0c0.9,0,1.6,0.3,2.2,0.9c0.3,0.4,0.4,0.8,0.4,1.3c0,0,0,0.1,0,0.1
		c0,0.7-0.2,1.2-0.8,1.7v0c0.1,0.1,0.3,0.2,0.5,0.4c0.4,0.4,0.6,0.9,0.6,1.4c0,0.1,0,0.2,0,0.4c0,0.8-0.4,1.5-1.1,2
		C32.2,19.9,32,20,31.9,20c-0.2,0.1-0.6,0.1-1,0.1c-0.6,0-1.6,0-2.9,0c0,0,0,0,0,0C27.9,18.7,27.9,15.8,28,11.5L28,11.5z M29.1,16.2
		c0,0.5,0,1.4,0,2.8c0.3,0,1,0,1.9,0c0.7,0,1.2-0.2,1.4-0.7c0.1-0.2,0.1-0.4,0.1-0.6c0,0,0-0.1,0-0.2c0-0.5-0.3-0.9-0.8-1
		c-0.2-0.1-0.6-0.2-0.9-0.2C30.4,16.2,29.9,16.2,29.1,16.2C29.1,16.2,29.1,16.2,29.1,16.2z M29.1,12.7c0,0.4,0,1.2,0,2.4
		c0.3,0,0.8,0,1.6,0c0.7,0,1.2-0.2,1.5-0.7c0.1-0.1,0.1-0.3,0.1-0.4c0-0.1,0-0.1,0-0.3c0-0.4-0.3-0.7-0.9-0.9
		c-0.2-0.1-0.4-0.1-0.8-0.1C30.3,12.7,29.8,12.7,29.1,12.7z"/>
	<path class="st1" d="M35.2,11.5c0.8,0,2.3,0,4.6,0c0,0.2,0,0.6,0,1.1c-0.6,0-1.7,0-3.5,0c0,0.4,0,1.3,0,2.6c0.5,0,1.4,0,2.8,0l0,0
		c0,0.2,0,0.5,0,1.1l0,0c-0.5,0-1.4,0-2.8,0c0,0.4,0,1.3,0,2.6c0.6,0,1.7,0,3.5,0c0,0.2,0,0.6,0,1.1c-0.8,0-2.3,0-4.6,0h0
		C35.1,18.7,35.1,15.8,35.2,11.5L35.2,11.5z"/>
	<path class="st1" d="M41.1,11.5c0.5,0,1.4,0,2.8,0c0.9,0,1.7,0.3,2.3,1c0.5,0.5,0.7,1.1,0.7,1.8c0,0.8-0.3,1.5-1,2.1
		c-0.3,0.3-0.6,0.5-0.9,0.5c0,0,0.4,0.7,1.1,2c0.1,0.2,0.4,0.6,0.7,1.1v0c-0.2,0-0.7,0-1.3,0c0,0-0.1-0.2-0.3-0.6
		c-0.8-1.5-1.3-2.2-1.3-2.4c-0.4,0-0.9,0-1.6,0c0,0.5,0,1.5,0,2.9l0,0c-0.2,0-0.5,0-1.1,0c0,0,0,0,0,0
		C41.1,18.7,41.1,15.8,41.1,11.5L41.1,11.5z M42.2,12.7c0,0.6,0,1.7,0,3.4c0.3,0,0.9,0,1.8,0c0.6,0,1-0.2,1.5-0.7
		c0.2-0.3,0.3-0.6,0.3-0.9c0,0,0,0,0-0.1c0-0.5-0.2-0.9-0.7-1.3c-0.3-0.2-0.7-0.3-1.3-0.3C43.4,12.7,42.9,12.7,42.2,12.7
		C42.2,12.7,42.2,12.7,42.2,12.7z"/>
	<path class="st1" d="M48.2,11.5c0.2,0,0.7,0,1.4,0c0,0,0.5,1.2,1.5,3.4c0.4,0.8,0.9,2,1.6,3.5c0,0,0,0,0,0c0.5-1.1,1.5-3.4,3.1-6.9
		c0.2,0,0.7,0,1.4,0c0,0,0,0,0,0c0,1.4,0,4.3,0,8.6l0,0c-0.2,0-0.6,0-1.2,0l0,0c0-1,0-3.1,0-6.3h0c-0.5,1-1.4,3.1-2.8,6.2
		c0,0,0,0,0,0c-0.2,0-0.5,0-1,0c0,0-0.1-0.1-0.2-0.4c-0.6-1.3-1.5-3.3-2.6-5.9h0c0,1,0,3.1,0,6.3l0,0c-0.2,0-0.6,0-1.2,0
		c0,0,0,0,0,0C48.2,18.7,48.2,15.8,48.2,11.5L48.2,11.5z"/>
	<path class="st1" d="M62.7,11.5C62.7,11.5,62.7,11.5,62.7,11.5c1.2,0,2.1,0.4,3,1.3c0.8,0.9,1.1,1.9,1.1,3c0,1.2-0.4,2.3-1.3,3.2
		c-0.8,0.8-1.8,1.1-2.8,1.1c-1,0-1.9-0.4-2.8-1.1c-0.4-0.4-0.6-0.7-0.7-0.9c-0.4-0.7-0.7-1.5-0.7-2.3c0,0,0,0,0,0
		c0-1.2,0.5-2.3,1.4-3.2c0.1-0.1,0.2-0.2,0.4-0.3C61.1,11.8,61.8,11.5,62.7,11.5z M59.7,15.8c0,0.9,0.4,1.7,1.1,2.4
		c0.6,0.5,1.2,0.8,1.9,0.8c0.9,0,1.7-0.4,2.4-1.2c0.4-0.6,0.6-1.2,0.6-1.9c0,0,0,0,0-0.1c0-0.8-0.3-1.5-0.8-2.2
		c-0.6-0.6-1.3-1-2.1-1c-0.9,0-1.7,0.4-2.3,1.2C59.9,14.4,59.7,15.1,59.7,15.8z"/>
	<path class="st1" d="M68.2,11.5c0.5,0,1.4,0,2.8,0c0.9,0,1.6,0.3,2.2,0.9c0.3,0.4,0.4,0.8,0.4,1.3c0,0,0,0.1,0,0.1
		c0,0.7-0.2,1.2-0.8,1.7v0c0.1,0.1,0.3,0.2,0.5,0.4c0.4,0.4,0.6,0.9,0.6,1.4c0,0.1,0,0.2,0,0.4c0,0.8-0.4,1.5-1.1,2
		c-0.4,0.2-0.6,0.3-0.7,0.3c-0.2,0.1-0.6,0.1-1,0.1c-0.6,0-1.6,0-2.9,0c0,0,0,0,0,0C68.2,18.7,68.2,15.8,68.2,11.5L68.2,11.5z
		 M69.3,16.2c0,0.5,0,1.4,0,2.8c0.3,0,1,0,1.9,0c0.7,0,1.2-0.2,1.4-0.7c0.1-0.2,0.1-0.4,0.1-0.6c0,0,0-0.1,0-0.2
		c0-0.5-0.3-0.9-0.8-1c-0.2-0.1-0.6-0.2-0.9-0.2C70.7,16.2,70.1,16.2,69.3,16.2C69.3,16.2,69.3,16.2,69.3,16.2z M69.3,12.7
		c0,0.4,0,1.2,0,2.4c0.3,0,0.8,0,1.6,0c0.7,0,1.2-0.2,1.5-0.7c0.1-0.1,0.1-0.3,0.1-0.4c0-0.1,0-0.1,0-0.3c0-0.4-0.3-0.7-0.9-0.9
		c-0.2-0.1-0.4-0.1-0.8-0.1C70.5,12.7,70,12.7,69.3,12.7z"/>
	<path class="st1" d="M75.4,11.5c0.5,0,1.4,0,2.8,0c0.9,0,1.6,0.3,2.2,0.9c0.3,0.4,0.4,0.8,0.4,1.3c0,0,0,0.1,0,0.1
		c0,0.7-0.2,1.2-0.8,1.7v0c0.1,0.1,0.3,0.2,0.5,0.4c0.4,0.4,0.6,0.9,0.6,1.4c0,0.1,0,0.2,0,0.4c0,0.8-0.4,1.5-1.1,2
		c-0.4,0.2-0.6,0.3-0.7,0.3c-0.2,0.1-0.6,0.1-1,0.1c-0.6,0-1.6,0-2.9,0c0,0,0,0,0,0C75.4,18.7,75.4,15.8,75.4,11.5L75.4,11.5z
		 M76.5,16.2c0,0.5,0,1.4,0,2.8c0.3,0,1,0,1.9,0c0.7,0,1.2-0.2,1.4-0.7c0.1-0.2,0.1-0.4,0.1-0.6c0,0,0-0.1,0-0.2
		c0-0.5-0.3-0.9-0.8-1c-0.2-0.1-0.6-0.2-0.9-0.2C77.9,16.2,77.3,16.2,76.5,16.2C76.5,16.2,76.5,16.2,76.5,16.2z M76.5,12.7
		c0,0.4,0,1.2,0,2.4c0.3,0,0.8,0,1.6,0c0.7,0,1.2-0.2,1.5-0.7c0.1-0.1,0.1-0.3,0.1-0.4c0-0.1,0-0.1,0-0.3c0-0.4-0.3-0.7-0.9-0.9
		c-0.2-0.1-0.4-0.1-0.8-0.1C77.7,12.7,77.2,12.7,76.5,12.7z"/>
	<path class="st1" d="M82.6,11.5c0.2,0,0.6,0,1.1,0h0c0,1.4,0,4.3,0,8.6h0c-0.2,0-0.6,0-1.1,0h0C82.6,18.7,82.6,15.8,82.6,11.5
		L82.6,11.5z"/>
	<path class="st1" d="M85.6,11.5c0.2,0,0.6,0,1.2,0c0.7,1,2.1,3.1,4.1,6.1c0.1,0.1,0.2,0.3,0.4,0.6c0-1.1,0-3.3,0-6.7l0,0
		c0.2,0,0.6,0,1.1,0l0,0c0,1.4,0,4.3,0,8.6l0,0c-0.2,0-0.6,0-1.2,0c-0.2-0.3-1-1.5-2.3-3.5c-0.5-0.7-1.2-1.8-2.2-3.2
		c0,1.1,0,3.3,0,6.7l0,0c-0.2,0-0.5,0-1.1,0c0,0,0,0,0,0C85.6,18.7,85.6,15.8,85.6,11.5L85.6,11.5z"/>
	<path class="st1" d="M97.9,11.5C97.9,11.5,98,11.5,97.9,11.5c1.1,0,2.1,0.4,2.9,1.2c0.3,0.3,0.5,0.6,0.7,0.9c0,0,0,0.1,0.1,0.1
		c-0.6,0.3-0.9,0.5-1,0.5c-0.1-0.2-0.2-0.4-0.4-0.6c-0.2-0.3-0.4-0.4-0.6-0.5c-0.5-0.4-1.1-0.5-1.6-0.5c-0.9,0-1.7,0.4-2.3,1.2
		c-0.5,0.6-0.7,1.3-0.7,2c0,0.9,0.4,1.7,1.1,2.4c0.6,0.5,1.2,0.8,1.9,0.8c0.8,0,1.6-0.3,2.2-1c0.4-0.4,0.6-0.9,0.7-1.4
		c-0.5,0-1.2,0-2.2,0v0c0-0.2,0-0.5,0-1.1v0v0c0.4,0,1.2,0,2.3,0c0.2,0,0.5,0,1.1,0c0,0,0,0,0,0c0,0.6-0.1,1-0.1,1.2
		c-0.1,0.6-0.3,1.1-0.6,1.5c-0.5,0.8-1.2,1.4-2.1,1.7c-0.5,0.2-0.9,0.2-1.4,0.2c-1,0-1.9-0.4-2.7-1.1c-0.9-0.9-1.4-2-1.4-3.2
		c0,0,0,0,0,0c0-1.2,0.5-2.3,1.4-3.2c0.2-0.2,0.4-0.3,0.4-0.3C96.3,11.8,97.1,11.5,97.9,11.5z"/>
</g>
</svg>
