<?xml version="1.0" encoding="utf-8"?>
<!-- Generator: Adobe Illustrator 27.1.1, SVG Export Plug-In . SVG Version: 6.00 Build 0)  -->
<svg version="1.1" id="Ebene_1" xmlns="http://www.w3.org/2000/svg" xmlns:xlink="http://www.w3.org/1999/xlink" x="0px" y="0px"
	 viewBox="0 0 113 30" style="enable-background:new 0 0 113 30;" xml:space="preserve">
<style type="text/css">
	.st0{fill:#EBD480;}
	.st1{fill:#FFFFFF;}
</style>
<g>
	<g>
		<path class="st0" d="M15.2,1.3c-7.7,0-14,6.3-14,14s6.3,14,14,14h80.8c7.7,0,14-6.3,14-14s-6.3-14-14-14H15.2z"/>
	</g>
</g>
<g>
	<path class="st1" d="M15.7,11.4c0,0,0.1,0,0.1,0c0.4,0,0.9,0.1,1.3,0.3c0.1,0.1,0.3,0.2,0.4,0.3c0.1,0,0.2,0.1,0.3,0.3
		c0.1,0.2,0.3,0.3,0.3,0.4c0.1,0.1,0.1,0.2,0.2,0.3c-0.2,0.1-0.6,0.3-1,0.5c0-0.1-0.1-0.2-0.2-0.3c-0.4-0.4-0.8-0.6-1.3-0.6
		c-0.5,0-0.9,0.2-1.3,0.5c-0.1,0.1-0.2,0.2-0.2,0.3c-0.1,0.2-0.1,0.4-0.1,0.6c0,0,0,0,0,0c0,0.3,0.1,0.5,0.3,0.6
		c0.1,0.1,0.2,0.1,0.3,0.2c0.2,0.1,0.5,0.2,0.9,0.3c0.3,0.1,0.7,0.2,1.1,0.3c0.2,0.1,0.4,0.1,0.6,0.2c0.1,0.1,0.3,0.2,0.5,0.3
		c0.1,0.1,0.3,0.3,0.4,0.4c0.3,0.4,0.5,0.9,0.5,1.4v0c0,0.5-0.2,1-0.5,1.4c-0.1,0.1-0.1,0.2-0.3,0.3c-0.2,0.2-0.3,0.3-0.4,0.4
		c-0.1,0.1-0.3,0.1-0.4,0.2c-0.4,0.2-0.8,0.3-1.3,0.3c-0.7,0-1.3-0.2-1.9-0.6c-0.1-0.1-0.2-0.2-0.3-0.3c-0.2-0.2-0.3-0.3-0.3-0.4
		c-0.1-0.2-0.2-0.3-0.3-0.4c-0.1-0.1-0.1-0.2-0.1-0.2c0.2-0.1,0.6-0.3,1-0.5c0.1,0.1,0.1,0.3,0.3,0.4c0.1,0.1,0.1,0.2,0.2,0.3
		c0.1,0.1,0.3,0.2,0.4,0.3c0.3,0.2,0.7,0.3,1,0.3c0,0,0,0,0,0c0.3,0,0.7-0.1,1-0.3c0.1-0.1,0.2-0.1,0.3-0.2c0.1-0.1,0.2-0.2,0.2-0.3
		c0.1-0.2,0.2-0.5,0.2-0.7c0-0.4-0.2-0.7-0.5-0.9c-0.1-0.1-0.2-0.1-0.3-0.1c-0.1-0.1-0.3-0.1-0.6-0.2c-0.8-0.2-1.4-0.4-1.8-0.6
		c-0.8-0.4-1.2-1-1.2-1.9c0-0.6,0.2-1.1,0.5-1.5c0.1-0.1,0.2-0.3,0.4-0.4c0.2-0.1,0.3-0.2,0.4-0.3c0.1-0.1,0.3-0.1,0.5-0.2
		C15.1,11.4,15.4,11.4,15.7,11.4z"/>
	<path class="st1" d="M23.3,11.5L23.3,11.5c1.1,0,2.1,0.4,2.9,1.3c0.3,0.3,0.5,0.6,0.6,0.9c0,0-0.4,0.2-1,0.6
		c-0.1-0.2-0.3-0.4-0.5-0.7c-0.6-0.6-1.3-0.9-2.1-0.9c-0.8,0-1.5,0.3-2.1,0.9c-0.6,0.7-0.9,1.4-0.9,2.2c0,1,0.4,1.8,1.1,2.5
		c0.6,0.5,1.2,0.7,1.8,0.7c0,0,0.1,0,0.1,0c0.7,0,1.3-0.3,1.9-0.8c0.3-0.3,0.4-0.5,0.6-0.7c0.2,0.1,0.5,0.3,1,0.5c0,0,0,0,0,0
		c-0.1,0.2-0.3,0.5-0.5,0.8c-0.9,0.9-1.9,1.4-3,1.4c-1.1,0-2.1-0.5-3-1.4c-0.7-0.9-1.1-1.8-1.1-2.9c0,0,0,0,0,0c0-1.1,0.4-2,1.1-2.9
		C21.2,11.9,22.2,11.5,23.3,11.5z"/>
	<path class="st1" d="M28.1,11.5c0.2,0,0.5,0,1.1,0l0,0c0,0.6,0,1.9,0,3.7c0.6,0,1.9,0,3.7,0c0-0.6,0-1.9,0-3.7l0,0
		c0.2,0,0.6,0,1.1,0l0,0c0,1.4,0,4.3,0,8.6l0,0c-0.2,0-0.6,0-1.1,0l0,0c0-0.6,0-1.9,0-3.7c-0.6,0-1.9,0-3.7,0c0,0.6,0,1.9,0,3.7l0,0
		c-0.2,0-0.5,0-1.1,0c0,0,0,0,0,0C28.1,18.6,28.1,15.7,28.1,11.5L28.1,11.5z"/>
	<path class="st1" d="M35.9,11.5c0.2,0,0.5,0,1.1,0l0,0c0,0.9,0,2.6,0,5.2c0,0.6,0.1,1.1,0.3,1.4c0.2,0.3,0.5,0.6,1,0.7
		c0.2,0,0.4,0.1,0.5,0.1c0.2,0,0.5,0,0.8,0c0.7,0,1.2-0.3,1.6-0.9c0.2-0.3,0.2-0.7,0.2-1.1c0-1.2,0-3,0-5.4l0,0c0.2,0,0.5,0,1.1,0
		c0,0,0,0,0,0c0,0.9,0,2.6,0,5.1c0,0.7-0.1,1.2-0.2,1.5c-0.2,0.7-0.6,1.2-1.2,1.5c-0.5,0.3-1.1,0.5-1.7,0.5c-0.1,0-0.3,0-0.6,0
		c-0.9,0-1.6-0.3-2.2-0.8c-0.2-0.2-0.4-0.5-0.6-0.7c-0.2-0.5-0.4-1-0.4-1.6C35.9,15.7,35.9,13.9,35.9,11.5L35.9,11.5z"/>
	<path class="st1" d="M44.5,11.5c0.2,0,0.6,0,1.1,0h0c0,1.2,0,3.7,0,7.5c0.6,0,1.9,0,3.7,0c0,0.2,0,0.6,0,1.1c-0.8,0-2.4,0-4.8,0h0
		C44.5,18.6,44.5,15.7,44.5,11.5L44.5,11.5z"/>
	<path class="st1" d="M50.2,11.5c0.5,0,1.4,0,2.8,0c0.9,0,1.6,0.3,2.2,0.9c0.3,0.4,0.4,0.8,0.4,1.3c0,0,0,0.1,0,0.1
		c0,0.7-0.2,1.2-0.8,1.7v0c0.1,0.1,0.3,0.2,0.5,0.4c0.4,0.4,0.6,0.9,0.6,1.4c0,0.1,0,0.2,0,0.4c0,0.8-0.4,1.5-1.1,2
		c-0.4,0.2-0.6,0.3-0.7,0.3c-0.2,0.1-0.6,0.1-1,0.1c-0.6,0-1.6,0-2.9,0c0,0,0,0,0,0C50.2,18.6,50.2,15.7,50.2,11.5L50.2,11.5z
		 M51.3,16.1c0,0.5,0,1.4,0,2.8c0.3,0,1,0,1.9,0c0.7,0,1.2-0.2,1.4-0.7c0.1-0.2,0.1-0.4,0.1-0.6c0,0,0-0.1,0-0.2
		c0-0.5-0.3-0.9-0.8-1c-0.2-0.1-0.6-0.2-0.9-0.2C52.7,16.1,52.1,16.1,51.3,16.1C51.3,16.1,51.3,16.1,51.3,16.1z M51.3,12.6
		c0,0.4,0,1.2,0,2.4c0.3,0,0.8,0,1.6,0c0.7,0,1.2-0.2,1.5-0.7c0.1-0.1,0.1-0.3,0.1-0.4c0-0.1,0-0.1,0-0.3c0-0.4-0.3-0.7-0.9-0.9
		c-0.2-0.1-0.4-0.1-0.8-0.1C52.5,12.6,52,12.6,51.3,12.6z"/>
	<path class="st1" d="M57.4,11.5c0.8,0,2.3,0,4.6,0c0,0.2,0,0.6,0,1.1c-0.6,0-1.7,0-3.5,0c0,0.4,0,1.3,0,2.6c0.5,0,1.4,0,2.8,0l0,0
		c0,0.2,0,0.5,0,1.1l0,0c-0.5,0-1.4,0-2.8,0c0,0.4,0,1.3,0,2.6c0.6,0,1.7,0,3.5,0c0,0.2,0,0.6,0,1.1c-0.8,0-2.3,0-4.6,0h0
		C57.4,18.6,57.4,15.7,57.4,11.5L57.4,11.5z"/>
	<path class="st1" d="M65.6,11.4c0,0,0.1,0,0.1,0c0.4,0,0.9,0.1,1.3,0.3c0.1,0.1,0.3,0.2,0.4,0.3c0.1,0,0.2,0.1,0.3,0.3
		c0.1,0.2,0.3,0.3,0.3,0.4c0.1,0.1,0.1,0.2,0.2,0.3c-0.2,0.1-0.6,0.3-1,0.5c0-0.1-0.1-0.2-0.2-0.3c-0.4-0.4-0.8-0.6-1.3-0.6
		c-0.5,0-0.9,0.2-1.3,0.5c-0.1,0.1-0.2,0.2-0.2,0.3c-0.1,0.2-0.1,0.4-0.1,0.6c0,0,0,0,0,0c0,0.3,0.1,0.5,0.3,0.6
		c0.1,0.1,0.2,0.1,0.3,0.2c0.2,0.1,0.5,0.2,0.9,0.3c0.3,0.1,0.7,0.2,1.1,0.3c0.2,0.1,0.4,0.1,0.6,0.2c0.1,0.1,0.3,0.2,0.5,0.3
		c0.1,0.1,0.3,0.3,0.4,0.4c0.3,0.4,0.5,0.9,0.5,1.4v0c0,0.5-0.2,1-0.5,1.4c-0.1,0.1-0.1,0.2-0.3,0.3c-0.2,0.2-0.3,0.3-0.4,0.4
		c-0.1,0.1-0.3,0.1-0.4,0.2c-0.4,0.2-0.8,0.3-1.3,0.3c-0.7,0-1.3-0.2-1.9-0.6c-0.1-0.1-0.2-0.2-0.3-0.3c-0.2-0.2-0.3-0.3-0.3-0.4
		c-0.1-0.2-0.2-0.3-0.3-0.4c-0.1-0.1-0.1-0.2-0.1-0.2c0.2-0.1,0.6-0.3,1-0.5c0.1,0.1,0.1,0.3,0.3,0.4c0.1,0.1,0.1,0.2,0.2,0.3
		c0.1,0.1,0.3,0.2,0.4,0.3c0.3,0.2,0.7,0.3,1,0.3c0,0,0,0,0,0c0.3,0,0.7-0.1,1-0.3c0.1-0.1,0.2-0.1,0.3-0.2c0.1-0.1,0.2-0.2,0.2-0.3
		c0.1-0.2,0.2-0.5,0.2-0.7c0-0.4-0.2-0.7-0.5-0.9c-0.1-0.1-0.2-0.1-0.3-0.1c-0.1-0.1-0.3-0.1-0.6-0.2c-0.8-0.2-1.4-0.4-1.8-0.6
		c-0.8-0.4-1.2-1-1.2-1.9c0-0.6,0.2-1.1,0.5-1.5c0.1-0.1,0.2-0.3,0.4-0.4c0.2-0.1,0.3-0.2,0.4-0.3c0.1-0.1,0.3-0.1,0.5-0.2
		C65,11.4,65.3,11.4,65.6,11.4z"/>
	<path class="st1" d="M69.7,11.5c0.2,0,0.5,0,1.1,0l0,0c0,0.9,0,2.6,0,5.2c0,0.6,0.1,1.1,0.3,1.4c0.2,0.3,0.5,0.6,1,0.7
		c0.2,0,0.4,0.1,0.5,0.1c0.2,0,0.5,0,0.8,0c0.7,0,1.2-0.3,1.6-0.9c0.2-0.3,0.2-0.7,0.2-1.1c0-1.2,0-3,0-5.4l0,0c0.2,0,0.5,0,1.1,0
		c0,0,0,0,0,0c0,0.9,0,2.6,0,5.1c0,0.7-0.1,1.2-0.2,1.5c-0.2,0.7-0.6,1.2-1.2,1.5C74.6,19.9,74,20,73.4,20c-0.1,0-0.3,0-0.6,0
		c-0.9,0-1.6-0.3-2.2-0.8c-0.2-0.2-0.4-0.5-0.6-0.7c-0.2-0.5-0.4-1-0.4-1.6C69.7,15.7,69.7,13.9,69.7,11.5L69.7,11.5z"/>
	<path class="st1" d="M81.8,11.5L81.8,11.5c1.1,0,2.1,0.4,2.9,1.3c0.3,0.3,0.5,0.6,0.6,0.9c0,0-0.4,0.2-1,0.6
		c-0.1-0.2-0.3-0.4-0.5-0.7c-0.6-0.6-1.3-0.9-2.1-0.9c-0.8,0-1.5,0.3-2.1,0.9c-0.6,0.7-0.9,1.4-0.9,2.2c0,1,0.4,1.8,1.1,2.5
		c0.6,0.5,1.2,0.7,1.8,0.7c0,0,0.1,0,0.1,0c0.7,0,1.3-0.3,1.9-0.8c0.3-0.3,0.4-0.5,0.6-0.7c0.2,0.1,0.5,0.3,1,0.5c0,0,0,0,0,0
		c-0.1,0.2-0.3,0.5-0.5,0.8C84,19.6,83,20,81.8,20c-1.1,0-2.1-0.5-3-1.4c-0.7-0.9-1.1-1.8-1.1-2.9c0,0,0,0,0,0c0-1.1,0.4-2,1.1-2.9
		C79.7,11.9,80.7,11.5,81.8,11.5z"/>
	<path class="st1" d="M86.6,11.5c0.2,0,0.5,0,1.1,0l0,0c0,0.6,0,1.9,0,3.7c0.6,0,1.9,0,3.7,0c0-0.6,0-1.9,0-3.7l0,0
		c0.2,0,0.6,0,1.1,0l0,0c0,1.4,0,4.3,0,8.6l0,0c-0.2,0-0.6,0-1.1,0l0,0c0-0.6,0-1.9,0-3.7c-0.6,0-1.9,0-3.7,0c0,0.6,0,1.9,0,3.7l0,0
		c-0.2,0-0.5,0-1.1,0c0,0,0,0,0,0C86.6,18.6,86.6,15.7,86.6,11.5L86.6,11.5z"/>
	<path class="st1" d="M94.4,11.5c0.8,0,2.3,0,4.6,0c0,0.2,0,0.6,0,1.1c-0.6,0-1.7,0-3.5,0c0,0.4,0,1.3,0,2.6c0.5,0,1.4,0,2.8,0l0,0
		c0,0.2,0,0.5,0,1.1l0,0c-0.5,0-1.4,0-2.8,0c0,0.4,0,1.3,0,2.6c0.6,0,1.7,0,3.5,0c0,0.2,0,0.6,0,1.1c-0.8,0-2.3,0-4.6,0h0
		C94.4,18.6,94.4,15.7,94.4,11.5L94.4,11.5z"/>
</g>
</svg>
