<?xml version="1.0" encoding="utf-8"?>
<!-- Generator: Adobe Illustrator 27.2.0, SVG Export Plug-In . SVG Version: 6.00 Build 0)  -->
<svg version="1.1" id="Ebene_1" xmlns="http://www.w3.org/2000/svg" xmlns:xlink="http://www.w3.org/1999/xlink" x="0px" y="0px"
	 viewBox="0 0 555.1 192.6" style="enable-background:new 0 0 555.1 192.6;" xml:space="preserve">
<style type="text/css">
	.st0{fill:#FFFFFF;}
</style>
<g>
	<path class="st0" d="M407.1,64.1c-2.5,2-4.2,3.3-5.1,3.9v2.7c0,0,1.3,1,3.8,3c3,2.3,5,3.9,6,4.7c1.1-1.3,1.7-2.2,2.1-2.7
		c-2.3-1.8-3.8-3-4.6-3.6c-1.7-1.4-2.8-2.3-3.4-2.7c1.4-1.1,2.4-1.9,3.1-2.4c3.3-2.6,4.9-3.8,4.9-3.9c-1-1.3-1.7-2.2-2.1-2.7
		C409.5,62.2,407.9,63.4,407.1,64.1 M397.9,64.1c-2.5,2-4.2,3.3-5.1,3.9v2.7c0,0,1.3,1,3.8,3c3,2.3,5,3.9,6,4.7
		c1.1-1.3,1.7-2.2,2.1-2.7c-2.3-1.8-3.8-3-4.6-3.6c-1.7-1.4-2.8-2.3-3.4-2.7c1.4-1.1,2.4-1.9,3.1-2.4c3.3-2.6,4.9-3.8,4.9-3.9
		c-1-1.3-1.7-2.2-2.1-2.7C400.3,62.2,398.7,63.4,397.9,64.1 M374.7,66.1v-1.3h-3.3h-0.1v16.5c0,0,0.1,0,0.1,0.1h3.3v-0.1v-7.7
		c0-2.2,0.3-3.7,1-4.5c0.8-0.8,1.8-1.2,3-1.2h0.3c0.9,0,1.9,0.4,3,1.1c0.1-0.1,0.3-1.3,0.8-3.5v0c-1.2-0.7-2.4-1-3.6-1h-0.5
		C377.3,64.5,376,65,374.7,66.1 M355.2,66.1c-2.1,1.9-3.2,4.2-3.2,7v0.1c0,2,0.6,3.8,1.8,5.5c1.8,2.2,3.8,3.2,6.2,3.2h0.1
		c2.3,0,4.4-1,6.1-3.1c0.6-0.8,0.9-1.4,1.1-1.8c0,0-1-0.5-3.1-1.4c0,0-0.1,0.2-0.3,0.6c-1,1.5-2.3,2.3-3.8,2.3
		c-1.2,0-2.3-0.5-3.2-1.5c-0.6-0.6-1.1-1.6-1.4-2.8h12.6c0,0,0-0.2,0-0.5v-0.5c0-1.7-0.4-3.2-1.3-4.7c-0.3-0.6-0.8-1.2-1.6-2
		c-1.6-1.4-3.2-2.1-5-2.1h-0.5C358.3,64.3,356.8,64.9,355.2,66.1 M356.1,70.3c1-1.7,2.4-2.6,4-2.6c1.1,0,2,0.4,2.9,1.2
		c0.7,0.8,1.2,1.4,1.4,2v0h-8.5C356,70.6,356.1,70.4,356.1,70.3 M342.9,64.5h-2.5c0,0,0,0,0,0v3.4h0h2.5v8.6c0,0.7,0.2,1.4,0.5,2.1
		c0.1,0.2,0.3,0.4,0.5,0.7c0.1,0.2,0.2,0.3,0.3,0.4c0.3,0.3,0.5,0.4,0.6,0.6c1,0.7,2,1,3.1,1h0c0.6,0,1.2-0.1,2-0.3
		c0.6-0.2,1.1-0.3,1.4-0.5c-0.6-1.6-1.1-2.7-1.3-3.2c-0.1,0-0.1,0.1-0.1,0.1c-0.8,0.3-1.5,0.5-1.9,0.5c-0.4,0-0.7-0.1-0.9-0.3
		c-0.5-0.2-0.7-0.6-0.7-1.3v-8.5h4.4h0v-3.4l0,0h-4.4v-8.9h-3.4V64.5z M335,56.1c-0.1,0.1-0.2,0.2-0.2,0.2c-0.4,0.5-0.6,1-0.6,1.5
		V58c0,0.3,0.1,0.5,0.2,0.8c0.1,0.2,0.3,0.4,0.5,0.7c0.4,0.4,0.9,0.6,1.5,0.6h0.1c0.6,0,1.1-0.2,1.6-0.7c0.4-0.5,0.6-1,0.6-1.5v-0.1
		c0-0.6-0.2-1.1-0.7-1.5c-0.5-0.4-0.9-0.6-1.4-0.6h-0.1C335.9,55.7,335.4,55.8,335,56.1 M334.6,64.6v16.8h3.4h0V64.6H334.6z
		 M318.6,66.1c-2.1,1.9-3.2,4.2-3.2,7v0.1c0,2,0.6,3.8,1.8,5.5c1.8,2.2,3.8,3.2,6.2,3.2h0.1c2.3,0,4.4-1,6.1-3.1
		c0.6-0.8,0.9-1.4,1.1-1.8c0,0-1-0.5-3.1-1.4c0,0-0.1,0.2-0.3,0.6c-1,1.5-2.3,2.3-3.8,2.3c-1.2,0-2.3-0.5-3.2-1.5
		c-0.6-0.6-1.1-1.6-1.4-2.8h12.6c0,0,0-0.2,0-0.5v-0.5c0-1.7-0.4-3.2-1.3-4.7c-0.3-0.6-0.8-1.2-1.6-2c-1.6-1.4-3.2-2.1-5-2.1h-0.5
		C321.7,64.3,320.2,64.9,318.6,66.1 M319.5,70.3c1-1.7,2.4-2.6,4-2.6c1.1,0,2,0.4,2.9,1.2c0.7,0.8,1.2,1.4,1.4,2v0h-8.5
		C319.4,70.6,319.5,70.4,319.5,70.3 M290.2,64.6c0.1,0.4,0.2,0.7,0.3,0.8c1.3,3.9,2.2,6.5,2.7,7.8c1.1,3.2,1.9,5.6,2.5,7.2
		c0.2,0.6,0.3,0.9,0.4,0.9h3.4c0.4-1.3,0.7-2.1,0.8-2.5c1.2-3.8,2-6.4,2.4-7.7h0c0.7,2.3,1.2,4,1.6,5.2c0.4,1.5,0.9,3,1.4,4.5
		l0.1,0.5h3.4c0.2-0.5,0.3-0.9,0.4-1.1c1.3-3.8,2.1-6.3,2.6-7.6c1.4-4.1,2.3-6.8,2.8-8.2h-3.8c-0.2,0.8-0.4,1.3-0.5,1.5
		c-1.2,3.7-2.1,6.4-2.7,8.3c-0.3,0.8-0.4,1.2-0.4,1.2c-0.5-1.5-0.8-2.6-0.9-3.1c-1.1-3.4-1.8-5.9-2.4-7.6l-0.1-0.3h-3
		c-0.5,1.5-0.8,2.5-0.9,3c-1.2,4-2.1,6.6-2.5,8c-0.2-0.7-0.4-1.2-0.5-1.4c-1.2-3.7-2.2-6.5-2.8-8.4l-0.4-1.2H290.2z M264.2,81.4h3.4
		V71.2c0-1.3,0.4-2.2,1.2-2.6c0.6-0.4,1.6-0.7,3-0.7h0.3c0.8,0,1.5,0.1,2,0.4c1.2,0.5,1.8,1.4,1.8,2.8v10.2l0,0h3.3l0,0V71.2
		c0-1.2-0.2-2.3-0.7-3.2c-1.3-2.3-3.5-3.4-6.5-3.4h-0.2c-0.8,0-1.4,0.1-1.9,0.2c-1,0.3-1.7,0.6-2.4,0.9v-10h-3.4V81.4z M249.7,65.8
		c-0.4,0.2-0.8,0.5-1.2,1c-0.4,0.4-0.7,0.8-0.9,1.1c-0.3,0.4-0.5,0.8-0.7,1.1c-0.6,1.3-0.9,2.6-0.9,3.9v0.3c0,0.8,0.2,1.7,0.5,2.7
		c0.2,0.6,0.4,1.1,0.6,1.5c0.2,0.4,0.6,0.9,1,1.4c0.2,0.3,0.5,0.6,0.9,1c0.3,0.2,0.5,0.4,0.8,0.6c1.4,0.9,3,1.4,4.6,1.4h0.1
		c1.5,0,3-0.4,4.4-1.3c0.3-0.2,0.6-0.4,1-0.7c0.2-0.1,0.4-0.4,0.8-0.8c0.4-0.4,0.6-0.8,0.8-1.1c-1.4-0.9-2.3-1.5-2.8-1.9
		c-0.2,0.2-0.3,0.5-0.5,0.7c-0.4,0.4-0.6,0.6-0.8,0.7c-0.9,0.7-1.8,1-2.8,1c-1.1,0-2.2-0.4-3.1-1.1c-0.3-0.2-0.6-0.5-0.8-0.8
		c-0.8-1-1.2-2.2-1.2-3.4c0-1.2,0.4-2.2,1.1-3.2c0.1-0.2,0.3-0.4,0.7-0.8c1-0.9,2.1-1.4,3.4-1.4c1.3,0,2.5,0.5,3.5,1.5
		c0.3,0.4,0.6,0.6,0.7,0.8c1.2-0.8,2.2-1.5,2.8-1.9c0,0-0.1-0.2-0.2-0.4c-0.2-0.2-0.5-0.6-0.9-1c-0.4-0.4-0.7-0.6-0.9-0.8
		c-1.5-1.1-3.2-1.7-4.9-1.7h0C252.7,64.3,251.2,64.8,249.7,65.8 M239.7,56.1c-0.1,0.1-0.2,0.2-0.2,0.2c-0.4,0.5-0.6,1-0.6,1.5V58
		c0,0.3,0.1,0.5,0.2,0.8c0.1,0.2,0.3,0.4,0.5,0.7c0.4,0.4,0.9,0.6,1.5,0.6h0.1c0.6,0,1.1-0.2,1.6-0.7c0.4-0.5,0.6-1,0.6-1.5v-0.1
		c0-0.6-0.2-1.1-0.7-1.5c-0.5-0.4-0.9-0.6-1.4-0.6H241C240.5,55.7,240.1,55.8,239.7,56.1 M239.3,64.6v16.8h3.4h0V64.6H239.3z
		 M214.5,66.1c-2.1,1.9-3.2,4.2-3.2,7v0.1c0,2,0.6,3.8,1.8,5.5c1.8,2.2,3.8,3.2,6.2,3.2h0.1c2.3,0,4.4-1,6.1-3.1
		c0.6-0.8,0.9-1.4,1.1-1.8c0,0-1-0.5-3.1-1.4c0,0-0.1,0.2-0.3,0.6c-1,1.5-2.3,2.3-3.8,2.3c-1.2,0-2.3-0.5-3.2-1.5
		c-0.6-0.6-1.1-1.6-1.4-2.8h12.6c0,0,0-0.2,0-0.5v-0.5c0-1.7-0.4-3.2-1.3-4.7c-0.3-0.6-0.8-1.2-1.6-2c-1.6-1.4-3.2-2.1-5-2.1h-0.5
		C217.7,64.3,216.1,64.9,214.5,66.1 M215.5,70.3c1-1.7,2.4-2.6,4-2.6c1.1,0,2,0.4,2.9,1.2c0.7,0.8,1.2,1.4,1.4,2v0h-8.5
		C215.3,70.6,215.4,70.4,215.5,70.3 M192.4,55.7L192.4,55.7l0,25.7h3.4v-1.8c0.2,0.2,0.4,0.4,0.6,0.6c0.4,0.3,0.7,0.5,0.9,0.7
		c0.4,0.2,0.8,0.4,1.2,0.5c0.9,0.3,1.7,0.4,2.3,0.4h0.2c1.5,0,2.9-0.4,4.3-1.3c0.3-0.2,0.6-0.4,0.9-0.7c0.3-0.2,0.6-0.6,1.1-1.1
		c0.4-0.5,0.8-1,1-1.5c0.7-1.3,1.1-2.8,1.1-4.3c0-1.1-0.2-2.2-0.6-3.3c-0.4-0.9-1-1.9-1.8-2.8c-0.4-0.4-0.7-0.7-0.9-0.9
		c-1.6-1.2-3.3-1.9-5.2-1.9c-1.7,0-3.1,0.5-4.4,1.5c-0.3,0.3-0.6,0.5-0.7,0.7V55.7h0H192.4z M196.9,69.6c0.1-0.1,0.3-0.3,0.6-0.6
		c0.4-0.3,0.7-0.6,1.1-0.7c0.8-0.4,1.5-0.6,2.2-0.6c1.5,0,2.8,0.6,3.9,1.8c0.9,1.1,1.3,2.2,1.3,3.6v0.1c0,0.8-0.2,1.6-0.5,2.3
		c-0.2,0.4-0.5,0.9-0.9,1.3c-1.1,1.1-2.3,1.7-3.7,1.7c-0.7,0-1.4-0.2-2.1-0.5c-0.3-0.1-0.6-0.3-0.9-0.6c-0.1-0.1-0.2-0.2-0.3-0.3
		c-0.3-0.3-0.5-0.5-0.6-0.7c-0.7-1-1.1-2.1-1.1-3.2V73C195.7,71.8,196.1,70.6,196.9,69.6 M176.3,66.1c-2.1,1.9-3.2,4.2-3.2,7v0.1
		c0,2,0.6,3.8,1.8,5.5c1.8,2.2,3.8,3.2,6.2,3.2h0.1c2.3,0,4.4-1,6.1-3.1c0.6-0.8,0.9-1.4,1.1-1.8c0,0-1-0.5-3.1-1.4
		c0,0-0.1,0.2-0.3,0.6c-1,1.5-2.3,2.3-3.8,2.3c-1.2,0-2.3-0.5-3.2-1.5c-0.6-0.6-1.1-1.6-1.4-2.8h12.6c0,0,0-0.2,0-0.5v-0.5
		c0-1.7-0.4-3.2-1.3-4.7c-0.3-0.6-0.8-1.2-1.6-2c-1.6-1.4-3.2-2.1-5-2.1H181C179.4,64.3,177.8,64.9,176.3,66.1 M177.2,70.3
		c1-1.7,2.4-2.6,4-2.6c1.1,0,2,0.4,2.9,1.2c0.7,0.8,1.2,1.4,1.4,2v0h-8.5C177.1,70.6,177.2,70.4,177.2,70.3 M166.7,55.7L166.7,55.7
		l0,25.7h0h3.3h0V55.7h0H166.7z M133.1,64.7c-1,0.3-1.7,0.6-2.4,0.9v-0.9l0,0h-3.3c0,0,0,0-0.1,0v16.7l0.1,0h3.3l0,0V71.2
		c0-1.3,0.4-2.2,1.2-2.6c0.6-0.4,1.6-0.7,3-0.7h0.3c1.1,0,1.9,0.2,2.5,0.7c0.8,0.5,1.2,1.3,1.2,2.6v10.2l0,0h3.3l0,0V70.9
		c0-0.4,0.1-0.8,0.2-1.1c0.5-1.2,1.7-1.8,3.6-1.8h0.7c0.7,0,1.2,0.1,1.7,0.2c1.4,0.5,2.1,1.3,2.1,2.6v10.5l0,0h3.3v0V70.7
		c0-0.9-0.2-1.8-0.6-2.7c-1.3-2.3-3.5-3.5-6.6-3.5h-0.6c-2.3,0-4.2,0.7-5.5,2.1c-1.4-1.4-3.2-2.1-5.5-2.1H135
		C134.2,64.6,133.6,64.6,133.1,64.7 M111.3,66.1c-2.1,1.9-3.2,4.2-3.2,7v0.1c0,2,0.6,3.8,1.8,5.5c1.8,2.2,3.8,3.2,6.2,3.2h0.1
		c2.3,0,4.4-1,6.1-3.1c0.6-0.8,0.9-1.4,1.1-1.8c0,0-1-0.5-3.1-1.4c0,0-0.1,0.2-0.3,0.6c-1,1.5-2.3,2.3-3.8,2.3
		c-1.2,0-2.3-0.5-3.2-1.5c-0.6-0.6-1.1-1.6-1.4-2.8h12.6c0,0,0-0.2,0-0.5v-0.5c0-1.7-0.4-3.2-1.3-4.7c-0.3-0.6-0.8-1.2-1.6-2
		c-1.6-1.4-3.2-2.1-5-2.1h-0.5C114.4,64.3,112.8,64.9,111.3,66.1 M112.2,70.3c1-1.7,2.4-2.6,4-2.6c1.1,0,2,0.4,2.9,1.2
		c0.7,0.8,1.2,1.4,1.4,2v0h-8.5C112,70.6,112.1,70.4,112.2,70.3 M105.1,55.7h-3.4v10.9c-0.2-0.2-0.4-0.4-0.7-0.7
		c-1.3-1-2.7-1.5-4.4-1.5h0c-1.9,0-3.6,0.6-5.2,1.9c-0.2,0.2-0.5,0.5-0.9,0.9c-0.8,0.9-1.4,1.8-1.8,2.8c-0.4,1.1-0.6,2.1-0.6,3.3
		c0,1.5,0.4,2.9,1.1,4.3c0.2,0.5,0.6,1,1,1.5c0.5,0.5,0.8,0.9,1.1,1.1c0.3,0.3,0.6,0.5,0.9,0.7c1.4,0.8,2.9,1.3,4.4,1.3h0.2
		c0.6,0,1.4-0.1,2.2-0.4c0.4-0.1,0.8-0.3,1.2-0.5c0.3-0.2,0.6-0.4,0.9-0.7c0.2-0.2,0.4-0.4,0.6-0.6v1.8h3.4V55.7z M101.7,73
		L101.7,73c0,1.2-0.3,2.3-1,3.3c-0.2,0.2-0.4,0.5-0.7,0.7c-0.1,0.1-0.2,0.2-0.3,0.3c-0.4,0.3-0.7,0.5-0.9,0.6
		c-0.7,0.4-1.4,0.5-2.1,0.5c-1.4,0-2.7-0.6-3.7-1.7c-0.4-0.5-0.7-0.9-0.9-1.3c-0.4-0.8-0.5-1.5-0.5-2.3V73c0-1.3,0.4-2.5,1.3-3.6
		c1.1-1.2,2.3-1.8,3.8-1.8c0.7,0,1.4,0.2,2.2,0.6c0.4,0.2,0.7,0.4,1.1,0.7c0.3,0.3,0.5,0.5,0.6,0.6C101.1,71.3,101.5,72.5,101.7,73
		 M71.4,64.6v3.3v0h8.6c-4.7,6.7-7.9,11.2-9.5,13.5h15.8l0.1,0v-3.3c0,0,0,0-0.1,0h-9.2c4.7-6.7,7.9-11.2,9.5-13.4l0-0.1L71.4,64.6
		L71.4,64.6z M60.3,64.5h-2.5c0,0,0,0,0,0v3.4h0h2.5v8.6c0,0.7,0.2,1.4,0.5,2.1c0.1,0.2,0.3,0.4,0.5,0.7c0.1,0.2,0.2,0.3,0.3,0.4
		c0.3,0.3,0.5,0.4,0.6,0.6c1,0.7,2,1,3.1,1h0c0.6,0,1.2-0.1,2-0.3c0.6-0.2,1.1-0.3,1.4-0.5c-0.6-1.6-1.1-2.7-1.3-3.2
		c-0.1,0-0.1,0.1-0.1,0.1c-0.8,0.3-1.5,0.5-1.9,0.5c-0.4,0-0.7-0.1-0.9-0.3c-0.5-0.2-0.7-0.6-0.7-1.3v-8.5H68h0v-3.4l0,0h-4.4v-8.9
		h-3.4V64.5z M43.4,65.8c-0.2,0.1-0.6,0.5-1.2,1c-0.4,0.4-0.7,0.8-0.9,1.1c-0.3,0.4-0.5,0.8-0.7,1.1c-0.7,1.3-1,2.6-1,3.9v0.3
		c0,1.2,0.3,2.4,0.8,3.6c0.2,0.4,0.4,0.7,0.6,1.1c0.2,0.3,0.5,0.6,0.7,0.9c0.2,0.3,0.5,0.6,1,1c0.2,0.2,0.5,0.4,0.8,0.6
		c1.5,0.9,3,1.4,4.6,1.4h0.1c1.5,0,3-0.4,4.4-1.3c0.3-0.2,0.6-0.4,0.9-0.7c0.3-0.2,0.7-0.6,1.1-1.1c0.4-0.5,0.7-1,1-1.5
		c0.7-1.3,1.1-2.7,1.1-4.2c0-1.1-0.2-2.2-0.6-3.3c-0.4-1-0.9-1.9-1.7-2.8c-0.4-0.4-0.7-0.7-0.9-0.9c-1.6-1.2-3.3-1.9-5.2-1.9
		C46.5,64.3,44.9,64.8,43.4,65.8 M44.1,69.9c0.1-0.2,0.3-0.4,0.7-0.8c1-0.9,2.2-1.4,3.4-1.4c0.8,0,1.6,0.2,2.4,0.6
		c0.2,0.1,0.4,0.2,0.6,0.4c0.1,0,0.4,0.3,0.8,0.7c0.9,1.1,1.4,2.3,1.4,3.7v0c0,0.9-0.2,1.8-0.7,2.7c-0.2,0.3-0.4,0.7-0.8,1.1
		c-1,1-2.2,1.5-3.5,1.5c-1.1,0-2.1-0.4-3-1.1c-0.2-0.1-0.5-0.4-0.8-0.8c-0.8-1.1-1.3-2.2-1.3-3.5C43.1,71.9,43.4,70.8,44.1,69.9
		 M30.7,66.1v-1.3h-3.3h-0.1v16.5c0,0,0.1,0,0.1,0.1h3.3v-0.1v-7.7c0-2.2,0.3-3.7,1-4.5c0.8-0.8,1.8-1.2,3-1.2h0.3
		c0.9,0,1.9,0.4,3,1.1c0.1-0.1,0.3-1.3,0.8-3.5v0c-1.2-0.7-2.4-1-3.6-1h-0.5C33.3,64.5,32,65,30.7,66.1 M10.5,55.7V59h6.8v22.4h0
		h3.4V59h6.8v-3.4H10.5z"/>
	<path class="st0" d="M365.8,34.4c-0.4,0.5-0.7,1-0.7,1.5v0.1c0,0.2,0,0.4,0.1,0.6c0.2,0.5,0.4,0.8,0.8,1.1c0.4,0.3,0.8,0.4,1.2,0.4
		h0.2c0.1,0,0.2,0,0.4,0c0.3-0.1,0.6-0.3,1-0.6c0.5-0.5,0.7-1,0.7-1.5v-0.1c0-0.4-0.1-0.8-0.4-1.2c-0.5-0.6-1.1-0.9-1.8-0.9
		C366.8,33.8,366.3,34,365.8,34.4 M365.2,12.5c0.3,10.2,0.4,17,0.5,20.4v0h3.4l0,0c0.3-10.2,0.4-17,0.5-20.4H365.2z M359.8,12.5
		h-3.4v10.9c-0.2-0.2-0.4-0.4-0.7-0.7c-1.3-1-2.7-1.5-4.4-1.5h0c-1.9,0-3.6,0.6-5.2,1.9c-0.2,0.2-0.5,0.5-0.9,0.9
		c-0.8,0.9-1.4,1.8-1.8,2.8c-0.4,1.1-0.6,2.1-0.6,3.3c0,1.5,0.4,2.9,1.1,4.3c0.2,0.5,0.6,1,1,1.5c0.5,0.5,0.8,0.9,1.1,1.1
		c0.3,0.3,0.6,0.5,0.9,0.7c1.4,0.8,2.9,1.3,4.4,1.3h0.2c0.6,0,1.4-0.1,2.2-0.4c0.4-0.1,0.8-0.3,1.2-0.5c0.3-0.2,0.6-0.4,0.9-0.7
		c0.2-0.2,0.4-0.4,0.6-0.6v1.8h3.4V12.5z M356.4,29.8L356.4,29.8c0,1.2-0.3,2.3-1,3.3c-0.2,0.2-0.4,0.5-0.7,0.7
		c-0.1,0.1-0.2,0.2-0.3,0.3c-0.4,0.3-0.7,0.5-1,0.6c-0.7,0.4-1.4,0.5-2.1,0.5c-1.4,0-2.7-0.6-3.7-1.7c-0.4-0.5-0.7-0.9-0.9-1.3
		c-0.4-0.7-0.5-1.5-0.5-2.3v-0.1c0-1.3,0.4-2.5,1.3-3.6c1.1-1.2,2.3-1.8,3.8-1.8c0.7,0,1.4,0.2,2.2,0.6c0.4,0.2,0.7,0.4,1.1,0.7
		c0.3,0.3,0.5,0.5,0.6,0.6C355.8,28.1,356.2,29.3,356.4,29.8 M327.3,22.6c-0.2,0.1-0.6,0.5-1.2,1c-0.4,0.4-0.7,0.8-0.9,1.1
		c-0.3,0.4-0.5,0.8-0.7,1.1c-0.7,1.3-1,2.6-1,3.9V30c0,1.2,0.3,2.4,0.8,3.6c0.2,0.4,0.4,0.7,0.6,1.1c0.2,0.3,0.5,0.6,0.7,0.9
		c0.2,0.3,0.5,0.6,1,1c0.2,0.2,0.5,0.4,0.8,0.6c1.5,0.9,3,1.4,4.6,1.4h0.1c1.5,0,3-0.4,4.4-1.3c0.3-0.2,0.6-0.4,0.9-0.7
		c0.3-0.2,0.7-0.6,1.1-1.1c0.4-0.5,0.7-1,1-1.5c0.7-1.3,1.1-2.7,1.1-4.2c0-1.1-0.2-2.2-0.6-3.3c-0.4-1-0.9-1.9-1.7-2.8
		c-0.4-0.4-0.7-0.7-1-0.9c-1.6-1.2-3.3-1.9-5.2-1.9C330.3,21.1,328.7,21.6,327.3,22.6 M327.9,26.7c0.1-0.2,0.3-0.4,0.7-0.8
		c1-0.9,2.2-1.4,3.4-1.4c0.8,0,1.6,0.2,2.4,0.6c0.2,0.1,0.4,0.2,0.6,0.4c0.1,0,0.4,0.3,0.8,0.7c0.9,1.1,1.4,2.3,1.4,3.7v0
		c0,0.9-0.2,1.8-0.7,2.7c-0.2,0.3-0.4,0.7-0.8,1.1c-1,1-2.2,1.5-3.6,1.5c-1.1,0-2.1-0.4-3-1.1c-0.2-0.1-0.5-0.4-0.8-0.8
		c-0.8-1.1-1.3-2.2-1.3-3.5C326.9,28.7,327.2,27.6,327.9,26.7 M307.8,12.5v3.4h6.8v22.4h0h3.4V15.8h6.8v-3.4H307.8z M288.2,21.5
		c-1,0.3-1.7,0.6-2.4,0.9v-0.9l0,0h-3.3c0,0,0,0-0.1,0v16.7l0.1,0h3.3l0,0V28c0-1.3,0.4-2.2,1.2-2.6c0.6-0.4,1.6-0.7,3-0.7h0.3
		c0.8,0,1.5,0.1,2,0.4c1.2,0.5,1.8,1.4,1.8,2.8v10.2l0,0h3.3l0,0V28c0-1.2-0.2-2.3-0.7-3.2c-1.3-2.3-3.5-3.4-6.5-3.4h-0.2
		C289.4,21.4,288.7,21.4,288.2,21.5 M266.4,22.9c-2.1,1.9-3.2,4.2-3.2,7v0.1c0,2,0.6,3.8,1.8,5.5c1.8,2.2,3.8,3.2,6.2,3.2h0.1
		c2.3,0,4.4-1,6.1-3.1c0.6-0.8,0.9-1.4,1.1-1.8c0,0-1-0.5-3.1-1.4c0,0-0.1,0.2-0.3,0.6c-1,1.5-2.3,2.3-3.8,2.3
		c-1.2,0-2.3-0.5-3.2-1.5c-0.6-0.6-1.1-1.6-1.4-2.8h12.6c0,0,0-0.2,0-0.5v-0.5c0-1.7-0.4-3.2-1.3-4.7c-0.3-0.6-0.8-1.2-1.6-2
		c-1.6-1.4-3.2-2.1-5-2.1h-0.5C269.5,21.1,268,21.7,266.4,22.9 M267.3,27.1c1-1.7,2.4-2.6,4-2.6c1.1,0,2,0.4,2.9,1.2
		c0.7,0.8,1.2,1.4,1.4,2v0H267C267.2,27.4,267.3,27.2,267.3,27.1 M260.2,12.5h-3.4v10.9c-0.2-0.2-0.4-0.4-0.7-0.7
		c-1.3-1-2.7-1.5-4.4-1.5h0c-1.9,0-3.6,0.6-5.2,1.9c-0.2,0.2-0.5,0.5-0.9,0.9c-0.8,0.9-1.4,1.8-1.8,2.8c-0.4,1.1-0.6,2.1-0.6,3.3
		c0,1.5,0.4,2.9,1.1,4.3c0.2,0.5,0.6,1,1,1.5c0.5,0.5,0.8,0.9,1.1,1.1c0.3,0.3,0.6,0.5,0.9,0.7c1.4,0.8,2.9,1.3,4.4,1.3h0.2
		c0.6,0,1.4-0.1,2.2-0.4c0.4-0.1,0.8-0.3,1.2-0.5c0.3-0.2,0.6-0.4,0.9-0.7c0.2-0.2,0.4-0.4,0.6-0.6v1.8h3.4V12.5z M256.9,29.8
		L256.9,29.8c0,1.2-0.3,2.3-1,3.3c-0.2,0.2-0.4,0.5-0.7,0.7c-0.1,0.1-0.2,0.2-0.3,0.3c-0.4,0.3-0.7,0.5-0.9,0.6
		c-0.7,0.4-1.4,0.5-2.1,0.5c-1.4,0-2.7-0.6-3.7-1.7c-0.4-0.5-0.7-0.9-0.9-1.3c-0.4-0.7-0.5-1.5-0.5-2.3v-0.1c0-1.3,0.4-2.5,1.3-3.6
		c1.1-1.2,2.3-1.8,3.8-1.8c0.7,0,1.4,0.2,2.2,0.6c0.4,0.2,0.7,0.4,1.1,0.7c0.3,0.3,0.5,0.5,0.6,0.6
		C256.3,28.1,256.7,29.3,256.9,29.8 M224.5,21.3H222c0,0,0,0,0,0v3.4h0h2.5v8.6c0,0.7,0.2,1.4,0.5,2.1c0.1,0.2,0.3,0.4,0.5,0.7
		c0.1,0.2,0.2,0.3,0.3,0.4c0.3,0.3,0.5,0.4,0.6,0.6c1,0.7,2,1,3.1,1h0c0.6,0,1.2-0.1,2-0.3c0.6-0.2,1.1-0.3,1.4-0.5
		c-0.6-1.6-1.1-2.7-1.3-3.2c-0.1,0-0.1,0.1-0.1,0.1c-0.8,0.3-1.5,0.5-1.9,0.5c-0.4,0-0.7-0.1-0.9-0.3c-0.5-0.2-0.7-0.6-0.7-1.3v-8.5
		h4.4h0v-3.4l0,0h-4.4v-8.9h-3.4V21.3z M209.8,21.2c-0.4,0.2-0.7,0.4-1.1,0.7c-0.2,0.1-0.4,0.3-0.8,0.7c-0.8,1-1.2,2-1.2,3.1v0.1
		c0,0.4,0.1,0.9,0.2,1.3c0.3,0.9,0.9,1.6,1.8,2.2c0.4,0.3,0.8,0.5,1.2,0.6c0.9,0.4,2.3,0.8,4.2,1.2c0.9,0.1,1.5,0.3,1.8,0.4
		c1,0.4,1.5,0.9,1.5,1.5c0,0.4-0.2,0.8-0.5,1.1c-0.2,0.2-0.4,0.3-0.6,0.4c-0.8,0.5-1.7,0.7-2.7,0.7c-0.5,0-1-0.1-1.5-0.2
		c-0.8-0.2-1.5-0.6-2-1.1c-0.3-0.3-0.5-0.5-0.6-0.7c-0.1-0.1-0.1-0.2-0.1-0.2c-1.3,0.8-2.3,1.3-3,1.7c0.2,0.3,0.4,0.6,0.6,0.9
		c0.1,0.2,0.4,0.4,0.7,0.7c0.4,0.4,0.7,0.6,1,0.8c1.5,0.9,3.1,1.4,4.8,1.4h0.1c1.3,0,2.6-0.3,3.8-0.8c0.3-0.1,0.7-0.4,1.2-0.7
		c0.2-0.1,0.4-0.3,0.8-0.7c0.9-1.1,1.3-2.2,1.3-3.4v0c0-1.2-0.4-2.2-1.3-3.2c-0.3-0.3-0.6-0.6-0.8-0.7c-0.4-0.3-0.8-0.5-1.2-0.7
		c-0.4-0.2-1-0.4-1.5-0.5c-1.9-0.3-3.3-0.6-4.2-0.9c-0.6-0.2-1.1-0.4-1.3-0.6c-0.2-0.1-0.3-0.3-0.3-0.6c0-0.4,0.2-0.8,0.6-1.1
		c0.8-0.6,1.7-0.9,3-0.9h0.1c1.1,0,2.1,0.3,2.8,0.9c0.2,0.2,0.4,0.4,0.6,0.6c0.7-0.4,1.3-0.8,1.9-1.2c0.6-0.4,1-0.6,1-0.6
		c-0.1-0.1-0.2-0.3-0.2-0.4c-0.1-0.2-0.4-0.4-0.7-0.7c-1.5-1.4-3.3-2-5.5-2C212.2,20.4,210.9,20.7,209.8,21.2 M194.2,21.5
		c-1,0.3-1.7,0.6-2.4,0.9v-0.9l0,0h-3.3c0,0,0,0-0.1,0v16.7l0.1,0h3.3l0,0V28c0-1.3,0.4-2.2,1.2-2.6c0.6-0.4,1.6-0.7,3-0.7h0.3
		c0.8,0,1.5,0.1,2,0.4c1.2,0.5,1.8,1.4,1.8,2.8v10.2l0,0h3.3l0,0V28c0-1.2-0.2-2.3-0.7-3.2c-1.3-2.3-3.5-3.4-6.5-3.4h-0.2
		C195.4,21.4,194.7,21.4,194.2,21.5 M172.4,22.9c-2.1,1.9-3.2,4.2-3.2,7v0.1c0,2,0.6,3.8,1.8,5.5c1.8,2.2,3.8,3.2,6.2,3.2h0.1
		c2.3,0,4.4-1,6.1-3.1c0.6-0.8,0.9-1.4,1.1-1.8c0,0-1-0.5-3.1-1.4c0,0-0.1,0.2-0.3,0.6c-1,1.5-2.3,2.3-3.8,2.3
		c-1.2,0-2.3-0.5-3.2-1.5c-0.6-0.6-1.1-1.6-1.4-2.8h12.6c0,0,0-0.2,0-0.5v-0.5c0-1.7-0.4-3.2-1.3-4.7c-0.3-0.6-0.8-1.2-1.6-2
		c-1.6-1.4-3.2-2.1-5-2.1h-0.5C175.5,21.1,173.9,21.7,172.4,22.9 M173.3,27.1c1-1.7,2.4-2.6,4-2.6c1.1,0,2,0.4,2.9,1.2
		c0.7,0.8,1.2,1.4,1.4,2v0H173C173.2,27.4,173.3,27.2,173.3,27.1 M163.2,12.9c-0.1,0.1-0.2,0.2-0.2,0.2c-0.4,0.5-0.6,1-0.6,1.5v0.1
		c0,0.3,0.1,0.5,0.2,0.8c0.1,0.2,0.3,0.4,0.5,0.7c0.4,0.4,0.9,0.6,1.5,0.6h0.1c0.6,0,1.1-0.2,1.6-0.7c0.4-0.5,0.6-1,0.6-1.5v-0.1
		c0-0.6-0.2-1.1-0.7-1.5c-0.5-0.4-0.9-0.6-1.4-0.6h-0.1C164.1,12.5,163.6,12.6,163.2,12.9 M162.8,21.4v16.8h3.4h0V21.4H162.8z
		 M158.5,12.5h-3.4v10.9c-0.2-0.2-0.4-0.4-0.7-0.7c-1.3-1-2.7-1.5-4.4-1.5h0c-1.9,0-3.6,0.6-5.2,1.9c-0.2,0.2-0.5,0.5-0.9,0.9
		c-0.8,0.9-1.4,1.8-1.8,2.8c-0.4,1.1-0.6,2.1-0.6,3.3c0,1.5,0.4,2.9,1.1,4.3c0.2,0.5,0.6,1,1,1.5c0.5,0.5,0.8,0.9,1.1,1.1
		c0.3,0.3,0.6,0.5,0.9,0.7c1.4,0.8,2.9,1.3,4.4,1.3h0.2c0.6,0,1.4-0.1,2.2-0.4c0.4-0.1,0.8-0.3,1.2-0.5c0.3-0.2,0.6-0.4,0.9-0.7
		c0.2-0.2,0.4-0.4,0.6-0.6v1.8h3.4V12.5z M155.1,29.8L155.1,29.8c0,1.2-0.3,2.3-1,3.3c-0.2,0.2-0.4,0.5-0.7,0.7
		c-0.1,0.1-0.2,0.2-0.3,0.3c-0.4,0.3-0.7,0.5-0.9,0.6c-0.7,0.4-1.4,0.5-2.1,0.5c-1.4,0-2.7-0.6-3.7-1.7c-0.4-0.5-0.7-0.9-0.9-1.3
		c-0.4-0.7-0.5-1.5-0.5-2.3v-0.1c0-1.3,0.4-2.5,1.3-3.6c1.1-1.2,2.3-1.8,3.8-1.8c0.7,0,1.4,0.2,2.2,0.6c0.4,0.2,0.7,0.4,1.1,0.7
		c0.3,0.3,0.5,0.5,0.6,0.6C154.6,28.1,154.9,29.3,155.1,29.8 M132.4,22.9v-1.3h-3.3h-0.1v16.5c0,0,0.1,0,0.1,0.1h3.3v-0.1v-7.7
		c0-2.2,0.3-3.7,1-4.5c0.8-0.8,1.8-1.2,3-1.2h0.3c0.9,0,1.9,0.4,3,1.1c0.1-0.1,0.3-1.3,0.8-3.5v0c-1.2-0.7-2.4-1-3.6-1h-0.5
		C135.1,21.3,133.8,21.8,132.4,22.9 M113,22.9c-2.1,1.9-3.2,4.2-3.2,7v0.1c0,2,0.6,3.8,1.8,5.5c1.8,2.2,3.8,3.2,6.2,3.2h0.1
		c2.3,0,4.4-1,6.1-3.1c0.6-0.8,0.9-1.4,1.1-1.8c0,0-1-0.5-3.1-1.4c0,0-0.1,0.2-0.3,0.6c-1,1.5-2.3,2.3-3.8,2.3
		c-1.2,0-2.3-0.5-3.2-1.5c-0.6-0.6-1.1-1.6-1.4-2.8H126c0,0,0-0.2,0-0.5v-0.5c0-1.7-0.4-3.2-1.3-4.7c-0.3-0.6-0.8-1.2-1.6-2
		c-1.6-1.4-3.2-2.1-5-2.1h-0.5C116.1,21.1,114.6,21.7,113,22.9 M113.9,27.1c1-1.7,2.4-2.6,4-2.6c1.1,0,2,0.4,2.9,1.2
		c0.7,0.8,1.2,1.4,1.4,2v0h-8.5C113.8,27.4,113.9,27.2,113.9,27.1 M91.5,21.4c0.2,0.5,0.3,0.8,0.4,0.9c1.7,3.8,2.9,6.4,3.4,7.6
		c1.4,3.2,2.5,5.5,3.2,7.1l0.5,1.2h3.1c0.7-1.5,1.1-2.5,1.3-3.1c1.2-2.7,2-4.5,2.4-5.3l3.8-8.4h-3.9c-1.4,3.1-2.3,5.1-2.7,6.2
		c-1.2,2.8-2.1,4.7-2.5,5.7c-0.6-1.4-1.1-2.3-1.3-2.8c-1.4-3.2-2.5-5.7-3.2-7.3c-0.5-1.1-0.7-1.7-0.7-1.8H91.5z M75,38
		c1-0.3,1.7-0.6,2.4-1.1v1.1l0,0h3.3v0V21.4v-0.1h-3.3c0,0,0,0,0,0.1v10.1c0,1.2-0.4,2.1-1.2,2.6c-0.6,0.5-1.6,0.7-3.1,0.7h-0.3
		c-0.8,0-1.4-0.1-1.9-0.4c-1.2-0.4-1.8-1.4-1.8-2.8V21.4l-0.1-0.1h-3.3c0,0-0.1,0-0.1,0.1v10.2c0,1.2,0.2,2.3,0.7,3.2
		c1.3,2.3,3.5,3.4,6.5,3.4h0.1C73.9,38.2,74.5,38.1,75,38 M46.2,15.9h2.7c1.4,0,2.6,0.1,3.4,0.4c1,0.4,1.7,0.7,2.2,1
		c0.5,0.2,1.2,0.8,2.1,1.8C58.2,21,59,23,59,25.4c0,2.2-0.8,4.3-2.3,6.1c-2,2.2-4.5,3.3-7.5,3.3h-3.1L46.2,15.9
		C46.2,15.9,46.2,15.9,46.2,15.9 M42.8,12.5v25.6c0,0,0,0,0.1,0h6.9c1.5,0,3-0.3,4.6-0.9c1.4-0.5,2.8-1.4,4.2-2.7
		c2.6-2.7,3.9-5.7,3.9-9.1v-0.2c0-2.7-0.9-5.3-2.6-7.7c-0.3-0.4-0.9-1.1-1.9-2c-2.5-2.1-5.3-3.1-8.4-3.1L42.8,12.5L42.8,12.5z
		 M24.7,17.2c-0.9,1.2-1.6,2.1-2.1,2.7c0,0,1.7,1.3,5,3.9c1.5,1.2,2.6,2,3.1,2.4c-1.7,1.3-2.8,2.2-3.4,2.7c-2.3,1.8-3.9,3-4.6,3.6
		c1.1,1.3,1.8,2.2,2.1,2.7c2.6-2.1,4.6-3.6,6-4.7c2.5-1.9,3.8-2.9,3.8-3v-2.7c-2.5-2-4.2-3.3-5.1-3.9C27.1,19,25.5,17.8,24.7,17.2
		 M15.7,17.2c-0.9,1.2-1.6,2.1-2.1,2.7c0,0,1.7,1.3,5,3.9c1.5,1.2,2.6,2,3.1,2.4c-1.7,1.3-2.8,2.2-3.4,2.7c-2.3,1.8-3.9,3-4.6,3.6
		c1.1,1.3,1.8,2.2,2.1,2.7c2.6-2.1,4.6-3.6,6-4.7c2.5-1.9,3.8-2.9,3.8-3v-2.7c-2.5-2-4.2-3.3-5.1-3.9C18.1,19,16.5,17.8,15.7,17.2"
		/>
	<path class="st0" d="M454.1,154c0.1,8.9,0.2,14.8,0.3,17.8h2.2c0.1-8.9,0.2-14.8,0.3-17.8H454.1L454.1,154z M454.5,174.1
		c-0.3,0.3-0.5,0.7-0.5,1.1v0.1c0,0.4,0.2,0.7,0.5,1.1c0.3,0.3,0.7,0.4,1.1,0.4c0.4,0,0.7-0.1,1-0.4c0.4-0.3,0.6-0.7,0.6-1.2v-0.1
		c0-0.3-0.1-0.7-0.4-1c-0.3-0.4-0.7-0.5-1.2-0.5h0C455.1,173.7,454.8,173.8,454.5,174.1 M440.5,162.5c-0.4,0.2-0.7,0.4-1,0.6
		c-0.1,0.1-0.3,0.3-0.7,0.7c-1,1.1-1.4,2.3-1.4,3.7c0,1,0.3,1.9,0.8,2.8c0.2,0.3,0.4,0.6,0.6,0.8c0,0,0,0,0,0.1
		c-0.5,0.6-0.7,1.3-0.7,2v0c0,0.8,0.3,1.5,0.8,2c0,0-0.1,0-0.1,0.1c-0.2,0.2-0.5,0.4-0.8,0.7c-0.7,0.9-1,1.8-1,2.7v0.2
		c0,0.8,0.3,1.6,0.9,2.4c0.1,0.2,0.3,0.4,0.6,0.7c0.3,0.3,0.6,0.5,0.9,0.7c0.4,0.2,0.8,0.4,1.3,0.6c1,0.3,1.9,0.5,2.8,0.5h0.5
		c0.6,0,1.2-0.1,1.9-0.2c0.4-0.1,0.8-0.2,1.2-0.4c0.4-0.1,0.7-0.3,0.9-0.5c0.2-0.1,0.6-0.4,0.9-0.7c0.4-0.3,0.6-0.6,0.7-0.8
		c0.6-0.8,0.8-1.6,0.8-2.4c0-0.8-0.3-1.6-0.8-2.4c-0.1-0.2-0.3-0.4-0.6-0.7c-1.1-1-2.7-1.4-4.7-1.4c-0.5,0-0.9,0-1.1,0
		c-1.5,0-2.5-0.1-2.9-0.4c-0.1-0.1-0.2-0.2-0.2-0.5c0-0.3,0.1-0.5,0.3-0.8c0.9,0.4,1.7,0.6,2.6,0.6h0.1c0.8,0,1.5-0.2,2.2-0.5
		c0.4-0.2,0.8-0.3,1.1-0.5c0.2-0.1,0.5-0.4,0.9-0.8c1-1.1,1.5-2.4,1.5-3.8c0-0.6-0.1-1.2-0.3-1.7c-0.2-0.4-0.3-0.8-0.5-1.1
		c0-0.1,0-0.2,0.1-0.3c0.2-0.2,0.4-0.2,0.8-0.2h0.4l0,0v-2.2l0,0H449c-0.2,0-0.5,0-0.8,0.1c-0.3,0.1-0.7,0.2-1,0.5
		c-0.1,0.1-0.3,0.2-0.5,0.5c-1.1-0.7-2.2-1.1-3.5-1.1C442.2,161.9,441.3,162.1,440.5,162.5 M440,176.8c0.4-0.4,0.8-0.6,1-0.8
		c0.6,0.1,1.3,0.2,2.1,0.2h1.5c0.6,0,1.2,0.1,1.8,0.2c0.5,0.1,0.9,0.4,1.2,0.6c0.4,0.4,0.6,0.9,0.6,1.3v0c0,0.5-0.2,1-0.7,1.5
		c-0.2,0.2-0.4,0.4-0.6,0.5c-0.9,0.6-2.1,0.9-3.3,0.9c-1.4,0-2.6-0.3-3.5-0.9c-0.7-0.6-1.1-1.2-1.1-1.8v0
		C439.1,178.1,439.4,177.5,440,176.8 M439.8,166.2c0.1-0.3,0.3-0.6,0.6-1c0.3-0.3,0.5-0.5,0.7-0.6c0.6-0.4,1.3-0.5,2-0.5h0.1
		c0.5,0,1,0.1,1.5,0.3c0.4,0.2,0.8,0.4,1.1,0.7c0.7,0.7,1,1.5,1,2.3c0,0.9-0.4,1.7-1.1,2.4c-0.8,0.6-1.6,0.9-2.5,0.9
		c-0.9,0-1.7-0.3-2.4-0.8c-0.1-0.1-0.3-0.3-0.6-0.5c-0.5-0.6-0.7-1.3-0.7-1.9v-0.2C439.5,167,439.6,166.6,439.8,166.2 M423.3,163.7
		v-1.5l-0.1,0h-2.1c0,0,0,0-0.1,0v14.6l0.1,0h2.1c0,0,0,0,0.1,0v-9.2c0-1.2,0.4-2.1,1.2-2.6c0.6-0.5,1.6-0.8,2.9-0.8
		c1.1,0,1.8,0.1,2.2,0.2c1.6,0.5,2.3,1.6,2.3,3.1v9.3c0,0,0,0,0.1,0h2.1c0,0,0,0,0.1,0v-9.3c0-0.8-0.1-1.5-0.4-2.1
		c-1-2.2-3-3.3-5.9-3.3h-0.3C425.9,162,424.5,162.6,423.3,163.7 M404.3,162.1v9.4c0,1.7,0.7,3.1,2.1,4.2c1,0.8,2.5,1.2,4.3,1.2
		c1.8,0,3.2-0.6,4.3-1.7v1.5l0,0h2.1l0,0v-14.5l0-0.1h-2.1c0,0,0,0,0,0.1v9.2c0,0.5-0.1,0.9-0.2,1.4c-0.2,0.7-0.8,1.2-1.6,1.6
		c-0.5,0.3-1.3,0.4-2.4,0.4c-0.8,0-1.4-0.1-1.8-0.2c-1.8-0.4-2.6-1.5-2.6-3.1v-9.3l0-0.1L404.3,162.1
		C404.3,162,404.3,162,404.3,162.1 M387.7,154v22.8l0.1,0h2.1c0,0,0,0,0.1,0v-9.2c0-0.6,0.1-1.1,0.3-1.6c0.7-1.2,1.9-1.8,3.6-1.8
		h0.6c0.5,0,0.9,0,1.2,0.1c1.9,0.4,2.8,1.5,2.8,3.2v9.3l0.1,0h2.1c0,0,0,0,0,0v-9.4c0-0.8-0.1-1.5-0.4-2.2c-1-2.2-3-3.3-6.1-3.3
		c-1.7,0-3.1,0.6-4.3,1.7V154l-0.1,0L387.7,154C387.8,154,387.7,154,387.7,154 M374.4,163.9c-1.5,1.6-2.3,3.4-2.3,5.5v0.2
		c0,2.1,0.8,3.9,2.3,5.5c1.4,1.3,3.1,2,4.9,2c0.7,0,1.4-0.1,2.1-0.3c1.7-0.6,3-1.6,3.9-3c-0.9-0.6-1.6-1-1.9-1.2
		c-0.1,0.1-0.2,0.2-0.2,0.3c-1.1,1.4-2.4,2-3.9,2c-1.2,0-2.3-0.5-3.3-1.4c-1.1-1.1-1.7-2.5-1.7-3.9v-0.1c0-1.4,0.5-2.6,1.4-3.8
		c1.1-1.1,2.2-1.6,3.5-1.6h0.2c0.4,0,0.9,0.1,1.3,0.2c1.2,0.4,2.1,1.1,2.8,2.1c0.8-0.5,1.4-0.9,1.8-1.2c-0.2-0.4-0.7-0.9-1.3-1.6
		c-1.4-1.1-2.9-1.7-4.4-1.7H379C377.4,161.9,375.8,162.5,374.4,163.9 M362.5,162.1c-0.6,0.2-1.2,0.4-1.6,0.8
		c-0.1,0.1-0.4,0.3-0.7,0.6c-0.7,0.8-1.1,1.7-1.1,2.6v0.1c0,1.6,1,2.7,2.9,3.4c0.9,0.3,2.2,0.6,3.9,0.9c0.4,0.1,0.7,0.2,0.9,0.3
		c0.9,0.4,1.3,1,1.3,1.7c0,0.4-0.2,0.9-0.5,1.2c-0.2,0.2-0.4,0.4-0.6,0.5c-0.7,0.4-1.5,0.6-2.4,0.6c-0.6,0-1.3-0.1-1.8-0.3
		c-0.9-0.4-1.6-0.9-2.1-1.8c-0.4,0.2-0.8,0.4-1,0.5c-0.6,0.3-0.9,0.5-0.9,0.5c0.6,1,1.4,1.8,2.4,2.4c1.1,0.6,2.2,0.8,3.3,0.8h0.2
		c1.1,0,2.1-0.2,3.1-0.7c0.3-0.1,0.6-0.3,0.9-0.6c0.1-0.1,0.4-0.3,0.6-0.6c0.7-0.8,1-1.7,1-2.6v-0.1c0-0.9-0.3-1.7-0.9-2.4
		c-0.3-0.3-0.5-0.5-0.6-0.5c-0.3-0.2-0.6-0.4-0.9-0.6c-0.3-0.2-0.8-0.3-1.3-0.4c-0.8-0.1-1.4-0.3-2-0.4c-1.1-0.3-1.9-0.5-2.3-0.8
		c-0.2-0.1-0.4-0.2-0.5-0.3c-0.3-0.2-0.5-0.5-0.5-0.9c0-0.5,0.2-1,0.7-1.4c0.7-0.5,1.6-0.8,2.7-0.8c1,0,1.8,0.2,2.4,0.7
		c0.4,0.3,0.7,0.6,0.8,0.8h0c0.3-0.2,0.9-0.6,1.9-1.1c0,0-0.1-0.1-0.2-0.4c-0.2-0.2-0.4-0.5-0.8-0.7c-0.4-0.3-0.7-0.5-1-0.7
		c-1-0.5-2-0.8-3.1-0.8h-0.2C363.8,161.7,363.2,161.9,362.5,162.1 M344.1,167.2c1-2.1,2.6-3.1,4.8-3.1c1.6,0,3,0.8,3.9,2.3
		c0.6,1,0.8,1.9,0.8,2.8v0.3c0,0.6-0.1,1.3-0.3,2c-0.9,2.2-2.4,3.3-4.7,3.3c-1.1,0-2-0.3-2.9-1c-1.4-1.1-2.1-2.6-2.1-4.3v-0.1
		C343.6,168.6,343.7,167.9,344.1,167.2 M343.5,164.1c-1.4,1.5-2.1,3.3-2.1,5.2v0.2c0,1.8,0.6,3.5,1.9,5.1c1.5,1.6,3.3,2.4,5.3,2.4h0
		c2.3,0,4-0.9,5.1-2.6v2.4c0,0,0,0,0.1,0h2.1c0,0,0,0,0.1,0V162c0,0-0.1,0-0.1-0.1h-2.1c0,0,0,0.1-0.1,0.1v2.4c0,0,0-0.1,0-0.1
		c-1.2-1.7-2.9-2.5-4.9-2.5C346.7,161.8,345,162.6,343.5,164.1 M335.7,162.1c-0.9,0.3-1.6,0.7-2,1.3v-1.3l-0.1,0h-2.1c0,0,0,0-0.1,0
		v14.6l0.1,0h2.1c0,0,0,0,0.1,0v-9.1c0-0.4,0.1-0.8,0.2-1.2c0.7-1.6,1.9-2.4,3.7-2.4c0.8,0,1.6,0.3,2.6,0.8c0.2-1,0.4-1.8,0.5-2.3
		c-0.8-0.5-1.8-0.8-2.9-0.8C337.1,161.9,336.4,162,335.7,162.1 M324.6,162.1c-0.9,0.3-1.6,0.7-2,1.3v-1.3l-0.1,0h-2.1c0,0,0,0-0.1,0
		v14.6l0.1,0h2.1c0,0,0,0,0.1,0v-9.1c0-0.4,0.1-0.8,0.2-1.2c0.7-1.6,1.9-2.4,3.7-2.4c0.8,0,1.6,0.3,2.6,0.8c0.2-1,0.4-1.8,0.5-2.3
		c-0.8-0.5-1.8-0.8-2.9-0.8C325.9,161.9,325.2,162,324.6,162.1 M306.6,166.2c1.1-1.4,2.4-2.1,3.9-2.1c0.9,0,1.7,0.2,2.5,0.8
		c1,0.6,1.8,1.6,2.2,3h-9.3C306,167.2,306.2,166.7,306.6,166.2 M305.6,163.9c-1.5,1.6-2.2,3.4-2.2,5.5v0.1c0,1.6,0.5,3.2,1.5,4.6
		c1.5,1.9,3.4,2.8,5.6,2.8c1.8,0,3.5-0.7,4.9-2.1c0.8-0.9,1.3-1.6,1.5-2.3c-0.5-0.2-1.1-0.5-2-0.9h-0.1c-0.1,0.3-0.3,0.7-0.7,1.2
		c-1.1,1.2-2.3,1.9-3.7,1.9c-0.5,0-1-0.1-1.5-0.3c-1.2-0.4-2.1-1.2-2.7-2.4c-0.4-0.9-0.6-1.6-0.6-2.1h11.9c0.1,0,0.1-0.2,0.1-0.7
		v-0.2c0-1.4-0.5-2.9-1.5-4.3c-1.5-1.9-3.4-2.9-5.5-2.9C308.7,161.8,307,162.5,305.6,163.9 M289.7,167.1c1-2,2.4-3.1,4.3-3.1
		c1.3,0,2.4,0.4,3.3,1.2c1.3,1.2,1.9,2.5,1.9,4.1v0.2c0,0.9-0.3,1.9-0.8,2.9c-1.1,1.6-2.5,2.3-4.1,2.3c-1.2,0-2.2-0.3-3-0.9
		c-1.4-1.2-2.1-2.6-2.1-4.4v-0.2C289.3,168.6,289.4,167.9,289.7,167.1 M287,154v22.8l0.1,0h2.1c0,0,0,0,0.1,0v-2.4
		c1.1,1.7,2.8,2.6,5.1,2.6h0.1c1,0,2-0.2,3-0.7c0.6-0.3,1.3-0.8,2.1-1.5c1.4-1.6,2.1-3.3,2.1-5.2v-0.3c0-1.4-0.4-2.8-1.3-4.1
		c-1.5-2.2-3.6-3.3-6.1-3.3c-1.4,0-2.6,0.4-3.6,1.2c-0.8,0.6-1.2,1.1-1.3,1.4V154l-0.1,0L287,154C287,154,287,154,287,154
		 M266.5,154v14.7c0,2.5,0.8,4.5,2.3,6.2c1.4,1.3,3,2,4.7,2h2.2c1.2,0,2.3-0.3,3.4-1c2.4-1.6,3.6-4,3.6-7.4V154l0,0h-2.1l0,0v14.4
		c0,1.6-0.3,3-1,4c-1,1.5-2.3,2.2-3.9,2.2h-2.2c-0.8,0-1.5-0.2-2.3-0.6c-1.8-1.2-2.6-3-2.6-5.4V154c0,0,0,0-0.1,0L266.5,154
		L266.5,154z M276.3,148.6c-0.4,0.3-0.5,0.7-0.5,1.1v0.1c0,0.2,0.1,0.5,0.2,0.8c0.4,0.5,0.8,0.7,1.3,0.7c0.4,0,0.7-0.1,1-0.4
		c0.4-0.3,0.5-0.7,0.5-1.1v-0.1c0-0.3-0.1-0.7-0.4-1c-0.3-0.4-0.7-0.5-1.2-0.5C277,148.2,276.6,148.3,276.3,148.6 M271,148.6
		c-0.3,0.3-0.5,0.7-0.5,1.1v0.1c0,0.2,0.1,0.5,0.2,0.8c0.3,0.5,0.8,0.7,1.3,0.7h0c0.4,0,0.7-0.1,1.1-0.4c0.3-0.3,0.5-0.7,0.5-1.1
		v-0.1c0-0.3-0.1-0.7-0.4-1c-0.3-0.4-0.7-0.5-1.2-0.5C271.7,148.2,271.3,148.3,271,148.6 M244.9,166.2c1.1-1.4,2.4-2.1,3.9-2.1
		c0.9,0,1.7,0.2,2.5,0.8c1,0.6,1.8,1.6,2.2,3h-9.3C244.4,167.2,244.6,166.7,244.9,166.2 M244,163.9c-1.5,1.6-2.2,3.4-2.2,5.5v0.1
		c0,1.6,0.5,3.2,1.5,4.6c1.5,1.9,3.4,2.8,5.6,2.8c1.8,0,3.5-0.7,4.9-2.1c0.8-0.9,1.3-1.6,1.5-2.3c-0.5-0.2-1.1-0.5-2-0.9h-0.1
		c-0.1,0.3-0.3,0.7-0.7,1.2c-1.1,1.2-2.3,1.9-3.7,1.9c-0.5,0-1-0.1-1.5-0.3c-1.2-0.4-2.1-1.2-2.7-2.4c-0.4-0.9-0.6-1.6-0.6-2.1h11.9
		c0.1,0,0.1-0.2,0.1-0.7v-0.2c0-1.4-0.5-2.9-1.5-4.3c-1.5-1.9-3.4-2.9-5.5-2.9C247,161.8,245.4,162.5,244,163.9 M228.4,163.7v-1.5
		l-0.1,0h-2.1c0,0,0,0-0.1,0v14.6l0.1,0h2.1c0,0,0,0,0.1,0v-9.2c0-1.2,0.4-2.1,1.2-2.6c0.6-0.5,1.6-0.8,2.9-0.8
		c1.1,0,1.8,0.1,2.2,0.2c1.6,0.5,2.3,1.6,2.3,3.1v9.3c0,0,0,0,0.1,0h2.1c0,0,0,0,0.1,0v-9.3c0-0.8-0.1-1.5-0.4-2.1
		c-1-2.2-3-3.3-5.9-3.3h-0.3C230.9,162,229.5,162.6,228.4,163.7 M220.1,154.4c-0.3,0.3-0.5,0.7-0.5,1.1v0.1c0,0.3,0.1,0.6,0.3,0.9
		c0.3,0.4,0.7,0.6,1.2,0.6h0.1c0.3,0,0.6-0.1,0.9-0.4c0.4-0.3,0.6-0.7,0.6-1.2v-0.1c0-0.3-0.1-0.7-0.4-1c-0.3-0.3-0.7-0.5-1.1-0.5
		h-0.1C220.7,154,220.4,154.1,220.1,154.4 M220,162L220,162l0,14.8h0h2.2h0V162h0H220z M206.2,166.2c1.1-1.4,2.4-2.1,3.9-2.1
		c0.9,0,1.7,0.2,2.5,0.8c1,0.6,1.8,1.6,2.2,3h-9.3C205.6,167.2,205.9,166.7,206.2,166.2 M205.3,163.9c-1.5,1.6-2.2,3.4-2.2,5.5v0.1
		c0,1.6,0.5,3.2,1.5,4.6c1.5,1.9,3.4,2.8,5.6,2.8c1.8,0,3.5-0.7,4.9-2.1c0.8-0.9,1.3-1.6,1.5-2.3c-0.5-0.2-1.1-0.5-2-0.9h-0.1
		c-0.1,0.3-0.3,0.7-0.7,1.2c-1.1,1.2-2.3,1.9-3.7,1.9c-0.5,0-1-0.1-1.5-0.3c-1.2-0.4-2.1-1.2-2.7-2.4c-0.4-0.9-0.6-1.6-0.6-2.1h11.9
		c0.1,0,0.1-0.2,0.1-0.7v-0.2c0-1.4-0.5-2.9-1.5-4.3c-1.5-1.9-3.4-2.9-5.5-2.9C208.3,161.8,206.7,162.5,205.3,163.9 M198,154
		L198,154l0,22.9h0h2.2h0V154h0H198z M183.2,154v22.8l0.1,0h2.1c0,0,0,0,0.1,0v-4.7c0,0,0.8-0.7,2.3-2.2c0.3,0.4,0.6,0.7,0.7,0.9
		c3,3.9,4.6,5.9,4.7,6h2.8h0c-3.3-4.2-5.6-7-6.7-8.4c3.3-3.2,5.5-5.3,6.6-6.4v0h-3.1c-3.7,3.6-6.2,5.9-7.4,7.1V154l-0.1,0L183.2,154
		C183.3,154,183.2,154,183.2,154 M161.9,166.2c1.1-1.4,2.4-2.1,3.9-2.1c0.9,0,1.7,0.2,2.5,0.8c1,0.6,1.8,1.6,2.2,3h-9.3
		C161.3,167.2,161.6,166.7,161.9,166.2 M161,163.9c-1.5,1.6-2.2,3.4-2.2,5.5v0.1c0,1.6,0.5,3.2,1.5,4.6c1.5,1.9,3.4,2.8,5.6,2.8
		c1.8,0,3.5-0.7,4.9-2.1c0.8-0.9,1.3-1.6,1.5-2.3c-0.5-0.2-1.1-0.5-2-0.9h-0.1c-0.1,0.3-0.3,0.7-0.7,1.2c-1.1,1.2-2.3,1.9-3.7,1.9
		c-0.5,0-1-0.1-1.5-0.3c-1.2-0.4-2.1-1.2-2.7-2.4c-0.4-0.9-0.6-1.6-0.6-2.1h11.9c0.1,0,0.1-0.2,0.1-0.7v-0.2c0-1.4-0.5-2.9-1.5-4.3
		c-1.5-1.9-3.4-2.9-5.5-2.9C164,161.8,162.4,162.5,161,163.9 M145.4,163.7v-1.5l-0.1,0h-2.1c0,0,0,0-0.1,0v14.6l0.1,0h2.1
		c0,0,0,0,0.1,0v-9.2c0-1.2,0.4-2.1,1.2-2.6c0.6-0.5,1.6-0.8,2.9-0.8c1.1,0,1.8,0.1,2.2,0.2c1.6,0.5,2.3,1.6,2.3,3.1v9.3
		c0,0,0,0,0.1,0h2.1c0,0,0,0,0.1,0v-9.3c0-0.8-0.1-1.5-0.4-2.1c-1-2.2-3-3.3-5.9-3.3h-0.3C147.9,162,146.5,162.6,145.4,163.7
		 M137.1,154.4c-0.3,0.3-0.5,0.7-0.5,1.1v0.1c0,0.3,0.1,0.6,0.3,0.9c0.3,0.4,0.7,0.6,1.2,0.6h0.1c0.3,0,0.6-0.1,0.9-0.4
		c0.4-0.3,0.6-0.7,0.6-1.2v-0.1c0-0.3-0.1-0.7-0.4-1c-0.3-0.3-0.7-0.5-1.1-0.5h-0.1C137.7,154,137.4,154.1,137.1,154.4 M137,162
		L137,162l0,14.8h0h2.2h0V162h0H137z M123.2,166.2c1.1-1.4,2.4-2.1,3.9-2.1c0.9,0,1.7,0.2,2.5,0.8c1,0.6,1.8,1.6,2.2,3h-9.3
		C122.6,167.2,122.9,166.7,123.2,166.2 M122.3,163.9c-1.5,1.6-2.2,3.4-2.2,5.5v0.1c0,1.6,0.5,3.2,1.5,4.6c1.5,1.9,3.4,2.8,5.6,2.8
		c1.8,0,3.5-0.7,4.9-2.1c0.8-0.9,1.3-1.6,1.5-2.3c-0.5-0.2-1.1-0.5-2-0.9h-0.1c-0.1,0.3-0.3,0.7-0.7,1.2c-1.1,1.2-2.3,1.9-3.7,1.9
		c-0.5,0-1-0.1-1.5-0.3c-1.2-0.4-2.1-1.2-2.7-2.4c-0.4-0.9-0.6-1.6-0.6-2.1h11.9c0.1,0,0.1-0.2,0.1-0.7v-0.2c0-1.4-0.5-2.9-1.5-4.3
		c-1.5-1.9-3.4-2.9-5.5-2.9C125.3,161.8,123.7,162.5,122.3,163.9 M104.7,162h-2.5h0v2.2c0,0,0,0,0,0h2.5v8.4c0,0.6,0.1,1.2,0.3,1.8
		c0.3,0.9,0.9,1.5,1.7,1.9c0.6,0.3,1.2,0.5,1.8,0.5h0.2c0.4,0,1-0.1,1.8-0.3c0.4-0.1,0.7-0.3,0.9-0.3c-0.1-0.2-0.4-0.8-0.9-2
		c-0.1,0-0.2,0.1-0.2,0.1c-0.7,0.3-1.2,0.4-1.6,0.4h-0.1c-0.1,0-0.3,0-0.5-0.1c-0.4-0.1-0.6-0.3-0.9-0.6c-0.2-0.4-0.3-0.8-0.3-1.2
		v-8.6h4.1v0V162h-4.1v-8h-2.2V162z M90.6,166.2c1.1-1.4,2.4-2.1,3.9-2.1c0.9,0,1.7,0.2,2.5,0.8c1,0.6,1.8,1.6,2.2,3h-9.3
		C90,167.2,90.2,166.7,90.6,166.2 M89.6,163.9c-1.5,1.6-2.2,3.4-2.2,5.5v0.1c0,1.6,0.5,3.2,1.5,4.6c1.5,1.9,3.4,2.8,5.6,2.8
		c1.8,0,3.5-0.7,4.9-2.1c0.8-0.9,1.3-1.6,1.5-2.3c-0.5-0.2-1.1-0.5-2-0.9h-0.1c-0.1,0.3-0.3,0.7-0.7,1.2c-1.1,1.2-2.3,1.9-3.7,1.9
		c-0.5,0-1-0.1-1.5-0.3c-1.2-0.4-2.1-1.2-2.7-2.4c-0.4-0.9-0.6-1.6-0.6-2.1h11.9c0.1,0,0.1-0.2,0.1-0.7v-0.2c0-1.4-0.5-2.9-1.5-4.3
		c-1.5-1.9-3.4-2.9-5.5-2.9C92.7,161.8,91,162.5,89.6,163.9 M80.2,162h-2.5h0v2.2c0,0,0,0,0,0h2.5v8.4c0,0.6,0.1,1.2,0.3,1.8
		c0.3,0.9,0.9,1.5,1.7,1.9c0.6,0.3,1.2,0.5,1.8,0.5h0.2c0.4,0,1-0.1,1.8-0.3c0.4-0.1,0.7-0.3,0.9-0.3c-0.1-0.2-0.4-0.8-0.9-2
		c-0.1,0-0.2,0.1-0.2,0.1c-0.7,0.3-1.2,0.4-1.6,0.4H84c-0.1,0-0.3,0-0.5-0.1c-0.4-0.1-0.6-0.3-0.9-0.6c-0.2-0.4-0.3-0.8-0.3-1.2
		v-8.6h4.1v0V162h-4.1v-8h-2.2V162z M73.5,154L73.5,154l0,22.9h0h2.2h0V154h0H73.5z M57.8,167.2c1-2.1,2.6-3.1,4.8-3.1
		c1.6,0,3,0.8,3.9,2.3c0.6,1,0.8,1.9,0.8,2.8v0.3c0,0.6-0.1,1.3-0.3,2c-0.9,2.2-2.4,3.3-4.7,3.3c-1.1,0-2-0.3-2.9-1
		c-1.4-1.1-2.1-2.6-2.1-4.3v-0.1C57.3,168.6,57.5,167.9,57.8,167.2 M57.2,164.1c-1.4,1.5-2.1,3.3-2.1,5.2v0.2c0,1.8,0.6,3.5,1.9,5.1
		c1.5,1.6,3.3,2.4,5.3,2.4h0c2.3,0,4-0.9,5.1-2.6v2.4c0,0,0,0,0.1,0h2.1c0,0,0,0,0.1,0V162c0,0-0.1,0-0.1-0.1h-2.1
		c0,0,0,0.1-0.1,0.1v2.4c0,0,0-0.1,0-0.1c-1.2-1.7-2.9-2.5-4.9-2.5C60.5,161.8,58.7,162.6,57.2,164.1 M39.3,154v22.8l0.1,0h2.1
		c0,0,0,0,0.1,0v-9.2c0-0.6,0.1-1.1,0.3-1.6c0.7-1.2,1.9-1.8,3.6-1.8h0.6c0.5,0,0.9,0,1.2,0.1c1.9,0.4,2.8,1.5,2.8,3.2v9.3l0.1,0
		h2.1c0,0,0,0,0,0v-9.4c0-0.8-0.1-1.5-0.4-2.2c-1-2.2-3-3.3-6.1-3.3c-1.7,0-3.1,0.6-4.3,1.7V154l-0.1,0L39.3,154
		C39.4,154,39.3,154,39.3,154 M32.4,162.1c-0.9,0.3-1.6,0.7-2,1.3v-1.3l-0.1,0h-2.1c0,0,0,0-0.1,0v14.6l0.1,0h2.1c0,0,0,0,0.1,0
		v-9.1c0-0.4,0.1-0.8,0.2-1.2c0.7-1.6,1.9-2.4,3.7-2.4c0.8,0,1.6,0.3,2.6,0.8c0.2-1,0.4-1.8,0.5-2.3c-0.8-0.5-1.8-0.8-2.9-0.8
		C33.7,161.9,33.1,162,32.4,162.1 M14.4,166.2c1.1-1.4,2.4-2.1,3.9-2.1c0.9,0,1.7,0.2,2.5,0.8c1,0.6,1.8,1.6,2.2,3h-9.3
		C13.8,167.2,14.1,166.7,14.4,166.2 M13.5,163.9c-1.5,1.6-2.2,3.4-2.2,5.5v0.1c0,1.6,0.5,3.2,1.5,4.6c1.5,1.9,3.4,2.8,5.6,2.8
		c1.8,0,3.5-0.7,4.9-2.1c0.8-0.9,1.3-1.6,1.5-2.3c-0.5-0.2-1.1-0.5-2-0.9h-0.1c-0.1,0.3-0.3,0.7-0.7,1.2c-1.1,1.2-2.3,1.9-3.7,1.9
		c-0.5,0-1-0.1-1.5-0.3c-1.2-0.4-2.1-1.2-2.7-2.4c-0.4-0.9-0.6-1.6-0.6-2.1h11.9c0.1,0,0.1-0.2,0.1-0.7v-0.2c0-1.4-0.5-2.9-1.5-4.3
		c-1.5-1.9-3.4-2.9-5.5-2.9C16.5,161.8,14.9,162.5,13.5,163.9"/>
	<path class="st0" d="M528.5,128.8c1-2.1,2.6-3.1,4.8-3.1c1.6,0,2.9,0.8,3.9,2.3c0.6,1,0.9,1.9,0.9,2.8v0.3c0,0.6-0.1,1.3-0.4,2
		c-0.9,2.2-2.4,3.3-4.7,3.3c-1.1,0-2.1-0.3-2.9-1c-1.4-1.1-2.1-2.6-2.1-4.3v-0.1C528.1,130.2,528.2,129.5,528.5,128.8 M538.3,115.6
		v10.5h0c0,0,0-0.1-0.1-0.1c-1.2-1.7-2.8-2.5-4.9-2.5c-2,0-3.8,0.8-5.2,2.2c-1.4,1.5-2.1,3.3-2.1,5.2v0.2c0,1.8,0.6,3.5,1.9,5.1
		c1.5,1.6,3.3,2.4,5.3,2.4h0c2.3,0,4-0.9,5.1-2.6h0v2.4v0h2.1l0,0v-22.8l0,0L538.3,115.6L538.3,115.6z M512.3,125.3v-1.5l-0.1,0
		h-2.1c0,0,0,0-0.1,0v14.6l0.1,0h2.1c0,0,0,0,0.1,0v-9.2c0-1.2,0.4-2.1,1.2-2.6c0.6-0.5,1.6-0.8,2.9-0.8c1.1,0,1.8,0.1,2.2,0.2
		c1.6,0.5,2.3,1.6,2.3,3.1v9.3c0,0,0,0,0.1,0h2.1c0,0,0,0,0.1,0v-9.3c0-0.8-0.1-1.5-0.4-2.1c-1-2.2-3-3.3-5.9-3.3h-0.3
		C514.8,123.6,513.4,124.2,512.3,125.3 M493.2,123.7v9.4c0,1.7,0.7,3.1,2.1,4.2c1,0.8,2.5,1.2,4.3,1.2c1.8,0,3.2-0.6,4.3-1.7v1.5
		l0,0h2.1l0,0v-14.5l0-0.1h-2.1c0,0,0,0,0,0.1v9.2c0,0.5-0.1,0.9-0.2,1.4c-0.2,0.7-0.8,1.2-1.6,1.6c-0.5,0.3-1.3,0.4-2.4,0.4
		c-0.8,0-1.4-0.1-1.8-0.2c-1.8-0.4-2.6-1.5-2.6-3.1v-9.3l0-0.1L493.2,123.7C493.3,123.6,493.2,123.6,493.2,123.7 M478.8,123.7
		c-0.9,0.3-1.6,0.7-2,1.3v-1.3l-0.1,0h-2.1c0,0,0,0-0.1,0v14.6l0.1,0h2.1c0,0,0,0,0.1,0v-9.1c0-0.4,0.1-0.8,0.2-1.2
		c0.7-1.6,1.9-2.4,3.7-2.4c0.8,0,1.6,0.3,2.6,0.8c0.2-1,0.4-1.8,0.5-2.3c-0.8-0.5-1.8-0.8-2.9-0.8
		C480.1,123.5,479.5,123.6,478.8,123.7 M460.8,127.3c1.1-1.1,2.2-1.6,3.5-1.6h0.2c1.1,0,2.2,0.4,3.2,1.2c1.2,1.1,1.8,2.5,1.8,4.1
		c0,1.1-0.3,2.2-1,3.2c-1.1,1.5-2.4,2.2-4,2.2c-1.2,0-2.4-0.5-3.4-1.4c-1.1-1.1-1.7-2.4-1.7-3.9V131
		C459.4,129.6,459.9,128.4,460.8,127.3 M459.5,125.5c-1.5,1.6-2.3,3.4-2.3,5.5v0.2c0,2.1,0.8,3.9,2.3,5.5c1.5,1.3,3.1,2,4.9,2
		c1.7,0,3.2-0.6,4.6-1.8c1.7-1.6,2.6-3.6,2.6-5.8c0-2.2-0.8-4.1-2.5-5.7c-1.4-1.2-3-1.9-4.6-1.9h-0.4
		C462.6,123.5,461,124.1,459.5,125.5 M441.7,123.6c2.6,6.1,4.6,10.6,6,13.6c0.3,0.8,0.5,1.2,0.5,1.2h2.1c3.2-7.4,5.4-12.3,6.5-14.8
		l0-0.1h-2.4c-1.2,2.9-2.2,5-2.8,6.4c-1.5,3.5-2.3,5.3-2.3,5.3c-3.4-7.8-5.1-11.7-5.1-11.7H441.7z M423.1,117.8
		c-0.2,0.1-0.5,0.3-0.8,0.6c-0.3,0.4-0.6,0.6-0.7,0.8c-0.8,1.1-1.1,2.2-1.1,3.5v0.2h2.2v-0.1c0-1.2,0.4-2.2,1.3-2.9
		c0.7-0.6,1.5-0.9,2.3-0.9h0c0.8,0,1.5,0.2,2.1,0.7c0.1,0.1,0.3,0.2,0.6,0.5c0.6,0.8,0.9,1.6,0.9,2.5c0,0.6-0.1,1.1-0.4,1.6
		c-0.1,0.2-0.3,0.5-0.6,0.9c-0.2,0.2-0.4,0.4-0.6,0.5c-0.3,0.2-0.6,0.4-1,0.5c-0.3,0.1-0.6,0.1-0.9,0.2h-2v0v2.2h1.6
		c0.7,0,1.3,0.2,2,0.5c0.2,0.1,0.4,0.3,0.7,0.5c0.2,0.1,0.4,0.3,0.7,0.7c0.7,0.8,1,1.8,1,2.8c0,0.9-0.3,1.8-0.9,2.6
		c-0.1,0.2-0.3,0.4-0.7,0.7c-0.9,0.7-1.8,1-2.8,1h0c-1,0-1.9-0.3-2.8-1c-0.2-0.1-0.4-0.3-0.6-0.6c-0.7-0.8-1-1.8-1-2.8h0h-2.2h0v0.1
		c0,0.7,0.1,1.4,0.4,2.2c0.2,0.4,0.4,0.8,0.5,1c0.1,0.2,0.3,0.5,0.6,0.8c0.2,0.2,0.5,0.5,0.9,0.9c0.4,0.3,0.8,0.6,1.1,0.8
		c1,0.5,2,0.8,3,0.8h0.2c1.1,0,2.2-0.3,3.3-0.9c0.3-0.1,0.6-0.4,1-0.8c0.3-0.3,0.5-0.5,0.7-0.7c1-1.2,1.5-2.6,1.5-4.1
		c0-1.5-0.4-2.8-1.3-4c-0.2-0.2-0.4-0.5-0.8-0.8c-0.4-0.3-0.7-0.6-0.9-0.7c0,0,0.1,0,0.2-0.1c0.2-0.2,0.5-0.4,0.8-0.8
		c0.9-1.1,1.4-2.4,1.4-3.8v-0.1c0-0.9-0.2-1.8-0.7-2.7c-0.1-0.3-0.4-0.6-0.7-1c-0.1-0.2-0.3-0.4-0.7-0.7c-1.1-1-2.4-1.5-3.9-1.5
		C425.2,116.8,424.1,117.2,423.1,117.8 M407.1,118.7c-0.3,0.3-0.5,0.6-0.7,0.8c-0.3,0.4-0.5,0.9-0.7,1.5c-0.3,0.9-0.4,1.7-0.4,2.4
		v0.1h2.2c0-0.2,0-0.4,0.1-0.8c0.1-0.5,0.2-0.9,0.3-1.2c0.6-1.7,1.9-2.5,3.7-2.5h0.1c1.3,0,2.3,0.5,3,1.5c0.6,0.9,0.9,1.9,0.9,2.9
		c0,0.6-0.1,1.2-0.4,1.7c-0.9,1.1-1.6,1.8-1.9,2.2c-1.9,2.2-3.1,3.6-3.7,4.3c-1.8,2-3.1,3.5-3.9,4.5c-0.1,0.1-0.2,0.2-0.2,0.2v2.3
		h12.2v-2.2h-9.4c0.3-0.4,0.6-0.7,0.7-0.8c2.1-2.4,3.4-4,4.1-4.8c1.7-2,3-3.5,3.9-4.5c0.5-0.9,0.8-1.9,0.8-3c0-0.8-0.1-1.5-0.4-2.2
		c-0.2-0.7-0.5-1.3-0.9-1.8c-1.2-1.7-2.9-2.6-5-2.6C409.7,116.8,408.2,117.4,407.1,118.7 M389.5,121.9c1.4-1.9,3.1-2.8,5-2.8
		c1.9,0,3.5,0.9,4.9,2.8c1.2,1.8,1.8,3.7,1.8,5.9c0,2.1-0.6,4-1.8,5.8c-1.4,1.9-3.1,2.8-5,2.8c-1.8,0-3.3-0.8-4.7-2.5
		c-1.3-1.8-2-3.8-2-6v-0.2C387.7,125.5,388.3,123.6,389.5,121.9 M388.1,120.1c-1.7,2.2-2.6,4.7-2.6,7.5v0.2c0,2.8,0.8,5.2,2.5,7.4
		c1.8,2.2,3.9,3.3,6.4,3.3c2.2,0,4.2-0.9,5.9-2.7c2-2.3,3-4.9,3-8c0-3.1-1-5.8-3-8.1c-1.8-1.8-3.7-2.7-5.8-2.7h-0.2
		C392,116.9,390,118,388.1,120.1 M372.8,118.7c-0.3,0.3-0.5,0.6-0.7,0.8c-0.3,0.4-0.5,0.9-0.7,1.5c-0.3,0.9-0.4,1.7-0.4,2.4v0.1h2.2
		c0-0.2,0-0.4,0.1-0.8c0.1-0.5,0.2-0.9,0.3-1.2c0.6-1.7,1.9-2.5,3.7-2.5h0.1c1.3,0,2.3,0.5,3,1.5c0.6,0.9,0.9,1.9,0.9,2.9
		c0,0.6-0.1,1.2-0.4,1.7c-0.9,1.1-1.6,1.8-1.9,2.2c-1.9,2.2-3.1,3.6-3.7,4.3c-1.8,2-3.1,3.5-3.9,4.5c-0.1,0.1-0.2,0.2-0.2,0.2v2.3
		h12.2v-2.2h-9.4c0.3-0.4,0.6-0.7,0.7-0.8c2.1-2.4,3.4-4,4.1-4.8c1.7-2,3-3.5,3.9-4.5c0.5-0.9,0.8-1.9,0.8-3c0-0.8-0.1-1.5-0.4-2.2
		c-0.2-0.7-0.5-1.3-0.9-1.8c-1.2-1.7-2.9-2.6-5-2.6C375.5,116.8,374,117.4,372.8,118.7 M365.2,135.7c-0.3,0.3-0.5,0.7-0.5,1.1v0.1
		c0,0.4,0.2,0.7,0.5,1.1c0.3,0.3,0.7,0.4,1.1,0.4c0.4,0,0.7-0.1,1-0.4c0.4-0.3,0.6-0.7,0.6-1.2v-0.1c0-0.3-0.1-0.7-0.4-1
		c-0.3-0.4-0.7-0.5-1.2-0.5h0C365.8,135.3,365.5,135.4,365.2,135.7 M356.1,117.2c-0.2,0.4-0.4,0.7-0.4,0.8c-1.2,2.2-2.1,3.6-2.5,4.4
		c-1.9,3.3-3.1,5.5-3.8,6.6c-1.7,3-2.8,4.9-3.3,5.9h10.2v3.6h2.2v-3.6h3h0v-2.2h-3v-15.5v0H356.1z M356.2,132.8h-6.4
		c1.6-2.9,2.7-4.9,3.3-5.8c1.6-2.8,2.6-4.6,3.1-5.5V132.8z M331.5,121.9c1.4-1.9,3.1-2.8,5-2.8c1.9,0,3.5,0.9,4.9,2.8
		c1.2,1.8,1.8,3.7,1.8,5.9c0,2.1-0.6,4-1.8,5.8c-1.4,1.9-3.1,2.8-5,2.8c-1.8,0-3.3-0.8-4.7-2.5c-1.3-1.8-2-3.8-2-6v-0.2
		C329.8,125.5,330.4,123.6,331.5,121.9 M330.2,120.1c-1.7,2.2-2.6,4.7-2.6,7.5v0.2c0,2.8,0.8,5.2,2.5,7.4c1.8,2.2,3.9,3.3,6.4,3.3
		c2.2,0,4.2-0.9,5.9-2.7c2-2.3,3-4.9,3-8c0-3.1-1-5.8-3-8.1c-1.8-1.8-3.7-2.7-5.8-2.7h-0.2C334.1,116.9,332,118,330.2,120.1
		 M322.8,135.7c-0.3,0.3-0.5,0.7-0.5,1.1v0.1c0,0.4,0.2,0.7,0.5,1.1c0.3,0.3,0.7,0.4,1.1,0.4c0.4,0,0.7-0.1,1-0.4
		c0.4-0.3,0.6-0.7,0.6-1.2v-0.1c0-0.3-0.1-0.7-0.4-1c-0.3-0.4-0.7-0.5-1.2-0.5h0C323.5,135.3,323.1,135.4,322.8,135.7 M309.2,117.8
		c-0.2,0.1-0.5,0.3-0.8,0.6c-0.3,0.4-0.6,0.6-0.7,0.8c-0.8,1.1-1.1,2.2-1.1,3.5v0.2h2.2v-0.1c0-1.2,0.4-2.2,1.3-2.9
		c0.7-0.6,1.5-0.9,2.3-0.9h0c0.8,0,1.5,0.2,2.1,0.7c0.1,0.1,0.3,0.2,0.6,0.5c0.6,0.8,0.9,1.6,0.9,2.5c0,0.6-0.1,1.1-0.4,1.6
		c-0.1,0.2-0.3,0.5-0.6,0.9c-0.2,0.2-0.4,0.4-0.6,0.5c-0.3,0.2-0.6,0.4-1,0.5c-0.3,0.1-0.6,0.1-0.9,0.2h-2v0v2.2h1.6
		c0.7,0,1.3,0.2,2,0.5c0.2,0.1,0.4,0.3,0.7,0.5c0.2,0.1,0.4,0.3,0.7,0.7c0.7,0.8,1,1.8,1,2.8c0,0.9-0.3,1.8-0.9,2.6
		c-0.1,0.2-0.3,0.4-0.7,0.7c-0.9,0.7-1.8,1-2.8,1h0c-1,0-1.9-0.3-2.8-1c-0.2-0.1-0.4-0.3-0.6-0.6c-0.7-0.8-1-1.8-1-2.8h0h-2.2h0v0.1
		c0,0.7,0.1,1.4,0.4,2.2c0.2,0.4,0.4,0.8,0.5,1c0.1,0.2,0.3,0.5,0.6,0.8c0.2,0.2,0.5,0.5,0.9,0.9c0.4,0.3,0.8,0.6,1.1,0.8
		c1,0.5,2,0.8,3,0.8h0.2c1.1,0,2.2-0.3,3.3-0.9c0.3-0.1,0.6-0.4,1-0.8c0.3-0.3,0.5-0.5,0.7-0.7c1-1.2,1.5-2.6,1.5-4.1
		c0-1.5-0.4-2.8-1.3-4c-0.2-0.2-0.4-0.5-0.8-0.8c-0.4-0.3-0.7-0.6-0.9-0.7c0,0,0.1,0,0.2-0.1c0.2-0.2,0.5-0.4,0.8-0.8
		c0.9-1.1,1.4-2.4,1.4-3.8v-0.1c0-0.9-0.2-1.8-0.7-2.7c-0.1-0.3-0.4-0.6-0.7-1c-0.1-0.2-0.3-0.4-0.7-0.7c-1.1-1-2.4-1.5-3.9-1.5
		C311.3,116.8,310.3,117.2,309.2,117.8 M290.1,121.9c1.4-1.9,3.1-2.8,5-2.8c1.9,0,3.5,0.9,4.9,2.8c1.2,1.8,1.8,3.7,1.8,5.9
		c0,2.1-0.6,4-1.8,5.8c-1.4,1.9-3.1,2.8-5,2.8c-1.8,0-3.3-0.8-4.7-2.5c-1.3-1.8-2-3.8-2-6v-0.2C288.4,125.5,288.9,123.6,290.1,121.9
		 M288.8,120.1c-1.7,2.2-2.6,4.7-2.6,7.5v0.2c0,2.8,0.8,5.2,2.5,7.4c1.8,2.2,3.9,3.3,6.4,3.3c2.2,0,4.2-0.9,5.9-2.7c2-2.3,3-4.9,3-8
		c0-3.1-1-5.8-3-8.1c-1.8-1.8-3.7-2.7-5.8-2.7H295C292.7,116.9,290.6,118,288.8,120.1 M268.8,123.7c-0.6,0.2-1.2,0.4-1.6,0.8
		c-0.1,0.1-0.4,0.3-0.7,0.6c-0.7,0.8-1.1,1.7-1.1,2.6v0.1c0,1.6,1,2.7,2.9,3.4c0.9,0.3,2.2,0.6,3.9,0.9c0.4,0.1,0.7,0.2,0.9,0.3
		c0.9,0.4,1.3,1,1.3,1.7c0,0.4-0.2,0.9-0.5,1.2c-0.2,0.2-0.4,0.4-0.6,0.5c-0.7,0.4-1.5,0.6-2.4,0.6c-0.6,0-1.3-0.1-1.8-0.3
		c-0.9-0.4-1.6-0.9-2.1-1.8c-0.4,0.2-0.8,0.4-1,0.5c-0.6,0.3-0.9,0.5-0.9,0.5c0.6,1,1.4,1.8,2.4,2.4c1.1,0.6,2.2,0.8,3.3,0.8h0.2
		c1.1,0,2.1-0.2,3.1-0.7c0.3-0.1,0.6-0.3,0.9-0.6c0.1-0.1,0.4-0.3,0.6-0.6c0.7-0.8,1-1.7,1-2.6V134c0-0.9-0.3-1.7-0.9-2.4
		c-0.3-0.3-0.5-0.5-0.6-0.5c-0.3-0.2-0.6-0.4-0.9-0.6c-0.3-0.2-0.8-0.3-1.3-0.4c-0.8-0.1-1.4-0.3-2-0.4c-1.1-0.3-1.9-0.5-2.3-0.8
		c-0.2-0.1-0.4-0.2-0.5-0.3c-0.3-0.2-0.5-0.5-0.5-0.9c0-0.5,0.2-1,0.7-1.4c0.7-0.5,1.6-0.8,2.7-0.8c1,0,1.8,0.2,2.4,0.7
		c0.4,0.3,0.7,0.6,0.8,0.8h0c0.3-0.2,0.9-0.6,1.9-1.1c0,0-0.1-0.1-0.2-0.4c-0.2-0.2-0.4-0.5-0.8-0.8c-0.4-0.3-0.7-0.5-1-0.7
		c-1-0.5-2-0.8-3.1-0.8h-0.2C270.2,123.3,269.5,123.5,268.8,123.7 M260,116c-0.3,0.3-0.5,0.7-0.5,1.1v0.1c0,0.3,0.1,0.6,0.3,0.9
		c0.3,0.4,0.7,0.6,1.2,0.6h0.1c0.3,0,0.6-0.1,0.9-0.4c0.4-0.3,0.6-0.7,0.6-1.2v-0.1c0-0.3-0.1-0.7-0.4-1c-0.3-0.3-0.7-0.5-1.1-0.5
		H261C260.7,115.6,260.4,115.7,260,116 M260,123.6L260,123.6l0,14.8h0h2.2h0v-14.8h0H260z M245.2,128.7c1-2,2.4-3.1,4.3-3.1
		c1.3,0,2.4,0.4,3.3,1.2c1.3,1.2,1.9,2.5,1.9,4.1v0.2c0,0.9-0.3,1.9-0.8,2.9c-1.1,1.6-2.5,2.3-4.1,2.3c-1.2,0-2.2-0.3-3-0.9
		c-1.4-1.2-2.1-2.6-2.1-4.4v-0.2C244.8,130.2,244.9,129.5,245.2,128.7 M242.4,115.6v22.8l0.1,0h2.1c0,0,0,0,0.1,0V136
		c1.1,1.7,2.8,2.6,5.1,2.6h0.1c1,0,2-0.2,3-0.7c0.6-0.3,1.3-0.8,2.1-1.5c1.4-1.6,2.1-3.3,2.1-5.2v-0.3c0-1.4-0.4-2.8-1.3-4.1
		c-1.5-2.2-3.6-3.3-6.1-3.3c-1.4,0-2.6,0.4-3.6,1.2c-0.8,0.6-1.2,1.1-1.3,1.4v-10.5l-0.1,0L242.4,115.6
		C242.5,115.6,242.5,115.6,242.4,115.6 M218.1,115.6v22.8l0.1,0h2.1c0,0,0,0,0.1,0v-9.2c0-0.6,0.1-1.1,0.3-1.6
		c0.7-1.2,1.9-1.8,3.6-1.8h0.6c0.5,0,0.9,0,1.2,0.1c1.9,0.4,2.8,1.5,2.8,3.2v9.3l0.1,0h2.1c0,0,0,0,0,0V129c0-0.8-0.1-1.5-0.4-2.2
		c-1-2.2-3-3.3-6.1-3.3c-1.7,0-3.1,0.6-4.3,1.7v-9.7l-0.1,0L218.1,115.6C218.2,115.6,218.2,115.6,218.1,115.6 M204.8,125.5
		c-1.5,1.6-2.3,3.4-2.3,5.5v0.2c0,2.1,0.8,3.9,2.3,5.5c1.4,1.3,3.1,2,4.9,2c0.7,0,1.4-0.1,2.1-0.3c1.7-0.6,3-1.6,3.9-3
		c-0.9-0.6-1.6-1-1.9-1.2c-0.1,0.1-0.2,0.2-0.2,0.3c-1.1,1.4-2.4,2-3.9,2c-1.2,0-2.3-0.5-3.3-1.4c-1.1-1.1-1.7-2.5-1.7-3.9V131
		c0-1.4,0.5-2.6,1.4-3.8c1.1-1.1,2.2-1.6,3.5-1.6h0.2c0.4,0,0.9,0.1,1.3,0.2c1.2,0.4,2.1,1.1,2.8,2.1c0.8-0.5,1.4-0.9,1.8-1.2
		c-0.2-0.4-0.7-0.9-1.3-1.6c-1.4-1.1-2.9-1.7-4.4-1.7h-0.4C207.8,123.5,206.2,124.1,204.8,125.5 M186.6,123.7v9.4
		c0,1.7,0.7,3.1,2.1,4.2c1,0.8,2.5,1.2,4.3,1.2c1.8,0,3.2-0.6,4.3-1.7v1.5l0,0h2.1l0,0v-14.5l0-0.1h-2.1c0,0,0,0,0,0.1v9.2
		c0,0.5-0.1,0.9-0.2,1.4c-0.2,0.7-0.8,1.2-1.6,1.6c-0.5,0.3-1.3,0.4-2.4,0.4c-0.8,0-1.4-0.1-1.8-0.2c-1.8-0.4-2.6-1.5-2.6-3.1v-9.3
		l0-0.1L186.6,123.7C186.6,123.6,186.6,123.6,186.6,123.7 M176.8,127.6c0.6,0,1.2,0.1,1.7,0.2c1.9,0.6,2.8,1.8,2.8,3.5v0.8
		c0,1.6-0.6,2.8-1.7,3.5c-0.8,0.4-1.5,0.7-2.2,0.7c-2.7,0-4.5,0-5.4,0h-0.2v-8.7H176.8z M176.5,117.7c0.5,0,1,0.1,1.5,0.2
		c1.7,0.6,2.6,1.7,2.6,3.2v0.4c0,0.7-0.1,1.3-0.4,1.8c-0.8,1.4-2.1,2.1-3.8,2.1h-4.6v-7.7H176.5z M169.6,115.6v22.8c0,0,0,0,0.1,0
		h2.2h5.7c0.6,0,1.4-0.2,2.5-0.6c2.4-1.2,3.5-3.1,3.5-5.7v-0.8c0-1.3-0.3-2.4-1-3.3c-0.7-0.9-1.3-1.5-2-1.8c1.5-1.2,2.3-2.8,2.3-4.7
		v-0.4c0-1.2-0.3-2.2-1-3.2c-1.3-1.6-3-2.4-5.2-2.4L169.6,115.6L169.6,115.6z M151.2,123.7c-0.6,0.2-1.2,0.4-1.6,0.8
		c-0.1,0.1-0.4,0.3-0.7,0.6c-0.7,0.8-1.1,1.7-1.1,2.6v0.1c0,1.6,1,2.7,2.9,3.4c0.9,0.3,2.2,0.6,3.9,0.9c0.4,0.1,0.7,0.2,0.9,0.3
		c0.9,0.4,1.3,1,1.3,1.7c0,0.4-0.2,0.9-0.5,1.2c-0.2,0.2-0.4,0.4-0.6,0.5c-0.7,0.4-1.5,0.6-2.4,0.6c-0.6,0-1.3-0.1-1.8-0.3
		c-0.9-0.4-1.6-0.9-2.1-1.8c-0.4,0.2-0.8,0.4-1,0.5c-0.6,0.3-0.9,0.5-0.9,0.5c0.6,1,1.4,1.8,2.4,2.4c1.1,0.6,2.2,0.8,3.3,0.8h0.2
		c1.1,0,2.1-0.2,3.1-0.7c0.3-0.1,0.6-0.3,0.9-0.6c0.1-0.1,0.4-0.3,0.6-0.6c0.7-0.8,1-1.7,1-2.6V134c0-0.9-0.3-1.7-0.9-2.4
		c-0.3-0.3-0.5-0.5-0.6-0.5c-0.3-0.2-0.6-0.4-0.9-0.6c-0.3-0.2-0.8-0.3-1.3-0.4c-0.8-0.1-1.4-0.3-2-0.4c-1.1-0.3-1.9-0.5-2.3-0.8
		c-0.2-0.1-0.4-0.2-0.5-0.3c-0.3-0.2-0.5-0.5-0.5-0.9c0-0.5,0.2-1,0.7-1.4c0.7-0.5,1.6-0.8,2.7-0.8c1,0,1.8,0.2,2.4,0.7
		c0.4,0.3,0.7,0.6,0.8,0.8h0c0.3-0.2,0.9-0.6,1.9-1.1c0,0-0.1-0.1-0.2-0.4c-0.2-0.2-0.4-0.5-0.8-0.8c-0.4-0.3-0.7-0.5-1-0.7
		c-1-0.5-2-0.8-3.1-0.8h-0.2C152.5,123.3,151.8,123.5,151.2,123.7 M132.7,128.8c1-2.1,2.6-3.1,4.8-3.1c1.6,0,3,0.8,3.9,2.3
		c0.6,1,0.8,1.9,0.8,2.8v0.3c0,0.6-0.1,1.3-0.3,2c-0.9,2.2-2.4,3.3-4.7,3.3c-1.1,0-2-0.3-2.9-1c-1.4-1.1-2.1-2.6-2.1-4.3v-0.1
		C132.3,130.2,132.4,129.5,132.7,128.8 M132.2,125.7c-1.4,1.5-2.1,3.3-2.1,5.2v0.2c0,1.8,0.6,3.5,1.9,5.1c1.5,1.6,3.3,2.4,5.3,2.4h0
		c2.3,0,4-0.9,5.1-2.6v2.4c0,0,0,0,0.1,0h2.1c0,0,0,0,0.1,0v-14.8c0,0-0.1,0-0.1-0.1h-2.1c0,0,0,0.1-0.1,0.1v2.4c0,0,0-0.1,0-0.1
		c-1.2-1.7-2.9-2.5-4.9-2.5C135.4,123.4,133.7,124.2,132.2,125.7 M115.3,128.8c1-2.1,2.6-3.1,4.8-3.1c1.6,0,2.9,0.8,3.9,2.3
		c0.6,1,0.9,1.9,0.9,2.8v0.3c0,0.6-0.1,1.3-0.4,2c-0.9,2.2-2.4,3.3-4.7,3.3c-1.1,0-2.1-0.3-2.9-1c-1.4-1.1-2.1-2.6-2.1-4.3v-0.1
		C114.8,130.2,115,129.5,115.3,128.8 M125,115.6v10.5h0c0,0,0-0.1-0.1-0.1c-1.2-1.7-2.8-2.5-4.9-2.5c-2,0-3.8,0.8-5.2,2.2
		c-1.4,1.5-2.1,3.3-2.1,5.2v0.2c0,1.8,0.6,3.5,1.9,5.1c1.5,1.6,3.3,2.4,5.3,2.4h0c2.3,0,4-0.9,5.1-2.6h0v2.4v0h2.1l0,0v-22.8l0,0
		L125,115.6L125,115.6z M96.9,123.6h-2.5h0v2.2c0,0,0,0,0,0h2.5v8.4c0,0.6,0.1,1.2,0.3,1.8c0.3,0.9,0.9,1.5,1.7,1.9
		c0.6,0.3,1.2,0.5,1.8,0.5h0.2c0.4,0,1-0.1,1.8-0.3c0.4-0.1,0.7-0.3,0.9-0.3c-0.1-0.2-0.4-0.8-0.9-2c-0.1,0-0.2,0.1-0.2,0.1
		c-0.7,0.3-1.2,0.4-1.6,0.4h-0.1c-0.1,0-0.3,0-0.5-0.1c-0.4-0.1-0.6-0.3-0.9-0.6c-0.2-0.4-0.3-0.8-0.3-1.2v-8.6h4.1v0v-2.2H99v-8
		h-2.2V123.6z M90.2,115.6L90.2,115.6l0,22.9h0h2.2h0v-22.9h0H90.2z M84.1,115.6L84.1,115.6l0,22.9h0h2.2h0v-22.9h0H84.1z
		 M70.3,127.8c1.1-1.4,2.4-2.1,3.9-2.1c0.9,0,1.7,0.2,2.5,0.8c1,0.6,1.8,1.6,2.2,3h-9.3C69.7,128.8,70,128.3,70.3,127.8 M69.4,125.5
		c-1.5,1.6-2.2,3.4-2.2,5.5v0.1c0,1.6,0.5,3.2,1.5,4.6c1.5,1.9,3.4,2.8,5.6,2.8c1.8,0,3.5-0.7,4.9-2.1c0.8-0.9,1.3-1.6,1.5-2.3
		c-0.5-0.2-1.1-0.5-2-0.9h-0.1c-0.1,0.3-0.3,0.7-0.7,1.2c-1.1,1.2-2.3,1.9-3.7,1.9c-0.5,0-1-0.1-1.5-0.3c-1.2-0.4-2.1-1.2-2.7-2.4
		c-0.4-0.9-0.6-1.6-0.6-2.1h11.9c0.1,0,0.1-0.2,0.1-0.7v-0.2c0-1.4-0.5-2.9-1.5-4.3c-1.5-1.9-3.4-2.9-5.5-2.9
		C72.4,123.4,70.8,124.1,69.4,125.5 M59.9,123.6h-2.5h0v2.2c0,0,0,0,0,0h2.5v8.4c0,0.6,0.1,1.2,0.3,1.8c0.3,0.9,0.9,1.5,1.7,1.9
		c0.6,0.3,1.2,0.5,1.8,0.5h0.2c0.4,0,1-0.1,1.8-0.3c0.4-0.1,0.7-0.3,0.9-0.3c-0.1-0.2-0.4-0.8-0.9-2c-0.1,0-0.2,0.1-0.2,0.1
		c-0.7,0.3-1.2,0.4-1.6,0.4h-0.1c-0.1,0-0.3,0-0.5-0.1c-0.4-0.1-0.6-0.3-0.9-0.6c-0.2-0.4-0.3-0.8-0.3-1.2v-8.6h4.1v0v-2.2h-4.1v-8
		h-2.2V123.6z M48.4,123.7c-0.6,0.2-1.2,0.4-1.6,0.8c-0.1,0.1-0.4,0.3-0.7,0.6c-0.7,0.8-1.1,1.7-1.1,2.6v0.1c0,1.6,1,2.7,2.9,3.4
		c0.9,0.3,2.2,0.6,3.9,0.9c0.4,0.1,0.7,0.2,0.9,0.3c0.9,0.4,1.3,1,1.3,1.7c0,0.4-0.2,0.9-0.5,1.2c-0.2,0.2-0.4,0.4-0.6,0.5
		c-0.7,0.4-1.5,0.6-2.4,0.6c-0.6,0-1.3-0.1-1.8-0.3c-0.9-0.4-1.6-0.9-2.1-1.8c-0.4,0.2-0.8,0.4-1,0.5c-0.6,0.3-0.9,0.5-0.9,0.5
		c0.6,1,1.4,1.8,2.4,2.4c1.1,0.6,2.2,0.8,3.3,0.8h0.2c1.1,0,2.1-0.2,3.1-0.7c0.3-0.1,0.6-0.3,0.9-0.6c0.1-0.1,0.4-0.3,0.6-0.6
		c0.7-0.8,1-1.7,1-2.6V134c0-0.9-0.3-1.7-0.9-2.4c-0.3-0.3-0.5-0.5-0.6-0.5c-0.3-0.2-0.6-0.4-0.9-0.6c-0.3-0.2-0.8-0.3-1.3-0.4
		c-0.8-0.1-1.4-0.3-2-0.4c-1.1-0.3-1.9-0.5-2.3-0.8c-0.2-0.1-0.4-0.2-0.5-0.3c-0.3-0.2-0.5-0.5-0.5-0.9c0-0.5,0.2-1,0.7-1.4
		c0.7-0.5,1.6-0.8,2.7-0.8c1,0,1.8,0.2,2.4,0.7c0.4,0.3,0.7,0.6,0.8,0.8h0c0.3-0.2,0.9-0.6,1.9-1.1c0,0-0.1-0.1-0.2-0.4
		c-0.2-0.2-0.4-0.5-0.8-0.8c-0.4-0.3-0.7-0.5-1-0.7c-1-0.5-2-0.8-3.1-0.8h-0.2C49.8,123.3,49.1,123.5,48.4,123.7 M32.1,127.8
		c1.1-1.4,2.4-2.1,3.9-2.1c0.9,0,1.7,0.2,2.5,0.8c1,0.6,1.8,1.6,2.2,3h-9.3C31.5,128.8,31.8,128.3,32.1,127.8 M31.2,125.5
		c-1.5,1.6-2.2,3.4-2.2,5.5v0.1c0,1.6,0.5,3.2,1.5,4.6c1.5,1.9,3.4,2.8,5.6,2.8c1.8,0,3.5-0.7,4.9-2.1c0.8-0.9,1.3-1.6,1.5-2.3
		c-0.5-0.2-1.1-0.5-2-0.9h-0.1c-0.1,0.3-0.3,0.7-0.7,1.2c-1.1,1.2-2.3,1.9-3.7,1.9c-0.5,0-1-0.1-1.5-0.3c-1.2-0.4-2.1-1.2-2.7-2.4
		c-0.4-0.9-0.6-1.6-0.6-2.1H43c0.1,0,0.1-0.2,0.1-0.7v-0.2c0-1.4-0.5-2.9-1.5-4.3c-1.5-1.9-3.4-2.9-5.5-2.9
		C34.2,123.4,32.6,124.1,31.2,125.5 M20.1,127.6c0.6,0,1.2,0.1,1.7,0.2c1.9,0.6,2.8,1.8,2.8,3.5v0.8c0,1.6-0.6,2.8-1.7,3.5
		c-0.8,0.4-1.5,0.7-2.2,0.7c-2.7,0-4.5,0-5.4,0h-0.2v-8.7H20.1z M19.8,117.7c0.5,0,1,0.1,1.5,0.2c1.7,0.6,2.6,1.7,2.6,3.2v0.4
		c0,0.7-0.1,1.3-0.4,1.8c-0.8,1.4-2.1,2.1-3.8,2.1h-4.6v-7.7H19.8z M12.9,115.6v22.8c0,0,0,0,0.1,0h2.2h5.7c0.6,0,1.4-0.2,2.5-0.6
		c2.4-1.2,3.5-3.1,3.5-5.7v-0.8c0-1.3-0.3-2.4-1-3.3c-0.7-0.9-1.3-1.5-2-1.8c1.5-1.2,2.3-2.8,2.3-4.7v-0.4c0-1.2-0.3-2.2-1-3.2
		c-1.3-1.6-3-2.4-5.3-2.4L12.9,115.6L12.9,115.6z"/>
</g>
</svg>
