<?xml version="1.0" encoding="utf-8"?>
<!-- Generator: Adobe Illustrator 27.1.1, SVG Export Plug-In . SVG Version: 6.00 Build 0)  -->
<svg version="1.1" id="Ebene_1" xmlns="http://www.w3.org/2000/svg" xmlns:xlink="http://www.w3.org/1999/xlink" x="0px" y="0px"
	 viewBox="0 0 169 52" style="enable-background:new 0 0 169 52;" xml:space="preserve">
<style type="text/css">
	.st0{fill:#FFFFFF;}
</style>
<g>
	<g>
		<path class="st0" d="M143,51.9H25.7C11.5,51.9,0,40.3,0,26.1S11.5,0.4,25.7,0.4H143c14.2,0,25.8,11.6,25.8,25.8
			S157.2,51.9,143,51.9z M25.7,2.4C12.6,2.4,2,13,2,26.1s10.7,23.8,23.8,23.8H143c13.1,0,23.8-10.7,23.8-23.8S156.1,2.4,143,2.4
			H25.7z"/>
	</g>
</g>
<g>
	<path class="st0" d="M47.3,10.9c0.2,0,0.7,0,1.5,0l0,0c0,1,0,2.9,0,5.9c0.1-0.1,1.8-2,5.1-5.9c0,0,0,0,0,0c0.3,0,1,0,2,0l0,0
		c-0.8,0.9-2.4,2.7-4.8,5.5c0.8,1,2.4,3,4.8,5.9v0c-0.3,0-1,0-2,0c-0.6-0.8-1.9-2.4-3.8-4.8c-0.2,0.3-0.7,0.8-1.3,1.5
		c0,0.5,0,1.6,0,3.2l0,0c-0.2,0-0.7,0-1.5,0c0,0,0,0,0,0C47.3,20.4,47.3,16.6,47.3,10.9L47.3,10.9z"/>
	<path class="st0" d="M62.2,10.9C62.2,10.9,62.2,10.9,62.2,10.9c1.5,0,2.9,0.6,4,1.8c1,1.2,1.5,2.5,1.5,4c0,1.6-0.6,3-1.8,4.2
		c-1.1,1-2.3,1.5-3.7,1.5c-1.4,0-2.6-0.5-3.7-1.5c-0.5-0.5-0.8-0.9-0.9-1.2c-0.6-0.9-0.9-2-0.9-3.1c0,0,0,0,0,0c0-1.6,0.6-3,1.8-4.2
		c0.1-0.1,0.3-0.2,0.5-0.4C60,11.3,61,10.9,62.2,10.9z M58.2,16.6c0,1.2,0.5,2.3,1.4,3.2c0.8,0.7,1.6,1,2.6,1c1.2,0,2.3-0.6,3.2-1.7
		c0.5-0.8,0.8-1.6,0.8-2.5c0,0,0-0.1,0-0.1c0-1.1-0.4-2-1.1-2.9c-0.8-0.9-1.8-1.3-2.9-1.3c-1.2,0-2.2,0.5-3.1,1.5
		C58.5,14.8,58.2,15.7,58.2,16.6z"/>
	<path class="st0" d="M70.1,10.9c0.3,0,0.8,0,1.6,0c0.9,1.4,2.7,4.1,5.5,8.2c0.1,0.1,0.2,0.4,0.5,0.8c0-1.5,0-4.5,0-8.9l0,0
		c0.2,0,0.7,0,1.5,0l0,0c0,1.9,0,5.7,0,11.4l0,0c-0.3,0-0.8,0-1.6,0c-0.3-0.4-1.3-1.9-3.1-4.7c-0.6-0.9-1.6-2.4-2.9-4.3
		c0,1.5,0,4.5,0,8.9l0,0c-0.2,0-0.7,0-1.5,0c0,0,0,0,0,0C70.1,20.4,70.1,16.6,70.1,10.9L70.1,10.9z"/>
	<path class="st0" d="M88.6,10.9c0,0.2,0,0.8,0,1.5c-0.5,0-1.5,0-3,0c0,1.7,0,5,0,9.9c-0.2,0-0.8,0-1.5,0h0c0-1.7,0-5,0-9.9
		c-0.5,0-1.5,0-3,0c0-0.2,0-0.8,0-1.5C82.3,10.9,84.8,10.9,88.6,10.9z"/>
	<path class="st0" d="M94.4,10.9c0,0,0.2,0.6,0.7,1.7c0.9,2.2,2.2,5.4,4,9.8c0,0,0,0,0,0c-0.3,0-0.8,0-1.6,0c0,0-0.1-0.2-0.2-0.5
		c-0.2-0.4-0.4-1.1-0.8-1.9c-0.9,0-2.7,0-5.4,0c-0.2,0.4-0.5,1.2-1,2.5c-0.3,0-0.8,0-1.6,0c0.7-1.6,2-4.9,4-9.8
		c0.1-0.3,0.3-0.8,0.7-1.7C93.2,10.9,93.7,10.9,94.4,10.9z M91.5,18.4c0.7,0,2.1,0,4.2,0c-0.3-0.9-1-2.6-2.1-5.1
		c0,0-0.3,0.7-0.9,2.1C92.5,16,92.1,17,91.5,18.4z"/>
	<path class="st0" d="M100.9,10.9c0.2,0,0.7,0,1.5,0l0,0c0,1,0,2.9,0,5.9c0.1-0.1,1.8-2,5.1-5.9c0,0,0,0,0,0c0.3,0,1,0,2,0l0,0
		c-0.8,0.9-2.4,2.7-4.8,5.5c0.8,1,2.4,3,4.8,5.9v0c-0.3,0-1,0-2,0c-0.6-0.8-1.9-2.4-3.8-4.8c-0.2,0.3-0.7,0.8-1.3,1.5
		c0,0.5,0,1.6,0,3.2l0,0c-0.2,0-0.7,0-1.5,0c0,0,0,0,0,0C100.8,20.4,100.8,16.6,100.9,10.9L100.9,10.9z"/>
	<path class="st0" d="M118.3,10.9c0,0.2,0,0.8,0,1.5c-0.5,0-1.5,0-3,0c0,1.7,0,5,0,9.9c-0.2,0-0.8,0-1.5,0h0c0-1.7,0-5,0-9.9
		c-0.5,0-1.5,0-3,0c0-0.2,0-0.8,0-1.5C112,10.9,114.5,10.9,118.3,10.9z"/>
</g>
<g>
	<path class="st0" d="M28,38.3c-0.3,0-1,0-2,0c0-0.2,0-0.8,0-1.5c0.3,0,1,0,2,0c0-0.3,0-1,0-2h0c0.2,0,0.7,0,1.5,0h0c0,0.3,0,1,0,2
		c0.3,0,1,0,2,0l0,0c0,0.2,0,0.7,0,1.5c0,0,0,0,0,0c-0.3,0-1,0-2,0c0,0.3,0,1,0,2c-0.2,0-0.8,0-1.5,0C28,40,28,39.3,28,38.3z"/>
	<path class="st0" d="M38.1,30.7c0.2,0,0.8,0,1.5,0v0c0,1.3,0,3.9,0,7.8c0.2,0,0.7,0,1.6,0c0,0.2,0,0.8,0,1.5c-0.2,0-0.7,0-1.5,0
		c0,0.3,0,0.8,0,1.7h0c-0.2,0-0.8,0-1.5,0c0-0.3,0-0.8,0-1.7c-0.9,0-2.8,0-5.5,0v0c0.3-0.5,0.9-1.6,1.9-3.2c0.3-0.5,0.9-1.6,1.9-3.1
		c0.3-0.4,0.8-1.3,1.6-2.7C37.9,30.9,38,30.9,38.1,30.7z M36.7,36c-0.9,1.5-1.3,2.2-1.4,2.3c0,0,0,0.1-0.1,0.2c0.5,0,1.3,0,2.4,0
		c0.1,0,0.2,0,0.5,0c0-0.8,0-2.4,0-4.8C37.8,34.1,37.4,34.9,36.7,36z"/>
	<path class="st0" d="M46.6,30.5c0.9,0,1.7,0.2,2.4,0.8c0.1,0.1,0.3,0.2,0.5,0.4c0.2,0.2,0.4,0.4,0.4,0.5c0.1,0.2,0.2,0.4,0.3,0.6
		c0.3,0.6,0.4,1.2,0.4,1.8v0c0,0.8-0.2,1.5-0.7,2.2c-0.4,0.8-1.1,1.9-2,3.4c-0.8,1.3-1.2,1.9-1.2,2c-0.2-0.1-0.6-0.4-1.3-0.8v0
		l0.5-0.8c0.3-0.4,0.7-1.1,1.2-1.9c-0.2,0-0.4,0-0.6,0c0,0-0.1,0-0.1,0c-0.6,0-1.3-0.2-1.9-0.5c-0.2-0.1-0.4-0.2-0.6-0.4
		c-0.1-0.1-0.3-0.2-0.4-0.4c-0.2-0.2-0.4-0.4-0.5-0.6c-0.1-0.2-0.3-0.4-0.4-0.7c-0.2-0.5-0.3-1-0.3-1.5c0,0,0-0.1,0-0.1
		c0-0.6,0.2-1.2,0.5-1.9c0.1-0.2,0.2-0.4,0.4-0.6c0.1-0.1,0.3-0.3,0.4-0.4c0.4-0.3,0.8-0.6,1.3-0.8C45.5,30.6,46,30.5,46.6,30.5z
		 M43.9,34.6c0,0.6,0.2,1.1,0.6,1.6c0.1,0.2,0.3,0.3,0.4,0.4c0.5,0.4,1.1,0.6,1.7,0.6c0.6,0,1.2-0.2,1.7-0.6
		c0.1-0.1,0.2-0.2,0.3-0.4c0.4-0.5,0.5-1,0.5-1.5c0-0.6-0.2-1.1-0.6-1.6c-0.2-0.2-0.3-0.3-0.4-0.3c-0.5-0.4-1-0.5-1.6-0.5
		c-0.7,0-1.3,0.2-1.8,0.7c-0.2,0.2-0.3,0.3-0.3,0.3C44.1,33.5,43.9,34,43.9,34.6z"/>
	<path class="st0" d="M64.2,30.7L64.2,30.7c0,0.3,0,0.8,0,1.5c0,0,0,0,0,0c-0.6,0-1.8,0-3.8,0c-0.1,0.3-0.3,0.9-0.5,1.9
		c0.2,0,0.4,0,0.6,0c0,0,0.1,0,0.1,0c0.6,0,1.3,0.2,1.9,0.5c0.2,0.1,0.5,0.3,0.7,0.4c0.1,0.1,0.2,0.2,0.3,0.3
		c0.2,0.2,0.4,0.4,0.4,0.5c0.1,0.2,0.3,0.3,0.3,0.5c0.4,0.6,0.5,1.3,0.5,2c0,0.9-0.3,1.7-0.8,2.4c-0.1,0.1-0.2,0.3-0.4,0.5
		c-0.2,0.2-0.4,0.3-0.6,0.5c-0.8,0.5-1.6,0.7-2.4,0.7c0,0,0,0,0,0c-0.8,0-1.6-0.2-2.3-0.7c-0.2-0.1-0.4-0.2-0.6-0.4
		c-0.2-0.2-0.3-0.3-0.4-0.4c-0.2-0.2-0.3-0.5-0.4-0.6c-0.1-0.2-0.2-0.3-0.2-0.3c0.9-0.4,1.3-0.6,1.4-0.6c0.3,0.6,0.8,1.1,1.5,1.4
		c0.3,0.1,0.7,0.2,1,0.2c0.7,0,1.3-0.2,1.9-0.7c0.2-0.2,0.3-0.3,0.3-0.4c0.4-0.5,0.6-1,0.6-1.6v0c0-0.6-0.2-1.1-0.6-1.6
		c-0.2-0.2-0.3-0.3-0.3-0.3c-0.5-0.4-1.1-0.6-1.8-0.6c-0.5,0-1,0.1-1.5,0.4c-0.3,0.2-0.8,0.4-1.4,0.8c0.2-0.6,0.5-1.8,1-3.6
		c0.4-1.4,0.6-2.1,0.6-2.1c0-0.1,0.1-0.2,0.1-0.3C60,30.7,61.6,30.7,64.2,30.7z"/>
	<path class="st0" d="M74,30.7L74,30.7c0,0.3,0,0.8,0,1.5c0,0,0,0,0,0c-0.6,0-1.8,0-3.8,0c-0.1,0.3-0.3,0.9-0.5,1.9
		c0.2,0,0.4,0,0.6,0c0,0,0.1,0,0.1,0c0.6,0,1.3,0.2,1.9,0.5c0.2,0.1,0.5,0.3,0.7,0.4c0.1,0.1,0.2,0.2,0.3,0.3
		c0.2,0.2,0.4,0.4,0.4,0.5c0.1,0.2,0.3,0.3,0.3,0.5c0.4,0.6,0.5,1.3,0.5,2c0,0.9-0.3,1.7-0.8,2.4c-0.1,0.1-0.2,0.3-0.4,0.5
		c-0.2,0.2-0.4,0.3-0.6,0.5c-0.8,0.5-1.6,0.7-2.4,0.7c0,0,0,0,0,0c-0.8,0-1.6-0.2-2.3-0.7c-0.2-0.1-0.4-0.2-0.6-0.4
		c-0.2-0.2-0.3-0.3-0.4-0.4c-0.2-0.2-0.3-0.5-0.4-0.6c-0.1-0.2-0.2-0.3-0.2-0.3c0.9-0.4,1.3-0.6,1.4-0.6c0.3,0.6,0.8,1.1,1.5,1.4
		c0.3,0.1,0.7,0.2,1,0.2c0.7,0,1.3-0.2,1.9-0.7c0.2-0.2,0.3-0.3,0.3-0.4c0.4-0.5,0.6-1,0.6-1.6v0c0-0.6-0.2-1.1-0.6-1.6
		c-0.2-0.2-0.3-0.3-0.3-0.3c-0.5-0.4-1.1-0.6-1.8-0.6c-0.5,0-1,0.1-1.5,0.4c-0.3,0.2-0.8,0.4-1.4,0.8c0.2-0.6,0.5-1.8,1-3.6
		c0.4-1.4,0.6-2.1,0.6-2.1c0-0.1,0.1-0.2,0.1-0.3C69.8,30.7,71.4,30.7,74,30.7z"/>
	<path class="st0" d="M83.8,30.7L83.8,30.7c0,0.3,0,0.8,0,1.5c0,0,0,0,0,0c-0.6,0-1.8,0-3.8,0c-0.1,0.3-0.3,0.9-0.5,1.9
		c0.2,0,0.4,0,0.6,0c0,0,0.1,0,0.1,0c0.6,0,1.3,0.2,1.9,0.5c0.2,0.1,0.5,0.3,0.7,0.4c0.1,0.1,0.2,0.2,0.3,0.3
		c0.2,0.2,0.4,0.4,0.4,0.5c0.1,0.2,0.3,0.3,0.3,0.5c0.4,0.6,0.5,1.3,0.5,2c0,0.9-0.3,1.7-0.8,2.4c-0.1,0.1-0.2,0.3-0.4,0.5
		c-0.2,0.2-0.4,0.3-0.6,0.5c-0.8,0.5-1.6,0.7-2.4,0.7c0,0,0,0,0,0c-0.8,0-1.6-0.2-2.3-0.7c-0.2-0.1-0.4-0.2-0.6-0.4
		c-0.2-0.2-0.3-0.3-0.4-0.4c-0.2-0.2-0.3-0.5-0.4-0.6c-0.1-0.2-0.2-0.3-0.2-0.3c0.9-0.4,1.3-0.6,1.4-0.6c0.3,0.6,0.8,1.1,1.5,1.4
		c0.3,0.1,0.7,0.2,1,0.2c0.7,0,1.3-0.2,1.9-0.7c0.2-0.2,0.3-0.3,0.3-0.4c0.4-0.5,0.6-1,0.6-1.6v0c0-0.6-0.2-1.1-0.6-1.6
		c-0.2-0.2-0.3-0.3-0.3-0.3c-0.5-0.4-1.1-0.6-1.8-0.6c-0.5,0-1,0.1-1.5,0.4c-0.3,0.2-0.8,0.4-1.4,0.8c0.2-0.6,0.5-1.8,1-3.6
		c0.4-1.4,0.6-2.1,0.6-2.1c0-0.1,0.1-0.2,0.1-0.3C79.6,30.7,81.3,30.7,83.8,30.7z"/>
	<path class="st0" d="M93.8,30.8c0,1.8,0,5.4,0,10.8c-0.2,0-0.8,0-1.5,0c0-1.5,0-4.6,0-9.2c-0.2,0-0.6,0-1.2,0h0c0-0.2,0-0.8,0-1.5
		C91.5,30.8,92.4,30.8,93.8,30.8z"/>
	<path class="st0" d="M99.9,30.4c0.8,0,1.4,0.2,2,0.6c0.1,0.1,0.2,0.2,0.4,0.4c0.2,0.2,0.4,0.5,0.5,0.6c0.3,0.6,0.5,1.2,0.5,1.9
		c0,0.6-0.1,1.2-0.4,1.6c-0.6,0.6-1.4,1.5-2.5,2.7c-0.3,0.3-0.9,1-1.8,1.9v0c0.3,0,0.8,0,1.6,0c0.5,0,1.6,0,3.2,0l0,0
		c0,0.2,0,0.8,0,1.5h0c-1.2,0-3.5,0-6.9,0h0c0-0.2,0-0.7,0-1.5c0.4-0.4,1.2-1.3,2.4-2.6c0.3-0.3,0.8-0.9,1.6-1.7
		c0.2-0.2,0.6-0.6,1.1-1.3c0.1-0.2,0.2-0.4,0.2-0.7c0,0,0,0,0,0c0-0.4-0.1-0.8-0.4-1.2c-0.1-0.1-0.1-0.2-0.2-0.3
		c-0.1-0.1-0.3-0.2-0.4-0.3c-0.2-0.1-0.6-0.2-0.9-0.2c0,0,0,0-0.1,0c-0.9,0-1.5,0.4-1.8,1.3c-0.1,0.3-0.1,0.5-0.1,0.7
		c-0.3,0-0.8,0-1.5,0v0c0-0.3,0.1-0.7,0.2-1.2c0.1-0.3,0.2-0.5,0.3-0.7c0.3-0.6,0.8-1,1.5-1.3C98.8,30.5,99.3,30.4,99.9,30.4z"/>
	<path class="st0" d="M108.9,30.6L108.9,30.6c0.8,0,1.5,0.2,2.1,0.7c0.2,0.2,0.4,0.3,0.5,0.5c0.1,0.2,0.2,0.3,0.3,0.5
		c0.2,0.5,0.4,0.9,0.4,1.4c0,0,0,0,0,0.1c0,0.5-0.1,1-0.4,1.5c-0.1,0.1-0.2,0.3-0.3,0.5c-0.1,0.1-0.2,0.3-0.4,0.4
		c0.1,0.1,0.2,0.2,0.4,0.4c0.2,0.2,0.4,0.5,0.5,0.6c0.3,0.6,0.5,1.1,0.5,1.7c0,0,0,0,0,0.1c0,0.6-0.2,1.3-0.6,1.9
		c-0.1,0.1-0.2,0.3-0.4,0.5c-0.2,0.2-0.3,0.3-0.4,0.4c-0.2,0.2-0.4,0.3-0.6,0.4c-0.1,0.1-0.3,0.2-0.6,0.2c-0.4,0.1-0.7,0.2-1,0.2
		c0,0-0.1,0-0.2,0c-0.4,0-0.8-0.1-1.3-0.2c-0.2-0.1-0.5-0.2-0.7-0.4c-0.2-0.1-0.3-0.2-0.5-0.4c-0.2-0.2-0.3-0.3-0.4-0.5
		c-0.1-0.2-0.3-0.4-0.3-0.5c-0.2-0.5-0.3-0.9-0.3-1.4c0,0,0,0,0,0l0,0c0.2,0,0.7,0,1.5,0c0,0,0,0,0,0c0,0.4,0.2,0.9,0.5,1.2
		c0.1,0.1,0.2,0.2,0.3,0.3c0.2,0.1,0.3,0.2,0.5,0.3c0.3,0.1,0.6,0.2,0.9,0.2c0.6,0,1.1-0.2,1.6-0.6c0.4-0.4,0.6-0.8,0.6-1.3
		c0-0.4-0.2-0.9-0.5-1.2c-0.4-0.5-1-0.8-1.7-0.8c-0.2,0-0.4,0-0.8,0c0-0.2,0-0.8,0-1.5v0c0.1,0,0.4,0,0.9,0c0,0,0.1,0,0.1,0
		c0.1,0,0.2,0,0.4-0.1c0.1,0,0.2-0.1,0.4-0.1c0.1-0.1,0.2-0.1,0.4-0.3c0.3-0.3,0.5-0.7,0.5-1.2c0-0.4-0.2-0.8-0.5-1.2
		c-0.4-0.3-0.8-0.5-1.2-0.5c-0.5,0-0.9,0.2-1.3,0.6c-0.1,0.1-0.2,0.3-0.3,0.4c-0.1,0.2-0.2,0.5-0.2,0.8c-0.2,0-0.8,0-1.5,0h0
		c0,0,0,0,0-0.1c0-0.7,0.2-1.4,0.8-2c0.2-0.2,0.3-0.3,0.4-0.4c0.2-0.2,0.4-0.3,0.6-0.4C107.8,30.7,108.3,30.6,108.9,30.6z"/>
	<path class="st0" d="M119.5,30.7c0.2,0,0.8,0,1.5,0v0c0,1.3,0,3.9,0,7.8c0.2,0,0.7,0,1.6,0c0,0.2,0,0.8,0,1.5c-0.2,0-0.7,0-1.5,0
		c0,0.3,0,0.8,0,1.7h0c-0.2,0-0.8,0-1.5,0c0-0.3,0-0.8,0-1.7c-0.9,0-2.8,0-5.5,0v0c0.3-0.5,0.9-1.6,1.9-3.2c0.3-0.5,0.9-1.6,1.9-3.1
		c0.3-0.4,0.8-1.3,1.6-2.7C119.3,30.9,119.4,30.9,119.5,30.7z M118.1,36c-0.9,1.5-1.3,2.2-1.4,2.3c0,0,0,0.1-0.1,0.2
		c0.5,0,1.3,0,2.4,0c0.1,0,0.2,0,0.5,0c0-0.8,0-2.4,0-4.8C119.2,34.1,118.8,34.9,118.1,36z"/>
	<path class="st0" d="M131.7,30.7L131.7,30.7c0,0.3,0,0.8,0,1.5c0,0,0,0,0,0c-0.6,0-1.8,0-3.8,0c-0.1,0.3-0.3,0.9-0.5,1.9
		c0.2,0,0.4,0,0.6,0c0,0,0.1,0,0.1,0c0.6,0,1.3,0.2,1.9,0.5c0.2,0.1,0.5,0.3,0.7,0.4c0.1,0.1,0.2,0.2,0.3,0.3
		c0.2,0.2,0.4,0.4,0.4,0.5c0.1,0.2,0.3,0.3,0.3,0.5c0.4,0.6,0.5,1.3,0.5,2c0,0.9-0.3,1.7-0.8,2.4c-0.1,0.1-0.2,0.3-0.4,0.5
		c-0.2,0.2-0.4,0.3-0.6,0.5c-0.8,0.5-1.6,0.7-2.4,0.7c0,0,0,0,0,0c-0.8,0-1.6-0.2-2.3-0.7c-0.2-0.1-0.4-0.2-0.6-0.4
		c-0.2-0.2-0.3-0.3-0.4-0.4c-0.2-0.2-0.3-0.5-0.4-0.6c-0.1-0.2-0.2-0.3-0.2-0.3c0.9-0.4,1.3-0.6,1.4-0.6c0.3,0.6,0.8,1.1,1.5,1.4
		c0.3,0.1,0.7,0.2,1,0.2c0.7,0,1.3-0.2,1.9-0.7c0.2-0.2,0.3-0.3,0.3-0.4c0.4-0.5,0.6-1,0.6-1.6v0c0-0.6-0.2-1.1-0.6-1.6
		c-0.2-0.2-0.3-0.3-0.3-0.3c-0.5-0.4-1.1-0.6-1.8-0.6c-0.5,0-1,0.1-1.5,0.4c-0.3,0.2-0.8,0.4-1.4,0.8c0.2-0.6,0.5-1.8,1-3.6
		c0.4-1.4,0.6-2.1,0.6-2.1c0-0.1,0.1-0.2,0.1-0.3C127.5,30.7,129.2,30.7,131.7,30.7z"/>
	<path class="st0" d="M138.1,30.8c0.8,0.5,1.3,0.8,1.3,0.8c-0.4,0.6-0.9,1.5-1.7,2.8c0.2,0,0.4,0,0.6,0c0.9,0,1.7,0.3,2.5,0.8
		c0.1,0.1,0.3,0.2,0.5,0.4c0.2,0.2,0.3,0.4,0.4,0.5c0.1,0.2,0.2,0.3,0.3,0.5c0.3,0.6,0.5,1.2,0.5,1.8v0c0,0.8-0.2,1.6-0.7,2.3
		c-0.1,0.1-0.2,0.3-0.4,0.5c-0.2,0.2-0.4,0.4-0.6,0.5c-0.2,0.1-0.4,0.2-0.5,0.3c-0.2,0.1-0.4,0.2-0.5,0.2c-0.5,0.2-0.9,0.2-1.3,0.2
		c0,0-0.1,0-0.2,0c-0.5,0-1-0.1-1.5-0.3c-0.2-0.1-0.4-0.2-0.7-0.3c-0.7-0.5-1.3-1.1-1.6-2c-0.2-0.5-0.2-0.9-0.2-1.3c0,0,0-0.1,0-0.1
		c0-0.6,0.2-1.2,0.5-1.8c0.1-0.1,0.4-0.7,1.1-1.8c0.4-0.6,0.9-1.5,1.7-2.8C137.5,31.7,137.8,31.3,138.1,30.8z M135.7,38.3
		c0,0.7,0.3,1.3,0.8,1.8c0.2,0.1,0.3,0.2,0.3,0.2c0.5,0.3,1,0.5,1.6,0.5c0,0,0,0,0,0c0.6,0,1.2-0.2,1.8-0.7c0.2-0.1,0.3-0.2,0.3-0.3
		c0.4-0.5,0.5-1,0.5-1.5c0-0.5-0.2-1-0.5-1.5c-0.1-0.1-0.2-0.2-0.3-0.4c-0.1-0.1-0.3-0.2-0.4-0.3c-0.5-0.3-0.9-0.4-1.4-0.4
		c0,0,0,0-0.1,0c-0.6,0-1.1,0.2-1.6,0.5c-0.1,0.1-0.2,0.2-0.3,0.3C135.9,37.1,135.7,37.7,135.7,38.3z"/>
</g>
</svg>
