<?xml version="1.0" encoding="utf-8"?>
<!-- Generator: Adobe Illustrator 27.1.1, SVG Export Plug-In . SVG Version: 6.00 Build 0)  -->
<svg version="1.1" id="Ebene_1" xmlns="http://www.w3.org/2000/svg" xmlns:xlink="http://www.w3.org/1999/xlink" x="0px" y="0px"
	 viewBox="0 0 31 30" style="enable-background:new 0 0 31 30;" xml:space="preserve">
<style type="text/css">
	.st0{fill:#FFFFFF;}
</style>
<g>
	<path class="st0" d="M15.8,2.9L15.8,2.9c-2.3,0-4.6,0-6.9,0c-0.6,0-1.1,0.1-1.7,0.3c-2,0.7-3.2,2.4-3.2,4.6c0,4.7,0,9.4,0,14.1
		c0,0.4,0,0.7,0.1,1.1c0.5,2.3,2.3,3.7,4.7,3.7c4.6,0,9.2,0,13.8,0c0.5,0,1.1-0.1,1.6-0.3c2-0.7,3.2-2.4,3.2-4.6c0-4.7,0-9.4,0-14.1
		c0-0.3,0-0.6-0.1-0.9c-0.3-2.1-2.2-3.9-4.3-4C20.7,2.8,18.2,2.9,15.8,2.9 M22.7,29H8.8c-0.4,0-0.8,0-1.2-0.1
		c-0.3-0.1-0.7-0.1-1-0.2c-3-1-4.9-3.7-4.9-6.8c0-4.7,0-9.5,0-14.2c0-1.5,0.4-2.9,1.3-4.2c1.5-2,3.4-3,5.9-3c4.5,0,9,0,13.6,0
		c0.5,0,1,0,1.4,0.1c2.6,0.5,4.4,2,5.4,4.5c0.2,0.4,0.3,0.9,0.4,1.4c0.1,0.4,0.1,0.9,0.1,1.3v14.1c0,0.4,0,0.8-0.1,1.2l0,0
		c-0.5,2.6-1.9,4.5-4.4,5.5c-0.4,0.2-0.9,0.3-1.4,0.4C23.5,29,23.1,29,22.7,29"/>
	<path class="st0" d="M15.8,19.5c2.6,0,4.7-2.1,4.7-4.8c0-2.6-2.1-4.7-4.7-4.8c-2.6,0-4.7,2.1-4.7,4.8
		C11.1,17.4,13.2,19.5,15.8,19.5 M15.8,21.9c-3.9,0-7-3.2-7-7.2c0-3.9,3.2-7.1,7-7.1c3.9,0,7,3.2,7,7.2
		C22.8,18.7,19.6,21.9,15.8,21.9"/>
	<path class="st0" d="M23.4,8.8c-1,0-1.7-0.8-1.7-1.8c0-1,0.8-1.8,1.7-1.8c1,0,1.8,0.8,1.8,1.8C25.1,8,24.4,8.8,23.4,8.8"/>
</g>
</svg>
