<?xml version="1.0" encoding="utf-8"?>
<!-- Generator: Adobe Illustrator 27.1.1, SVG Export Plug-In . SVG Version: 6.00 Build 0)  -->
<svg version="1.1" id="Ebene_1" xmlns="http://www.w3.org/2000/svg" xmlns:xlink="http://www.w3.org/1999/xlink" x="0px" y="0px"
	 viewBox="0 0 31 30" style="enable-background:new 0 0 31 30;" xml:space="preserve">
<style type="text/css">
	.st0{fill:#FFFFFF;}
</style>
<path class="st0" d="M26.5,6.8c-3-0.6-5.2-3.1-5.5-6.2V0h-5v19.8c0,2.3-1.9,4.2-4.2,4.2c-1.3,0-2.5-0.6-3.3-1.7h0h0
	c-1.4-1.8-1-4.5,0.8-5.9c1.1-0.8,2.5-1.1,3.8-0.7v-5.1c-5-0.7-9.7,2.8-10.3,7.8c-0.4,2.8,0.5,5.6,2.5,7.7c3.5,3.6,9.4,3.7,13,0.1
	c1.8-1.7,2.8-4.1,2.8-6.6V9.7c2,1.4,4.4,2.2,6.9,2.2v-5C27.4,6.9,27,6.9,26.5,6.8z"/>
</svg>
