<?xml version="1.0" encoding="utf-8"?>
<!-- Generator: Adobe Illustrator 27.2.0, SVG Export Plug-In . SVG Version: 6.00 Build 0)  -->
<svg version="1.1" id="Ebene_1" xmlns="http://www.w3.org/2000/svg" xmlns:xlink="http://www.w3.org/1999/xlink" x="0px" y="0px"
	 viewBox="0 0 95 108" style="enable-background:new 0 0 95 108;" xml:space="preserve">
<style type="text/css">
	.st0{fill:#FFFFFF;}
</style>
<g>
	<path class="st0" d="M87.8,37.4c0,4.1-2.9,7-7,7.1c-4.3,0-8.6,0-12.9,0c-0.8,0-1.6,0.3-2.3,0.7c-1.6,1.1-3.2,2.3-5,3.6
		c0-1,0-1.8,0-2.5c0-1.2-0.5-1.7-1.7-1.9c-4.7-0.6-6.8-3.1-6.8-7.8c0-3,0-5.9,0-8.9c0-4,2.8-7,6.8-7.1c7.4-0.1,14.8-0.1,22.3,0
		c3.9,0.1,6.7,3.1,6.7,7C87.8,31,87.8,34.2,87.8,37.4 M74,49c0,15.1,0,30.3,0,45.4c0,4-2.2,6.3-6.3,6.3c-11.6,0-23.2,0-34.8,0
		c-3.9,0-6.2-2.3-6.2-6.2c0-3.7,0-7.3,0-11v-1.1c1.3-0.2,2.5-0.4,3.6-0.6c0.5,0,1.1,0.1,1.6,0.3c1.8,0.8,3.5,1.7,5.3,2.4
		c0.8,0.3,1.7,0.5,2.5,0.5c1.3-0.1,1.9-0.9,1.6-2.2c-0.4-1.8-0.7-3.5-1-5.3c-0.1-0.5,0.2-1.2,0.6-1.7c5.6-6.2,7.4-13.4,4.9-21.4
		c-2.6-8-8.3-12.7-16.6-14.4c-0.8-0.2-1.6-0.2-2.6-0.3v-1.2c0-8.5,0-17.1,0-25.6c0-4,2.3-6.2,6.2-6.2c2.4,0,4.9,0,7.3,0
		c0.3,0,0.7,0.4,1,0.6c0.6,0.3,1.1,0.9,1.7,0.9c4.9,0.1,9.9,0,14.8,0c1,0,1.6-0.5,1.9-1.5c3,0,6.1-0.1,9.1,0c2.4,0.1,4.7,1.9,5,4.3
		c0.3,2.1,0.1,4.2,0.1,6.5h-1.1c-4.4,0-8.8,0-13.3,0c-6.3,0-10.6,4.3-10.6,10.6c0,3.1,0,6.3,0,9.4c0,4.8,2.9,8.6,7.6,9.9
		c0.7,0.2,0.9,0.5,0.9,1.2c0,1.1,0,2.2,0,3.4c0.1,1.6,1.3,2.2,2.7,1.3c2.3-1.6,4.5-3.3,6.8-4.9c0.5-0.3,1.1-0.5,1.6-0.5
		c1.8-0.1,3.6,0,5.6,0V49z M7.9,63.8C6.4,53.6,13.6,44.2,23.8,43c7.5-0.8,14.7,3,18.1,9.6c3.4,6.8,2.5,14.9-2.7,20.4
		c-1.9,1.9-2.2,3.9-1.7,6.2c0.1,0.6,0.2,1.2,0.3,2c-1.7-0.8-3.2-1.5-4.7-2.2c-1.2-0.6-2.4-0.7-3.7-0.4C19.3,80.8,9.5,73.9,7.9,63.8
		 M90.9,27.3c-0.1-4.9-3.8-9-8.6-9.6c-1.7-0.2-3.3-0.2-5.1-0.3c0-1.6,0-3.1,0-4.6c0-5.6-3.7-9.3-9.3-9.3c-11.7,0-23.3,0-35,0
		c-0.7,0-1.5,0-2.2,0.2c-4.2,0.9-7,4.3-7.1,8.7c0,8.8,0,17.6,0,26.4c0,0.6,0.1,1.1-0.8,1.2C12.6,41.5,4.9,50,4.5,60
		c-0.3,10.7,6.6,19.6,17,21.8c0.7,0.1,1.4,0.3,2.1,0.4c0,4.2,0,8.2,0,12.3c0,5.7,3.6,9.4,9.3,9.4c11.6,0,23.3,0,34.9,0
		c5.8,0,9.4-3.7,9.4-9.4c0-15.1,0-30.1,0-45.2v-1.6c1.6,0,3.1,0.1,4.5,0c5.1-0.4,9.1-4.6,9.2-9.7C91,34.4,91,30.8,90.9,27.3"/>
	<path class="st0" d="M57.8,90.6c-4.9,0-9.8,0-14.7,0c-1.2,0-1.9,0.6-1.9,1.6c0,1,0.7,1.6,1.9,1.6c2.4,0,4.9,0,7.3,0
		c2.5,0,4.9,0,7.4,0c1.1,0,1.8-0.6,1.8-1.5C59.7,91.2,59,90.6,57.8,90.6"/>
	<path class="st0" d="M81.1,35c-7.3,0-14.5,0-21.8,0c-1.3,0-2,0.6-2,1.6c0,1,0.7,1.6,2,1.6c3.6,0,7.2,0,10.8,0c3.7,0,7.3,0,11,0
		c1.3,0,1.9-0.5,1.9-1.5C83.1,35.6,82.4,35,81.1,35"/>
	<path class="st0" d="M59.4,30.7c3.6,0,7.2,0,10.8,0c0.7,0,1.4,0,2.1,0c3,0,6,0,9,0c1.1,0,1.8-0.6,1.8-1.6c0-1-0.6-1.6-1.7-1.6
		c-0.3,0-0.6,0-0.9,0c-5.4,0-10.8,0-16.2,0c-1.8,0-3.5,0-5.3,0c-0.8,0-1.5,0.4-1.5,1.2c0,0.6,0.3,1.3,0.7,1.7
		C58.3,30.7,59,30.7,59.4,30.7"/>
	<path class="st0" d="M31.2,64.7c-1.6,1.4-3.2,2.8-4.8,4.2l-0.5,0.5c-1.4-1.2-2.8-2.4-4.2-3.6c-1.1-0.9-2.2-2-3.1-3.1
		c-0.7-0.9-1.1-1.7-1.2-2.6c-0.2-1.6,0.1-2.9,1-4c0.8-0.9,1.7-1.4,2.9-1.4c0.2,0,0.4,0,0.6,0c0.9,0.1,1.7,0.7,2.7,1.8l1.2,1.4
		l1.1-1.5c0.6-0.8,1.3-1.4,2-1.6c0.9-0.3,1.8-0.2,2.4,0c1.6,0.5,2.7,2.1,2.8,3.9l0,0.1c0.1,1.1-0.3,2.3-1,3.3
		C32.8,63.1,32.1,63.9,31.2,64.7 M35.9,63.8c1-1.6,1.5-3.4,1.4-5.1l0-0.1c-0.2-3.1-2.2-5.7-4.9-6.6c-1.5-0.5-3-0.5-4.3,0
		c-0.8,0.3-1.5,0.7-2.2,1.4c-0.9-0.8-2-1.5-3.4-1.6c-2.5-0.3-4.6,0.5-6.2,2.4c-1.5,1.8-2.1,3.9-1.7,6.4c0.2,1.3,0.8,2.6,1.8,3.9
		c1,1.4,2.3,2.6,3.5,3.6c1.4,1.2,2.9,2.5,4.3,3.7l0,0c0.6,0.5,1.2,0.7,1.8,0.7c0.6,0,1.2-0.2,1.8-0.7l0.7-0.6
		c1.6-1.4,3.2-2.8,4.8-4.2C34.3,65.9,35.2,64.9,35.9,63.8"/>
</g>
</svg>
