<?xml version="1.0" encoding="utf-8"?>
<!-- Generator: Adobe Illustrator 27.2.0, SVG Export Plug-In . SVG Version: 6.00 Build 0)  -->
<svg version="1.1" id="Ebene_1" xmlns="http://www.w3.org/2000/svg" xmlns:xlink="http://www.w3.org/1999/xlink" x="0px" y="0px"
	 viewBox="0 0 139 139" style="enable-background:new 0 0 139 139;" xml:space="preserve">
<style type="text/css">
	.st0{fill:#AA96A0;}
</style>
<g>
	<path class="st0" d="M71.8,131.5c33,0,59.9-27,59.9-60c-0.1-33-26.9-59.8-59.9-59.8c-33,0-59.9,26.9-59.9,59.9
		C11.9,104.6,38.8,131.5,71.8,131.5 M67.5,4C74.6,3.5,81.9,4.1,89,5.9c10.2,2.7,19.7,7.8,27.5,14.7C138.3,40,145.6,71.5,134,98.5
		c-10.1,23.6-34.1,39.9-59.7,40.9c-16.3,0.7-32.6-4.8-45.2-15.2C8.7,107.4-0.6,79.3,6.3,53.7C13.7,26.2,39.3,6,67.5,4"/>
	<path class="st0" d="M75.7,58.5c0,3.4,0,6.8,0,10.2c0,0.9,0.3,1.5,0.9,2.1c7,7,14.1,14,21.1,21.1c2.3,2.3,2.5,4.6,0.8,6.4
		c-1.8,1.8-4.1,1.5-6.4-0.7c-7.5-7.5-15-15-22.5-22.5c-1.2-1.2-1.8-2.6-1.8-4.3c0.1-7.6,0-15.2,0-22.8c0-2.4,1.7-4.1,3.9-4.2
		c2.3,0,4,1.7,4,4.2c0,0.5,0,1.1,0,1.6C75.7,52.5,75.7,55.5,75.7,58.5"/>
	<path class="st0" d="M67.8,27.8c0-1.3,0-2.6,0-4c0.1-2.2,1.8-4,3.9-4c2.2,0,3.9,1.7,4,3.9c0.1,2.7,0.1,5.4,0,8.1
		c0,2.2-1.8,3.9-4,3.9c-2.2,0-3.9-1.7-3.9-4C67.8,30.5,67.8,29.1,67.8,27.8"/>
	<path class="st0" d="M28,75.5c-1.3,0-2.6,0-4,0c-2.2-0.1-3.9-1.8-3.9-4c0-2.2,1.7-3.9,4-4c2.6,0,5.3,0,7.9,0c2.3,0,4,1.7,4,3.9
		c0,2.2-1.7,4-4,4C30.6,75.6,29.3,75.5,28,75.5"/>
	<path class="st0" d="M115.5,75.5c-1.3,0-2.6,0-4,0c-2.2-0.1-4-1.8-4-3.9c0-2.2,1.7-3.9,3.9-4c2.7-0.1,5.4-0.1,8.1,0
		c2.2,0,3.9,1.8,3.9,4c0,2.1-1.7,3.8-3.9,3.9C118.2,75.6,116.9,75.5,115.5,75.5"/>
	<path class="st0" d="M75.7,115.3c0,1.3,0,2.6,0,4c-0.1,2.3-1.8,4.1-4,4c-2.2,0-3.9-1.7-3.9-4c0-2.6,0-5.3,0-7.9c0-2.3,1.8-4,3.9-4
		c2.2,0,3.9,1.7,4,3.9C75.8,112.6,75.7,113.9,75.7,115.3"/>
	<path class="st0" d="M109.4,105.4c0,2.2-1.8,3.9-4,3.9c-2.2,0-4-1.8-3.9-4c0-2.2,1.9-4,4-3.9C107.8,101.4,109.5,103.2,109.4,105.4"
		/>
	<path class="st0" d="M34.1,37.9c0-2.2,1.7-4,3.9-4c2.2,0,4,1.7,4,3.9c0,2.1-1.8,4-3.9,4C35.9,41.9,34.1,40.1,34.1,37.9"/>
	<path class="st0" d="M109.5,37.8c0,2.2-1.8,4-3.9,4c-2.1,0-4-1.9-4-4c0-2.2,1.8-4,4-4C107.7,33.9,109.5,35.6,109.5,37.8"/>
	<path class="st0" d="M38.1,109.3c-2.2,0-4-1.7-4-3.9c0-2.2,1.8-4,3.9-4c2.1,0,4,1.8,4,4C42,107.4,40.3,109.2,38.1,109.3"/>
</g>
</svg>
