<?xml version="1.0" encoding="utf-8"?>
<!-- Generator: Adobe Illustrator 27.2.0, SVG Export Plug-In . SVG Version: 6.00 Build 0)  -->
<svg version="1.1" id="Ebene_1" xmlns="http://www.w3.org/2000/svg" xmlns:xlink="http://www.w3.org/1999/xlink" x="0px" y="0px"
	 viewBox="0 0 139 139" style="enable-background:new 0 0 139 139;" xml:space="preserve">
<style type="text/css">
	.st0{fill:#AA96A0;}
</style>
<g>
	<path class="st0" d="M69.5,129.1c32.7,0,59.3-26.6,59.3-59.3c0-32.7-26.7-59.4-59.4-59.4c-32.7,0-59.3,26.6-59.3,59.3
		C10.1,102.5,36.8,129.2,69.5,129.1 M73.5,137.6h-7.9c-2.3-0.3-4.5-0.5-6.8-0.9c-14.2-2.4-26.5-8.5-36.7-18.6
		C6.8,102.9,0.1,84.4,2.1,63c1.3-14.5,7-27.3,16.8-38.2C31.7,10.6,47.7,3,66.8,2.1c13.3-0.6,25.9,2.5,37.3,9.5
		c17.6,10.7,28.4,26.3,32.2,46.6c0.5,2.5,0.7,5.1,1.1,7.7v7.9c-0.1,1-0.2,1.9-0.3,2.9c-1.6,14.6-7.2,27.5-17,38.4
		c-10.4,11.6-23.4,18.8-38.8,21.5C78.6,137,76,137.2,73.5,137.6"/>
	<path class="st0" d="M44.2,74v-8.5c-1.2,0-2.6,0-4,0c-2.7,0-4.6-1.7-4.7-4.2c0-2.5,1.9-4.3,4.7-4.3c1.6,0,3.3-0.1,4.9,0
		c1,0.1,1.3-0.4,1.6-1.2c2.4-6.1,6.2-11.2,11.6-15.1c9-6.4,21.1-6.6,30.2-0.4c2.1,1.4,2.7,3.9,1.4,5.9c-1.2,2-3.7,2.6-5.9,1.3
		c-2.7-1.6-5.5-2.8-8.6-3.1c-5.9-0.5-10.8,1.5-15,5.6c-2.4,2.3-4,4.8-4.9,7c0.5,0,1,0,1.4,0c5.5,0,10.9,0,16.4,0
		c1.7,0,3.1,0.7,3.9,2.3c0.8,1.4,0.7,2.9-0.2,4.3c-0.9,1.4-2.3,2-4,2c-6.3,0-12.5,0-18.8,0h-1.7V74c0.6,0,1.1,0,1.5,0
		c5,0,10.1,0,15.1,0c1.8,0,3.1,0.9,3.9,2.5c0.7,1.5,0.5,3-0.5,4.4c-0.9,1.2-2.1,1.6-3.6,1.6c-4.1,0-8.1,0-12.2,0c-0.4,0-0.9,0-1.4,0
		c1.3,2.8,3,5.2,5.1,7.2c5.1,4.8,11.1,6.7,18,4.8c1.8-0.5,3.5-1.5,5.1-2.4c2.5-1.3,5-0.9,6.2,1.3c1.2,2.1,0.5,4.5-1.8,6
		c-12.1,7.7-27.3,4.9-36.4-6.7c-2.2-2.8-3.9-5.7-5.2-9c-0.3-0.8-0.7-1.1-1.6-1.1c-1.7,0.1-3.4,0.1-5.2,0c-2.5-0.1-4.3-1.9-4.3-4.2
		c0-2.4,1.8-4.2,4.4-4.2C41.4,74,42.8,74,44.2,74"/>
</g>
</svg>
