<?xml version="1.0" encoding="utf-8"?>
<!-- Generator: Adobe Illustrator 27.1.1, SVG Export Plug-In . SVG Version: 6.00 Build 0)  -->
<svg version="1.1" id="Ebene_1" xmlns="http://www.w3.org/2000/svg" xmlns:xlink="http://www.w3.org/1999/xlink" x="0px" y="0px"
	 viewBox="0 0 31 38" style="enable-background:new 0 0 31 38;" xml:space="preserve">
<style type="text/css">
	.st0{fill:#FFFFFF;}
</style>
<g>
	<path class="st0" d="M12.2,0.8h-2L8.8,6.1L7.3,0.8H5.2c0.4,1.2,0.9,2.5,1.3,3.8c0.6,1.9,1,3.3,1.2,4.3v5.4h2V8.9L12.2,0.8z
		 M17.6,11.1V7.5c0-1.1-0.2-1.9-0.6-2.4c-0.5-0.7-1.2-1-2.1-1c-0.9,0-1.6,0.3-2.1,1c-0.4,0.5-0.6,1.3-0.6,2.4v3.5
		c0,1.1,0.2,1.9,0.6,2.4c0.5,0.7,1.2,1,2.1,1c0.9,0,1.6-0.3,2.1-1C17.4,12.9,17.6,12.1,17.6,11.1 M15.7,11.4c0,0.9-0.3,1.4-0.9,1.4
		c-0.6,0-0.9-0.5-0.9-1.4V7.2c0-0.9,0.3-1.4,0.9-1.4c0.6,0,0.9,0.5,0.9,1.4V11.4z M24.3,14.3v-10h-1.8v7.7c-0.4,0.6-0.8,0.9-1.1,0.9
		c-0.2,0-0.4-0.1-0.4-0.4c0-0.1,0-0.3,0-0.7V4.3H19v7.9c0,0.7,0.1,1.2,0.2,1.5c0.2,0.5,0.6,0.7,1.2,0.7c0.7,0,1.4-0.4,2.1-1.2v1.1
		L24.3,14.3L24.3,14.3z"/>
	<path class="st0" d="M18.6,24.5c-0.3,0-0.6,0.1-0.9,0.4v6c0.3,0.3,0.6,0.4,0.9,0.4c0.5,0,0.8-0.4,0.8-1.3v-4.2
		C19.4,24.9,19.1,24.5,18.6,24.5"/>
	<path class="st0" d="M25.3,24.5c-0.6,0-0.9,0.5-0.9,1.4v0.9h1.8v-0.9C26.1,24.9,25.8,24.5,25.3,24.5"/>
	<path class="st0" d="M29.6,19.4c-0.4-1.6-1.7-2.7-3.2-2.9c-3.7-0.4-7.4-0.4-11.1-0.4c-3.7,0-7.5,0-11.1,0.4
		c-1.6,0.2-2.9,1.3-3.2,2.9c-0.5,2.3-0.5,4.7-0.5,7c0,2.3,0,4.8,0.5,7c0.4,1.6,1.7,2.8,3.2,2.9c3.7,0.4,7.4,0.4,11.1,0.4
		c3.7,0,7.5,0,11.1-0.4c1.6-0.2,2.9-1.3,3.2-2.9c0.5-2.3,0.5-4.7,0.5-7C30.2,24.1,30.2,21.7,29.6,19.4 M8.9,21.5H6.7v11.4h-2V21.5
		H2.6v-1.9h6.3L8.9,21.5L8.9,21.5z M14.3,32.9h-1.8v-1.1c-0.7,0.8-1.4,1.2-2.1,1.2c-0.6,0-1-0.2-1.2-0.7c-0.1-0.3-0.2-0.8-0.2-1.5
		V23H11v7.3c0,0.4,0,0.6,0,0.7c0,0.3,0.2,0.4,0.4,0.4c0.4,0,0.7-0.3,1.1-0.8V23h1.8L14.3,32.9L14.3,32.9z M21.2,29.9
		c0,0.9-0.1,1.6-0.2,2c-0.2,0.7-0.7,1.1-1.4,1.1c-0.6,0-1.3-0.4-1.9-1.1v1h-1.8V19.6h1.8v4.4c0.6-0.7,1.2-1.1,1.9-1.1
		c0.7,0,1.2,0.4,1.4,1.1c0.1,0.4,0.2,1.1,0.2,2V29.9z M27.9,28.3h-3.6V30c0,0.9,0.3,1.4,0.9,1.4c0.4,0,0.7-0.2,0.8-0.7
		c0-0.1,0-0.5,0-1.2h1.8v0.3c0,0.6,0,1,0,1.2c-0.1,0.4-0.2,0.8-0.4,1.1C27,32.7,26.3,33,25.3,33c-0.9,0-1.7-0.3-2.2-1
		c-0.4-0.5-0.6-1.3-0.6-2.3v-3.5c0-1.1,0.2-1.8,0.6-2.3c0.5-0.7,1.2-1,2.2-1c0.9,0,1.6,0.3,2.1,1c0.4,0.5,0.6,1.3,0.6,2.3V28.3z"/>
</g>
</svg>
