<?xml version="1.0" encoding="utf-8"?>
<!-- Generator: Adobe Illustrator 27.1.1, SVG Export Plug-In . SVG Version: 6.00 Build 0)  -->
<svg version="1.1" id="Ebene_1" xmlns="http://www.w3.org/2000/svg" xmlns:xlink="http://www.w3.org/1999/xlink" x="0px" y="0px"
	 viewBox="0 0 311 90" style="enable-background:new 0 0 311 90;" xml:space="preserve">
<style type="text/css">
	.st0{fill:#646464;}
	.st1{fill:#B296A1;}
</style>
<g>
	<path class="st0" d="M208.8,36.7c-3,3.6-6.7,8.1-9.7,11.7c-1.7,2.1-3.4,4.1-4.7,6.5c-1.5,2.8-2.2,5.9-3.1,9
		c-2.2,7.4-5.3,14.5-9.4,21.1c-0.9,1.4-1.9,2.9-3.3,3.8c-1.4,0.9-3.4,1.2-4.8,0.3c-2.1-1.5-1.8-4.7-0.9-7.1
		c1.9-5.5,5.3-10.4,8.5-15.2l7.6-11.1c1.5-2.2,3-5,1.7-7.3c-1.4,2.1-2.9,4.3-5.2,5.1c-2.3,0.9-5.6-0.4-5.7-2.9
		c-1.4,1.7-3.2,3.2-5.4,3.3c-2.2,0.1-4.5-1.6-4.3-3.8c-1.2,2.4-3.9,4-6.6,3.8c-2.7-0.2-5.2-2-6.1-4.6c-1.5,2.5-4,5.5-6.8,4.5
		c-0.5-0.2-1-0.6-1.6-0.6c-1,0-1.7,0.8-2.3,1.4c-0.7,0.6-1.5,1-2.5,1c-0.9,0.1-1.9-0.2-2.7-0.6c-0.4-0.2-0.8-0.5-1.1-0.8
		c-0.1-0.2-0.8-0.9-0.7-1.2c-0.9,2-3.2,3.3-5.4,2.9c-2.2-0.4-4.1-2-4.1-4.5c-3,2.1-7.2,4.2-10,1.8c-0.5-0.5-1-1.1-1.6-1.3
		c-2.1-0.8-4.2,2.3-6.3,1.4c-0.8-0.3-1.4-1.2-2.3-1.2c-0.5,0-0.9,0.3-1.3,0.6c-2.1,1.4-4.8,1.6-7.1,0.7c-1.2-0.4-2.2-1.1-3.1-2
		c-1-0.9-1.5-2.1-1.8-3.4c-1.1-3.7-0.5-7.8,1.6-11c2.7-4.1,7.9-6.4,12.8-5.6c0.6,0.1,1.2,0.2,1.6,0.6c1,0.8,0.9,2.4,0.7,3.8
		c-0.5,3.5-1.1,6.9-1.6,10.4c-0.2,1.1-0.2,2.7,1,3c0.2,0.1,0.5,0.1,0.7,0c1.9-0.3,3.2-2,3.8-3.8c0.5-1.7,0.5-3.6,0.5-5.4
		c0-9.7,2.1-19.4,6-28.2c1.2-2.6,3.6-5.7,6.3-4.6c2.3,0.9,2.6,4,2.3,6.5c-1.1,10.8-4.5,21.4-10.1,30.7c-0.8,1.3-1.6,2.7-1.5,4.2
		c0.1,0.8,0.4,1.5,1,2c1.1,0.9,2.5,0.4,3.5-0.3c4.2-2.5,6.6-7.3,7.7-12c0.3-1.4,1.5-3.3,2.7-2.4c0.6,0.4,0.8,1.2,0.5,1.8
		c-1.6,3.9-2.5,8.2-2.6,12.5c0,0.5,0.2,1,0.5,1.3c1,1.1,2.5,0.1,3.3-1c2.7-3.7,2.9-8.6,4.7-12.8c0.3-0.6,0.9-0.9,1.5-0.5
		c0.5,0.3,0.5,0.9,0.4,1.3c-0.5,3.1-1,6.2-1.5,9.4c-0.2,1.3-0.3,3,0.9,3.6c0.7,0.4,1.5,0.3,2.1-0.1c1.3-0.8,1.7-2.2,2.1-3.5
		c1-3.6,2.1-7.2,3.1-10.8c0.3-0.9,0.6-1.9,1.5-2.4c0.5-0.3,1.1-0.2,1.5,0.1c0.7,0.5,0.5,1.5,0.3,2.3c-0.6,2-1.2,4-1.6,6
		c-0.3,1.1-2.6,6.9-0.1,6.7c0.4,0,0.8-0.2,1.1-0.6c2.3-2.4,3.6-5.6,5.3-8.5c1.6-2.8,3.7-5.6,6.7-6.8c4.1-1.7,9.2,0.9,8.8,5.7
		c-0.2,1.9-0.9,3.6-1.3,5.4c-0.2,0.9-0.3,1.8-0.2,2.8c0.1,0.7,0.2,1.5,0.7,2.1c1.1,1.2,2.9-0.3,3.7-1.1c1.4-1.3,2.3-3.1,3-4.9
		c1.2-3.1,1.9-6.4,4.3-8.7c0.5-0.5,1.3-0.6,1.9-0.2c1.2,0.7,0.5,2.3-0.1,3.4c-1,1.7-1.8,3.4-2.3,5.2c-0.3,1.1-0.7,2.2-0.9,3.4
		c-0.2,1.1-0.4,3.2,1.2,3.3c0.3,0,0.7-0.1,1-0.2c1-0.5,1.8-1.2,2.6-2c1.1-1.1,2.1-2.4,3-3.7c1.2-1.8,2.2-3.8,3.1-5.7
		c0.3-0.7,2.2-5.2,3.5-3.3c0.2,0.2,0.2,0.6,0.2,0.9l-1.6,10.3L209,31.8c0.2-0.2,0.5-0.4,0.8-0.4c0.9-0.1,1.2,0.9,1.3,1.7
		c0.4,2.8,1,6.2,1.4,8.9c3-1.5,5.7-3.2,8.7-4.4c0.5-0.2,1,0.4,0.7,0.8c-2.7,2.9-8.3,6.4-8.3,6.4c-0.1,0.1,0.2,1.8,0.2,2.1
		c0.1,0.8,0.1,1.6,0.1,2.3c-0.1,1.4-0.5,2.8-1.1,4.1c-1.2,2.3-3.2,4.2-5.6,5.2c-1.8,0.7-3.9,0.7-5.2-1c-2.5-3.4,0.6-7.3,3-9.6
		c0.8-0.7,1.6-1.4,2.4-2.2c0.5-0.5,0.9-0.9,1.4-1.3c0.1-0.1,0.6-0.4,0.6-0.5C209.3,43.9,209,39.5,208.8,36.7 M104.2,51
		c0.5-0.1,1.1-0.2,1.6-0.5c1.3-0.9,1.8-2.5,2.1-4c0.4-1.6,0.7-3.3,0.9-4.9c0.3-1.5,0.6-3.1,0.8-4.7c0-0.5,0-1-0.3-1.4
		c-0.3-0.3-0.7-0.5-1.1-0.6c-2.2-0.4-4.8,0.7-6.2,2.4c-2.2,2.5-3.2,5.6-3,8.9c0.1,1.4,0.8,2.8,1.9,3.7C101.8,50.7,103,51.2,104.2,51
		 M120.8,37c0,0.8-0.1,1.6,0,2.4c0,0.2,0,0.3,0.2,0.4c0.4,0.5,1.1-0.7,1.3-1c0.3-0.5,0.5-1.1,0.7-1.7c0.5-1.4,1-2.7,1.5-4.1
		c1.3-3.4,2.4-6.8,3.3-10.3c0.6-2.1,1-4.3,1.4-6.5c0.2-1.1,0.4-2.2,0.6-3.3c0.1-0.9,0.5-2.7-0.9-2.9c-1.2-0.1-2,1.8-2.5,2.7
		c-1.6,3.1-2.7,6.3-3.5,9.7C121.7,27.3,121,32.2,120.8,37 M170.9,39.8c0-1.1-0.2-2.2-1.1-2.9c-2.4-2.1-5.8,1-7.3,2.9
		c-1.3,1.7-2.3,3.6-2.5,5.7c-0.2,1.9,0.2,4.9,2.3,5.5c1.2,0.3,2.5-0.3,3.3-1.1c1.7-1.5,3-3.4,3.9-5.5c0.5-1.3,1-2.6,1.2-3.9
		C170.9,40.3,170.9,40,170.9,39.8 M188.3,62.3c-0.1,0-0.2-0.1-0.3-0.1c-0.6,1-1.3,1.9-1.9,2.9c-2.6,4.4-5.3,8.8-7.9,13.2
		c-0.7,1.2-1.4,2.4-1.9,3.7c-0.3,0.7-0.5,1.6-0.6,2.4c0,0.2,0.2,0.7,0.4,0.7c0.2,0.1,0.6-0.1,0.8-0.3c0.8-0.9,1.6-1.8,2.2-2.8
		c3.3-5.3,6.2-10.9,8.3-16.8C187.8,64.2,188.1,63.2,188.3,62.3 M211.3,49.1c0-1.2,0-2.4-1.1-1.7c-1.9,1.2-3.6,2.6-5,4.3
		c-0.5,0.7-2.5,4.1-0.3,4.3c0.9,0.1,1.8-0.3,2.5-0.8c1.7-1.1,3.2-2.9,3.7-4.9C211.2,50.2,211.3,49.6,211.3,49.1"/>
	<path class="st0" d="M42.6,40.5c-0.3,1.6-0.4,3.1-0.8,4.6c-0.5,1.7-1.2,3.4-2.2,4.9c-0.8,1.2-2,2.3-3.3,3.1
		c-1.8,1.1-3.8,0.5-5.4-0.7c-0.7-0.5-1.4-1.1-2-1.7c-0.5-0.5-0.9-0.4-1.2,0.1c-0.3,0.5-0.6,1.1-1,1.6c-1.6,1.8-3.5,2.2-6,1.4
		c-2.1-0.6-3.6-2.1-4.5-4.1c-0.8-1.7-1.4-3.5-2.1-5.2c-0.1-0.3-0.3-0.5-0.5-0.8c-0.2,0.3-0.4,0.5-0.6,0.8c-1.5,3.2-2.9,6.4-4.5,9.5
		c-0.8,1.6-2.5,2.7-4.2,2.3c-1.1-0.2-1.8-1-2.5-1.8c-1.3-1.5-1.7-3.3-2-5.1c-0.7-5.5,1.2-10,4.9-14c0.5-0.5,1-1,1.5-1.5
		c1.7-1.7,3.9-2.3,6.2-2.3c0.5,0,0.8,0,1-0.6c0.5-1.7,1.1-3.4,1.6-5.1c0.1-0.3,0.1-0.8,0-0.8c-0.3-0.1-0.6-0.1-0.9,0
		c-1,0.3-1.9,0.7-3,0.8c-1.1,0.1-1.9-0.5-2.6-1.4c-0.6-0.8-0.4-1.7,0.5-2c1-0.4,2.2-0.7,3.2-1c1.4-0.5,2.8-1,4.2-1.6
		c0.3-0.1,0.7-0.6,0.8-1c1.2-3.8,2.6-7.6,4.6-11c1.2-2.1,2.6-4,4.1-5.9c0.6-0.8,1.6-1.3,2.6-1.7c2.2-1,4,0.3,4.5,2.4
		c0.5,1.9,0.2,3.8-0.5,5.7c-1.1,3.2-3.4,5.5-5.8,7.7c-1.8,1.7-3.6,3.2-5.4,4.9c-0.6,0.5-1,1.3-1.2,2.1c-1.2,4.2-2.4,8.4-3.5,12.6
		c-0.7,2.8,0.2,5.6,1,8.4c0.3,1,0.9,2,1.4,3c0.2,0.5,0.5,0.9,0.9,1.3c1.6,1.9,3,1.8,4.2-0.3c1.4-2.5,2.6-5.1,3.9-7.7
		c0.9-1.8,2-3.4,3.6-4.6c1.7-1.3,4.1-1.4,6.1-0.8c1.1,0.3,1.8,0.9,2.7,1.5c1.1,0.6,2.5,0.6,3.7,0.4c1.7-0.2,2.8-1.2,3.8-2.4
		c0.9-1,1.8-1.1,2.9-0.5c0.7,0.4,0.8,1,0.7,1.6c-0.2,1.8-0.4,3.6-0.6,5.4c-0.2,1.3-0.3,2.5-0.5,3.8c-0.1,0.7-0.3,1.5-0.3,2.2
		c0,0.2-0.1,1,0.1,1.1c0.4,0.2,0.8-0.5,0.9-0.8c0.4-0.4,0.7-1.3,1-1.8c0.3-0.6,0.6-1.2,1-1.8c0.7-1.3,1.4-2.6,2.1-3.9
		c1-1.7,1.9-3.5,2.9-5.2c0.8-1.2,3.2-1.1,3.8,0.2c0.2,0.3,0.1,0.9-0.1,1.3c-0.4,0.8-0.9,1.6-1.3,2.4c-0.5,1-1,1.9-1.5,2.9
		C58.7,42.2,58,43,57.9,44c0,0.3,0,0.5,0.2,0.7c0.5,0.6,1.9,0.4,2.6,0.2c0.8-0.3,1.5-0.9,1.9-1.7c1.2-2.4,2.6-4.6,4-6.9
		c0.3-0.6,0.9-1,1.3-1.5c1.9-2.4,6.8-0.8,7.1,2.1c0.1,0.8-0.1,1.7-0.5,2.3c-1.1,1.8-2.6,3.4-4.1,4.8c-0.8,0.7-1.7,1.4-2.6,2
		c-0.6,0.4-2,1-2.1,1.8c-0.3,1.7,0.6,2.6,2.9,3.2c2.2,0.6,4.4,0.2,6.4-0.9c1-0.5,2.1-1.1,3.2-1.4c1.1-0.3,1.7,0.6,1.2,1.6
		c-0.2,0.4-0.6,0.9-1,1.1c-3.5,2.3-7.4,3.1-11.5,2c-2-0.5-3.4-1.8-4.2-3.7c-0.4-1-1-1.6-2.2-1.5c-1.4,0-2.7-0.5-3.8-1.3
		c-0.7-0.5-1.1-0.3-1.5,0.4c-1.1,1.9-2.3,3.7-3.5,5.5c-0.5,0.7-1.1,1.4-1.7,2c-0.7,0.7-2.3,0.5-3-0.3c-0.9-0.9-1.2-1.9-1.1-3.1
		c0.2-3.2,0.4-6.5,0.6-9.7c0-0.3,0.1-0.6,0.1-0.9c0-0.7-0.2-1-1-0.8C44.6,40.3,43.5,40.3,42.6,40.5 M38.7,42.3c0-0.4,0.1-0.8,0-1.1
		c-0.1-1.4-0.8-2.5-2-3.1c-1.2-0.6-2.3-0.2-3.3,0.6c-1.5,1.2-2.1,2.9-2.6,4.6c-0.4,1.5-0.4,3.1,0.1,4.6c0.9,2.4,3.5,2.8,5.2,1
		C37.7,46.9,38.7,44.8,38.7,42.3 M11.6,36c0-0.1-0.2-0.2-0.5-0.2c-0.4-0.1-0.8-0.1-1.1,0c-0.7,0.1-1.3,0.5-1.9,0.9
		c-1.5,1.3-2.5,2.9-3.4,4.6c-1.3,2.5-2.4,5.6-1.7,8.4c0.3,1,0.8,2.7,1.9,1.5c0.7-0.7,1-1.7,1.5-2.5c0.7-1.4,1.3-2.7,1.9-4.2
		s1.1-2.8,1.7-4.3c0.3-0.7,0.6-1.4,0.8-2.2c0.2-0.4,0.3-0.8,0.5-1.2c0.1-0.2,0.2-0.4,0.2-0.6C11.6,36.2,11.6,36.1,11.6,36
		 M21.8,15.6c0.7,0.4,3.1-2.2,3.6-2.7c1.7-1.7,3.1-3.5,4.1-5.6c0.3-0.7,0.5-1.6,0.7-2.4c0.1-0.6,0.1-1.3-0.6-1.6
		C29,3,28.5,3.5,28.1,3.9c-2.6,2.8-4.5,6-5.8,9.6C22.1,14.1,21.9,14.9,21.8,15.6 M65.4,43.8c0.1,0.1,0.2,0.1,0.4,0.1
		c0.4-0.1,0.8-0.3,1.1-0.5c0.5-0.4,1-0.7,1.4-1.1c1.4-1.1,2.6-2.4,3.8-3.7c0.6-0.7,0.4-1.4-0.3-2c-0.7-0.5-1.4-0.5-2.1,0.3
		c-0.9,1.1-1.8,2.2-2.6,3.4c-0.6,0.9-1.4,1.8-1.7,2.8C65.4,43.4,65.3,43.7,65.4,43.8"/>
	<path class="st0" d="M268.2,49.6c-0.9,0.9-1.8,2.1-2.9,3.1c-2.4,2.2-5.1,2.4-7.5,0.1c-0.9-0.8-1.9-0.1-2.5,0.5c-0.8,0.7-2,1-3,0.9
		c-1.8-0.2-3.4-1-4.2-2.5c-1.2-2.2-1.3-4.5-0.2-6.7c1-2.1,2.4-4,3.6-6c0.8-1.3,1.5-2.6,2.2-4c0.7-1.3,0.4-2.7-0.6-3.3
		c-1-0.7-2.4-0.6-3.4,0.1c-0.5,0.4-0.9,0.9-1.3,1.4c-0.5,0.7-1,1.4-1.5,2.1c-0.7,1-1.2,1.3-2,0.9c-1-0.4-1.2-1.1-0.8-2.3
		c0.9-2.9,4.7-6.2,8-5.8c1.9,0.2,3.3,1.2,4.2,2.7c1.3,2.2,1.4,4.5,0.1,6.8c-1.4,2.3-2.8,4.6-4.2,6.9c-0.5,0.9-1,1.9-1.5,2.9
		c-0.2,0.5-0.4,1.1-0.4,1.6c0,0.8,0.4,1.5,1.1,1.9c0.4,0.2,0.8,0.4,1.2,0.3c0.6-0.1,1-0.5,1.4-0.9c1.2-1.5,2.4-3.1,3-5
		c0.1-0.4,0.3-0.9,0.5-1.3c0.5-1.2,0.8-1.3,1.8-1c1.2,0.4,1.6,0.9,1.3,2c-0.3,1.3-0.8,2.6-1.2,4c-0.1,0.4,0,0.8,0.1,1.2
		c0.4,1.4,1.3,1.6,2.4,0.6c2.4-2.3,3.1-5.1,2.6-8.3c-0.6-3.4-0.7-7.3,1.6-10.2c0.8-1,1.9-1.5,3.1-1.5c1,0,2,0.4,2.1,1.5
		c0.1,0.9-0.5,1.5-1.3,1.7c-1.4,0.4-2.4,1.5-2.9,2.9c-0.5,1.6-0.2,3.2-0.1,4.8c0,0.6,0.1,1.1,0.1,1.7c0.1,0.9,0,1.8,0.2,2.8
		c0.3-0.5,0.6-1,0.8-1.5c0.7-1.5,1.4-3,2.2-4.4c0.3-0.5,0.8-1,1.2-1.4c0.7-0.6,1.4-0.3,1.5,0.6c0.1,0.8-0.1,1.5-0.3,2.3
		c-0.5,2.3-1,4.5-1.4,6.7c-0.1,0.6,0,1.4,0.5,1.8c0.6,0.7,1.3,0.2,1.8-0.4c1.1-1.4,2-2.9,3-4.3c1-1.5,2-3.2,3.1-4.6
		c1-1.3,1.8-1.3,3.1-0.5c1.6,1,1.9-0.6,3.2-1.3c1.5-0.9,3.1-0.2,4.2,1c1.8,2.1,1.1,4.9,1,7.3c0,0.7,0.1,1.4,0.3,2
		c0.6,2.1,2.7,2.7,4.4,1.3c1.5-1.2,2.3-2.9,3-4.6c0.8-1.8,1.2-3.7,1.8-5.6c0.3-0.8,0.7-1.6,1.3-2.3c0.4-0.5,1-0.2,1,0.4
		c0,0.6-0.1,1.1-0.2,1.7c-0.1,1.1-0.3,2.3-0.2,3.5c0.1,1,0.5,2.1,1,2.9c0.2,0.4,0.6,0.7,1,0.6c0.2,0,0.4-0.2,0.5-0.3
		c1.5-1.3,2.9-3,4.7-3.9c0.2-0.1,0.5-0.2,0.7-0.1c0.2,0.1,0.3,0.4,0.2,0.6c-0.1,0.6-0.5,1.1-0.9,1.5c-1.2,1.3-2.3,2.7-3.4,4.1
		c-0.2,0.2-0.4,0.5-0.4,0.8c0,0.4,0.2,0.7,0.4,1.1c0.8,1.3,1.2,2.9,1,4.4c-0.2,1.3-0.8,2.5-1.5,3.6c-0.6,0.9-1.2,1.7-2.1,2.2
		c-1.3,0.7-2.9,0.7-4.2,0c-0.9-0.5-1.7-1.3-2-2.3c-0.4-1.3,0-2.7,0.6-3.9c0.9-1.8,2.1-3.4,3.3-5c0.2-0.3,0.4-0.6,0.4-0.9
		c0-0.5-0.3-0.8-0.6-1.2c-0.6-0.6-1.5,1.3-1.7,1.6c-0.9,1.3-1.9,2.5-3.1,3.6c-1.1,1-3.5,1-4.8,0.2c-2.1-1.4-3-3.4-3.1-5.8
		c-0.1-1.6,0.3-3.3,0.2-4.9c-0.2-1.9-1.5-2.1-2.5-0.7c-0.7,1-1.4,2.3-1.5,3.5c-0.2,2-0.6,4.1-0.9,6.1c-0.1,0.7-0.4,1.1-1.1,1.2
		c-0.7,0.1-1.2-0.1-1.6-0.9c-0.6-1.5-0.1-3,0.2-4.5c0.1-0.9,0.3-1.8,0.5-2.6c0.1-0.5,0.2-1.1,0.2-1.6c0-0.5-0.4-0.8-0.8-0.5
		c-0.5,0.4-0.8,1.2-1.1,1.7c-0.9,1.5-1.7,3-2.6,4.5c-0.6,1-1.4,2-2.2,3c-0.9,1.1-2.1,1.7-3.6,1.4C269.7,52.8,269.1,51.2,268.2,49.6
		 M303.9,51.4c-0.1,0-0.2,0.1-0.3,0.2c-0.9,1-1.8,2-2.5,3.1c-0.7,1-1.7,2.5-1,3.7c1.4,2.3,3.8-0.1,4.5-1.6c0.3-0.8,0.7-1.7,0.7-2.5
		c0.1-1-0.3-2.3-1.1-2.9C304.1,51.5,304,51.4,303.9,51.4C303.9,51.4,303.9,51.4,303.9,51.4"/>
	<path class="st0" d="M274.1,37.4c-0.3,0-0.5-0.1-0.8-0.3c-0.6-0.4-1.5-1.4-1.3-2.3c0.1-0.7,0.8-0.9,1.4-0.6c0.5,0.2,0.9,0.6,1.1,1
		c0.3,0.4,0.7,1.1,0.5,1.6C274.9,37.2,274.5,37.4,274.1,37.4"/>
	<path class="st1" d="M152.3,70.6c1.3,3,2.1,5.1,2.6,6.1h-5.1C151,73.6,151.9,71.6,152.3,70.6 M151.7,69c-2.4,5.7-4,9.5-4.8,11.4h0
		h0h1.2c0,0,0.1-0.2,0.3-0.6c0.6-1.4,0.9-2.1,0.9-2.1h6c0,0,0.2,0.3,0.4,0.9c0.5,1.1,0.7,1.7,0.8,1.8h1.3h0
		c-0.1-0.1-0.1-0.2-0.1-0.3c-2-4.7-3.5-8.2-4.4-10.6c-0.2-0.4-0.3-0.6-0.3-0.6H151.7z M129.9,69v11.4c0,0,0,0,0,0h1.2c0,0,0,0,0,0
		v-9.7c0.6,0.9,1,1.5,1.3,1.9c3,4.5,4.5,6.8,4.5,6.8c0.3,0.5,0.5,0.9,0.6,0.9h1.4l0,0V69l0,0h-1.1l0,0v9.7h0
		c-0.8-1.3-1.5-2.2-1.9-2.9c-3-4.5-4.5-6.8-4.5-6.8L129.9,69L129.9,69z M116.7,70.6c1.3,3,2.1,5.1,2.6,6.1h-5.1
		C115.4,73.6,116.2,71.6,116.7,70.6 M116.1,69c-2.4,5.7-4,9.5-4.8,11.4h0h0h1.2c0,0,0.1-0.2,0.3-0.6c0.6-1.4,0.9-2.1,0.9-2.1h6
		c0,0,0.2,0.3,0.4,0.9c0.5,1.1,0.7,1.7,0.8,1.8h1.3h0c-0.1-0.1-0.1-0.2-0.1-0.3c-2-4.7-3.5-8.2-4.4-10.6c-0.2-0.4-0.3-0.6-0.3-0.6
		H116.1z M102.7,69v8.1c0,0.5-0.2,1-0.5,1.4c0,0.1-0.1,0.2-0.3,0.3c-0.4,0.3-0.8,0.5-1.2,0.5h-0.7c-0.4,0-0.7-0.1-1.1-0.4
		c-0.1-0.1-0.3-0.2-0.4-0.4c-0.4-0.5-0.5-0.9-0.5-1.4v-0.6l0,0h-1.1v0v0.6c0,0.4,0.1,0.8,0.3,1.3c0.4,0.8,0.9,1.3,1.7,1.7
		c0.4,0.2,0.8,0.2,1.1,0.2h0.8c0.3,0,0.6-0.1,0.9-0.2c0.1,0,0.3-0.1,0.4-0.2c0.1-0.1,0.3-0.1,0.4-0.2c0.1,0,0.2-0.2,0.4-0.3
		c0.2-0.2,0.4-0.4,0.5-0.5c0.4-0.6,0.6-1.2,0.6-1.8V69h0H102.7z M87.8,69v11.4h0H89V69H87.8L87.8,69z M73.6,69v11.4h0H80v-1.1h-5.3
		V69H73.6L73.6,69z M43.5,69c2.1,2.9,3.5,4.8,4.2,5.8v5.6l0,0h1.2l0,0v-5.6c2.1-2.9,3.5-4.8,4.2-5.8l0,0h-1.4
		c-1.7,2.4-2.8,3.9-3.3,4.7c0,0,0,0-0.1,0c-2.1-3-3.2-4.5-3.3-4.7L43.5,69L43.5,69z M33.2,75c0.3,0,0.6,0,0.9,0.1
		c1,0.3,1.5,0.9,1.5,1.7v0.4c0,0.8-0.3,1.4-0.9,1.7c-0.4,0.2-0.8,0.3-1.2,0.3c-1.5,0-2.4,0-2.9,0h-0.1V75H33.2z M33.1,70.1
		c0.3,0,0.5,0,0.8,0.1c0.9,0.3,1.4,0.8,1.4,1.6V72c0,0.3-0.1,0.6-0.2,0.9c-0.5,0.7-1.1,1-2,1h-2.5v-3.8H33.1z M29.3,69v11.4
		c0,0,0,0,0,0h1.2h3.1c0.3,0,0.8-0.1,1.3-0.3c1.3-0.6,1.9-1.5,1.9-2.9v-0.4c0-0.6-0.2-1.2-0.5-1.7c-0.4-0.4-0.7-0.7-1.1-0.9
		c0.8-0.6,1.2-1.4,1.2-2.3v-0.2c0-0.6-0.2-1.1-0.5-1.6c-0.7-0.8-1.6-1.2-2.8-1.2L29.3,69L29.3,69z"/>
	<path class="st1" d="M302.3,70.6c1.3,3,2.1,5.1,2.6,6.1h-5.1C301,73.6,301.9,71.6,302.3,70.6 M301.7,69c-2.4,5.7-4,9.5-4.8,11.4h0
		h0h1.2c0,0,0.1-0.2,0.3-0.6c0.6-1.4,0.9-2.1,0.9-2.1h6c0,0,0.2,0.3,0.4,0.9c0.5,1.1,0.7,1.7,0.8,1.8h1.3h0
		c-0.1-0.1-0.1-0.2-0.1-0.3c-2-4.7-3.5-8.2-4.4-10.6c-0.2-0.4-0.3-0.6-0.3-0.6H301.7z M275.7,69c1.3,4.6,2.2,8,2.9,10.3
		c0.2,0.8,0.3,1.1,0.3,1.1h1.1c1.6-4.6,2.6-7.6,3.2-9.1c1.3,3.8,2.3,6.6,2.9,8.5c0.1,0.4,0.2,0.7,0.3,0.7h1.1c0,0,0-0.1,0.1-0.2
		c1.6-5.6,2.6-9.4,3.2-11.2h0h-1.2h0c-1.3,4.6-2.1,7.7-2.5,9.3h0c-1.3-3.7-2.2-6.4-2.9-8.2c-0.2-0.7-0.3-1-0.4-1h-0.9
		c-0.3,0.9-0.5,1.5-0.6,1.7c-1.3,3.8-2.2,6.3-2.6,7.5h0c-1.1-3.9-1.9-6.8-2.4-8.8c-0.1-0.3-0.1-0.5-0.2-0.5H275.7z M260,69.8
		c-0.3,0.2-0.7,0.5-1.2,1c-1.1,1.2-1.7,2.5-1.7,4v0.1c0,1,0.3,2,0.8,2.9c0.2,0.4,0.5,0.8,1,1.2c1.1,1,2.4,1.5,3.9,1.5
		c1.2,0,2.3-0.3,3.3-1c1-0.8,1.8-1.8,2.2-3c0.2-0.7,0.3-1.3,0.3-1.9l0,0h-4.6l0,0v1.1c0,0,0,0,0,0h3.4c0,0.2-0.1,0.4-0.1,0.6
		c-0.2,0.5-0.3,0.8-0.5,1c-0.1,0.3-0.4,0.6-0.9,1c-0.9,0.7-1.9,1.1-3,1.1c-1.3,0-2.4-0.5-3.4-1.5c-0.8-0.9-1.1-1.9-1.1-3v-0.1
		c0-1.1,0.4-2.1,1.1-3.1c1-1,2.1-1.5,3.3-1.5h0.1c1.2,0,2.2,0.4,3.1,1.3c0.4,0.5,0.7,0.8,0.8,1.1h0c0,0,0.4-0.2,1-0.5
		c0,0,0-0.1,0-0.1c-0.2-0.4-0.6-0.8-1-1.3c-1.2-1.1-2.5-1.6-3.9-1.6h-0.1C261.8,69,260.9,69.3,260,69.8 M240.7,69.8
		c-0.3,0.2-0.7,0.5-1.2,1c-1.1,1.2-1.7,2.5-1.7,4v0.1c0,1,0.3,2,0.8,2.9c0.2,0.4,0.5,0.8,1,1.2c1.1,1,2.4,1.5,3.9,1.5
		c1.2,0,2.3-0.3,3.3-1c1-0.8,1.8-1.8,2.2-3c0.2-0.7,0.3-1.3,0.3-1.9l0,0h-4.6l0,0v1.1c0,0,0,0,0,0h3.4c0,0.2-0.1,0.4-0.1,0.6
		c-0.2,0.5-0.3,0.8-0.5,1c-0.1,0.3-0.4,0.6-0.9,1c-0.9,0.7-1.9,1.1-3,1.1c-1.3,0-2.4-0.5-3.4-1.5c-0.8-0.9-1.1-1.9-1.1-3v-0.1
		c0-1.1,0.4-2.1,1.1-3.1c1-1,2.1-1.5,3.3-1.5h0.1c1.2,0,2.2,0.4,3.1,1.3c0.4,0.5,0.7,0.8,0.8,1.1h0c0,0,0.4-0.2,1-0.5
		c0,0,0-0.1,0-0.1c-0.2-0.4-0.6-0.8-1-1.3c-1.2-1.1-2.5-1.6-3.9-1.6h-0.1C242.6,69,241.6,69.3,240.7,69.8 M225.7,70.6
		c1.3,3,2.1,5.1,2.6,6.1h-5.1C224.5,73.6,225.3,71.6,225.7,70.6 M225.1,69c-2.4,5.7-4,9.5-4.8,11.4h0h0h1.2c0,0,0.1-0.2,0.3-0.6
		c0.6-1.4,0.9-2.1,0.9-2.1h6c0,0,0.2,0.3,0.4,0.9c0.5,1.1,0.7,1.7,0.8,1.8h1.3h0c-0.1-0.1-0.1-0.2-0.1-0.3c-2-4.7-3.5-8.2-4.4-10.6
		c-0.2-0.4-0.3-0.6-0.3-0.6H225.1z M204.2,69v11.4c0,0,0,0,0,0h1.1l0,0v-3.4c0-0.1,0.6-0.6,1.6-1.7c0.4,0.5,0.7,0.8,0.9,1
		c1.8,2,2.9,3.4,3.5,4.1h1.6h0c-2.6-3-4.3-4.9-5.2-5.9v0c2.6-2.7,4.3-4.6,5.1-5.5v0h-1.5c0,0,0,0-0.1,0c-3,3.2-4.9,5.3-5.9,6.3V69
		l0,0L204.2,69L204.2,69z"/>
</g>
</svg>
