<?xml version="1.0" encoding="utf-8"?>
<!-- Generator: Adobe Illustrator 27.1.1, SVG Export Plug-In . SVG Version: 6.00 Build 0)  -->
<svg version="1.1" id="Ebene_1" xmlns="http://www.w3.org/2000/svg" xmlns:xlink="http://www.w3.org/1999/xlink" x="0px" y="0px"
	 viewBox="0 0 17 17" style="enable-background:new 0 0 17 17;" xml:space="preserve">
<style type="text/css">
	.st0{fill:#646469;}
</style>
<g>
	<path class="st0" d="M6.9,11.4c2.6,0,4.7-2.1,4.7-4.7c0-2.6-2.1-4.7-4.7-4.7C4.3,1.9,2.2,4,2.2,6.6C2.2,9.2,4.3,11.3,6.9,11.4
		 M15.3,15.8c-0.2-0.1-0.3-0.2-0.5-0.4c-1.3-1.3-2.7-2.7-4-4c0,0-0.1-0.1-0.1-0.1c-1.5,1.2-3.2,1.6-5.1,1.2C4.1,12.1,2.9,11.3,2,10
		C0.3,7.5,0.7,4.3,2.8,2.3c2.3-2.2,5.7-2.2,8-0.3c2.4,2,3,5.6,0.8,8.4c0,0,0.1,0.1,0.1,0.1c1.3,1.3,2.7,2.7,4,4
		c0.1,0.1,0.2,0.3,0.4,0.5v0.3c-0.1,0.3-0.3,0.4-0.5,0.5H15.3z"/>
</g>
</svg>
