<?xml version="1.0" encoding="utf-8"?>
<!-- Generator: Adobe Illustrator 27.1.1, SVG Export Plug-In . SVG Version: 6.00 Build 0)  -->
<svg version="1.1" id="Ebene_1" xmlns="http://www.w3.org/2000/svg" xmlns:xlink="http://www.w3.org/1999/xlink" x="0px" y="0px"
	 viewBox="0 0 9 8" style="enable-background:new 0 0 9 8;" xml:space="preserve">
<style type="text/css">
	.st0{fill:#646469;}
</style>
<g>
	<path class="st0" d="M8.4,2.8c0,0.6-0.1,1.2-0.5,1.7c-0.3,0.4-0.6,0.8-1,1.1C6.2,6.3,5.4,6.9,4.7,7.6C4.5,7.8,4.2,7.8,4,7.6
		c-0.6-0.5-1.2-1-1.7-1.5C1.8,5.7,1.4,5.2,1,4.7C0.7,4.3,0.5,3.9,0.4,3.4c-0.1-0.8,0-1.5,0.5-2.1s1.2-0.8,2-0.7
		C3.5,0.7,4,1.1,4.4,1.5C4.7,1.2,5,0.8,5.5,0.7c0.4-0.2,0.9-0.1,1.4,0C7.7,1,8.3,1.9,8.4,2.8C8.4,2.8,8.4,2.8,8.4,2.8"/>
</g>
</svg>
