<?xml version="1.0" encoding="utf-8"?>
<!-- Generator: Adobe Illustrator 27.1.1, SVG Export Plug-In . SVG Version: 6.00 Build 0)  -->
<svg version="1.1" id="Ebene_1" xmlns="http://www.w3.org/2000/svg" xmlns:xlink="http://www.w3.org/1999/xlink" x="0px" y="0px"
	 viewBox="0 0 20 20" style="enable-background:new 0 0 20 20;" xml:space="preserve">
<style type="text/css">
	.st0{fill:#646469;}
</style>
<g>
	<path class="st0" d="M16.3,3.2c-0.6-0.6-1.3-1.1-2-1.5c-0.1,0-0.1,0-0.2,0c-0.3,0.1-0.6,0.3-0.9,0.4c-0.1,0.1-0.3,0.1-0.4,0.1
		c-0.3,0-0.6,0-0.8,0c-0.1,0-0.1,0-0.2,0.1c-0.1,0.2-0.2,0.5-0.4,0.7c0.5,0.2,0.5,0.2,0.9,0.1c0.2-0.1,0.5-0.1,0.7-0.2
		c0.1,0,0.3,0,0.4,0c0.7,0.3,1.5,0.4,2.2,0.5c0.1,0,0.1,0,0.2,0C16,3.4,16.1,3.3,16.3,3.2 M8.9,2.2c-0.2,0-0.5-0.1-0.7-0.1
		C7.6,2,7.1,1.9,6.6,1.4c-0.1-0.1-0.2-0.1-0.3,0C4.4,2.3,3,3.6,2,5.5C1.8,5.9,1.7,6.2,1.9,6.7C2,7,2,7.3,2.2,7.5
		C2.4,7.8,2.7,7.9,3,8.1c0.2,0.1,0.4,0.2,0.6,0.4C3.6,8,3.6,7.9,3.3,7.7C3.2,7.6,3.2,7.5,3.1,7.4C2.9,7.3,2.9,7.2,2.9,7
		c0-0.2,0-0.5,0-0.7C2.9,6,3,5.9,3.3,5.8c0.4-0.1,0.8-0.1,1.2-0.2C5,5.6,5.5,5.5,6,5.2c0.6-0.4,1.1-0.8,1.4-1.5
		c0.2-0.6,0.6-0.9,1.2-1c0,0,0,0,0,0c0.1,0,0.1-0.1,0.1-0.1C8.9,2.4,8.9,2.3,8.9,2.2 M6.8,17c0-0.4,0-0.7,0-1.1
		c0-0.2,0.1-0.3,0.2-0.4c0.2-0.1,0.3-0.3,0.5-0.4C7.7,15,7.9,14.9,8,14.7c0.1-0.2,0-0.5,0-0.7c0-0.2,0.1-0.3,0.2-0.4
		c0.3-0.3,0.7-0.7,1-1c0,0,0.1-0.1,0.1-0.1c0.1-0.4,0.2-0.7,0.2-1.1c-0.3,0-0.5,0-0.8,0c-0.2,0-0.3-0.1-0.4-0.2
		c-0.2-0.4-0.5-0.8-0.7-1.3C7.6,9.7,7.5,9.7,7.4,9.7c-0.6,0-1.2,0-1.8,0c-0.2,0-0.4-0.1-0.4-0.3C5,9.2,4.9,8.9,4.7,8.6
		C4.3,9,4,9.4,3.6,9.8c0,0,0,0.1,0,0.2c0,0.4,0,0.8,0.2,1.1c0.1,0.1,0.1,0.3,0.2,0.5c0,0.1,0.1,0.1,0.2,0.2C4.6,11.8,5,11.9,5.5,12
		c0.3,0.1,0.3,0.2,0.3,0.4c0,0.6,0,1.2,0,1.8c-0.1,0.8,0.1,1.6,0.5,2.4C6.4,16.9,6.5,17,6.8,17 M18,5.5c-0.6,0.2-1.1,0.4-1.7,0.6
		c-0.1,0-0.2,0.1-0.4,0C15.5,6,15,5.9,14.4,5.9c-0.3,0-0.5-0.2-0.6-0.4c-0.1-0.2-0.2-0.5-0.4-0.6c-0.2-0.1-0.5,0-0.7,0
		c-0.3,0-0.6-0.1-0.9,0c-0.3,0.1-0.5,0.4-0.7,0.6c0,0,0,0,0,0c0,0.1-0.1,0.1-0.1,0.2c0.1,0.6,0.2,1.1,0.2,1.7c0,0.1,0.1,0.2,0.2,0.2
		c0.6,0.2,1.1,0.5,1.7,0.7c0.1,0,0.2,0,0.3,0c0.3-0.1,0.6-0.1,0.9-0.2c0.2,0,0.3,0,0.5,0.1c0.3,0.2,0.5,0.4,0.8,0.5
		c0.1,0.1,0.2,0.2,0.2,0.4c0,0.3,0,0.6,0,0.9c0,0.1,0,0.3,0.1,0.4c0.2,0.5,0.4,1,0.7,1.4c0.4,0.6,0.6,1.3,0.5,2c0,0,0,0.1,0,0.1
		c0,0,0,0.1,0,0.1c0.1,0.2,0.3,0.3,0.4,0.4C19.3,12,19.6,8.5,18,5.5 M17.7,5c-0.3-0.4-0.7-0.9-1-1.3c-0.2,0.2-0.5,0.3-0.7,0.4
		c-0.1,0.1-0.2,0.1-0.3,0.1C15,4,14.2,3.9,13.4,3.6c-0.1,0-0.3-0.1-0.4,0c-0.7,0.2-1.4,0.3-2-0.1c0,0,0,0,0,0
		c-0.3-0.1-0.3-0.3-0.2-0.5c0.2-0.4,0.4-0.8,0.6-1.2c0.1-0.2,0.2-0.2,0.4-0.2c0.3,0,0.6,0,0.9,0c0.3,0,0.6-0.2,0.8-0.3
		C12,0.5,8.7,0.4,7.2,1.1c0.2,0.1,0.3,0.2,0.5,0.2c0.5,0.1,1.1,0.2,1.6,0.3c0.3,0.1,0.4,0.2,0.3,0.5C9.6,2.4,9.5,2.7,9.4,2.9
		C9.3,3.1,9.2,3.2,9,3.2C8.9,3.3,8.7,3.4,8.5,3.4c-0.1,0-0.2,0.1-0.3,0.2C7.9,4.1,7.7,4.5,7.4,4.9C7.4,5,7.3,5.1,7.2,5.2
		C6.7,5.5,6.2,5.8,5.7,6C5.7,6.1,5.5,6.1,5.4,6.2C4.9,6.2,4.3,6.3,3.7,6.4c-0.1,0-0.2,0.1-0.2,0.2c0,0.3,0.1,0.5,0.3,0.7
		c0.3,0.2,0.4,0.5,0.4,0.9c0,0,0,0.1,0,0.2C4.3,8.2,4.4,8,4.5,8C4.8,7.7,5,7.7,5.2,8.1c0.1,0.3,0.3,0.6,0.4,0.9
		C5.7,9,5.7,9.1,5.8,9.1c0.6,0,1.2,0,1.8,0c0.2,0,0.3,0.1,0.4,0.2c0.2,0.4,0.5,0.8,0.7,1.2c0.1,0.1,0.1,0.2,0.3,0.1
		c0.3,0,0.5,0,0.8,0c0.4,0,0.5,0.1,0.4,0.5c-0.1,0.3-0.2,0.7-0.2,1c0,0.4-0.2,0.7-0.5,1c-0.1,0.1-0.2,0.2-0.3,0.3
		c-0.4,0.3-0.6,0.7-0.5,1.3c0,0.2-0.1,0.3-0.2,0.4c-0.3,0.2-0.6,0.5-0.9,0.7c-0.1,0.1-0.1,0.1-0.1,0.2c0,0.4,0,0.8,0,1.2
		c0,0.3-0.2,0.5-0.5,0.4c-0.3-0.1-0.5-0.2-0.8-0.3c-0.2,0-0.3-0.1-0.3-0.3c-0.2-0.5-0.4-0.9-0.6-1.4c0-0.1-0.1-0.3-0.1-0.4
		c0-0.8,0-1.6,0-2.4v-0.4c-0.4-0.1-0.8-0.2-1.2-0.2c-0.2,0-0.3-0.1-0.4-0.3c-0.1-0.2-0.2-0.5-0.3-0.7c-0.2-0.4-0.3-0.8-0.3-1.2
		c0-0.4,0.1-0.7,0.4-0.9c0,0,0.1-0.1,0.1-0.1C3.3,9.1,3.2,9,3.2,9C2.8,8.7,2.4,8.4,1.9,8.2C1.7,8,1.6,7.9,1.5,7.7
		c0-0.2-0.1-0.4-0.2-0.6c-1.2,4,0.5,8.8,4.8,10.8c4.2,2,8.8,0.4,11.1-2.8c-0.2-0.2-0.4-0.4-0.6-0.6c-0.1-0.1-0.1-0.2-0.2-0.4
		c0-0.3,0-0.6,0-0.9c0-0.1,0-0.2-0.1-0.4c-0.2-0.5-0.5-1-0.8-1.5c-0.4-0.6-0.5-1.2-0.5-1.9c0-0.1,0-0.2-0.1-0.2
		c-0.2-0.1-0.4-0.4-0.7-0.4c0,0-0.1,0-0.1,0C14,8.9,13.7,9,13.4,9c-0.1,0-0.2,0-0.3,0c-0.7-0.3-1.5-0.6-2.2-0.9
		c-0.1,0-0.2-0.2-0.2-0.3c-0.1-0.7-0.2-1.5-0.3-2.2c0-0.2,0-0.3,0.1-0.4c0.3-0.3,0.6-0.6,0.9-0.9c0.1-0.1,0.2-0.1,0.3-0.1
		c0.6,0,1.2,0,1.8,0c0.2,0,0.3,0.1,0.3,0.2c0.2,0.2,0.3,0.5,0.5,0.7c0,0.1,0.1,0.1,0.2,0.1c0.3,0.1,0.6,0.1,0.8,0.1
		c0.3,0,0.5,0.1,0.8,0.1C16.7,5.3,17.2,5.1,17.7,5 M9.6,0h1c0,0,0.1,0,0.1,0c1.4,0.1,2.6,0.5,3.8,1.1c2.7,1.5,4.4,3.8,5,6.9
		c0.1,0.4,0.1,0.7,0.2,1.1v1.1c0,0.1,0,0.1,0,0.2c-0.1,0.5-0.1,0.9-0.2,1.4c-0.9,4-4.1,6.9-8.1,7.5c-0.3,0-0.5,0.1-0.8,0.1H9.4
		c-0.1,0-0.1,0-0.2,0c-0.5-0.1-1.1-0.1-1.6-0.3c-2.7-0.7-4.8-2.3-6.2-4.7c-1.1-2-1.5-4.2-1-6.5C0.6,7.3,0.8,6.8,1,6.2
		C1,6.1,1,6,1,5.9c0.1-0.1,0.2-0.2,0.2-0.4c1.5-3,3.8-4.8,7.1-5.4C8.7,0.1,9.2,0,9.6,0"/>
</g>
</svg>
