<?xml version="1.0" encoding="utf-8"?>
<!-- Generator: Adobe Illustrator 27.1.1, SVG Export Plug-In . SVG Version: 6.00 Build 0)  -->
<svg version="1.1" id="Ebene_1" xmlns="http://www.w3.org/2000/svg" xmlns:xlink="http://www.w3.org/1999/xlink" x="0px" y="0px"
	 viewBox="0 0 21 19" style="enable-background:new 0 0 21 19;" xml:space="preserve">
<style type="text/css">
	.st0{fill:#FFFFFF;}
</style>
<g>
	<g>
		<path class="st0" d="M10.5,18.4c-0.3,0-0.7-0.1-1-0.4c-1.4-1.2-2.7-2.4-4.1-3.6c-1.1-1-2.2-2-3.2-3.3C1.4,10.1,0.9,9,0.7,7.9
			c-0.3-2,0.2-3.8,1.4-5.2c1.3-1.5,2.9-2.1,5-1.9C8.6,1,9.7,2,10.5,2.9C11.3,2,12.1,1.4,13,1.1c1-0.4,2.2-0.4,3.4,0
			c2.2,0.7,3.8,2.8,3.9,5.3l0,0c0.1,1.4-0.3,3-1.2,4.3c-0.6,1-1.4,1.9-2.4,2.7c-1.5,1.4-3.1,2.7-4.7,4.1L11.5,18
			C11.2,18.3,10.8,18.4,10.5,18.4z M6.2,1.5C4.8,1.5,3.6,2,2.6,3.1C1.5,4.4,1.1,6,1.4,7.8c0.2,1,0.6,1.9,1.3,3
			c0.9,1.2,2,2.2,3.1,3.2c1.4,1.2,2.7,2.4,4.1,3.5c0.4,0.3,0.8,0.3,1.1,0l0.6-0.6c1.6-1.3,3.1-2.7,4.7-4.1c0.9-0.8,1.7-1.7,2.3-2.6
			c0.8-1.2,1.2-2.6,1.1-3.9l0,0c-0.1-2.2-1.6-4.1-3.5-4.7c-1.1-0.3-2.1-0.3-3,0c-0.9,0.3-1.7,1-2.4,1.9l-0.3,0.3l-0.3-0.3
			C9.1,2.3,8.1,1.6,7,1.5C6.7,1.5,6.5,1.5,6.2,1.5z"/>
	</g>
</g>
</svg>
