<?xml version="1.0" encoding="utf-8"?>
<!-- Generator: Adobe Illustrator 27.1.1, SVG Export Plug-In . SVG Version: 6.00 Build 0)  -->
<svg version="1.1" id="Ebene_1" xmlns="http://www.w3.org/2000/svg" xmlns:xlink="http://www.w3.org/1999/xlink" x="0px" y="0px"
	 viewBox="0 0 20 18" style="enable-background:new 0 0 20 18;" xml:space="preserve">
<style type="text/css">
	.st0{fill:#FFFFFF;}
</style>
<g>
	<path class="st0" d="M19.4,5.8c0.1,1.4-0.4,2.9-1.1,4.1c-0.6,1-1.4,1.9-2.3,2.7c-1.8,1.6-3.5,3.1-5.3,4.6c-0.5,0.4-1.1,0.4-1.6,0
		c-1.4-1.2-2.7-2.4-4.1-3.6c-1.1-1-2.2-2-3.1-3.2C1.2,9.4,0.7,8.4,0.5,7.3C0.2,5.4,0.6,3.7,1.8,2.3c1.2-1.4,2.8-2,4.7-1.8
		C7.9,0.7,9,1.7,9.9,2.8c0.7-0.9,1.5-1.6,2.6-2c1-0.4,2.2-0.3,3.2,0C17.9,1.4,19.3,3.6,19.4,5.8C19.4,5.8,19.4,5.8,19.4,5.8"/>
</g>
</svg>
