<?xml version="1.0" encoding="UTF-8"?>
<svg id="Ebene_1" data-name="Ebene 1" xmlns="http://www.w3.org/2000/svg" viewBox="0 0 162.75 51.5">
  <defs>
    <style>
      .cls-1 {
        fill: #ebd480;
      }

      .cls-2 {
        fill: #fff;
      }
    </style>
  </defs>
  <path class="cls-1" d="m137,2H25.75C12.65,2,2,12.65,2,25.75s10.65,23.75,23.75,23.75h111.25c13.1,0,23.75-10.65,23.75-23.75s-10.65-23.75-23.75-23.75Z"/>
  <g>
    <path class="cls-2" d="m64.21,9.83h1.5v8.03c0,.52-.15,1.05-.44,1.59-.09.18-.22.37-.38.56-.21.24-.38.41-.52.5-.23.18-.44.32-.64.42-.48.22-.94.33-1.39.33h-.8c-.49,0-.99-.13-1.5-.39-.19-.1-.39-.24-.59-.41-.09-.08-.21-.19-.34-.33-.2-.24-.34-.43-.42-.58-.07-.11-.16-.29-.25-.52-.16-.41-.23-.8-.23-1.17v-.61h1.5v.55c0,.47.17.91.52,1.31.16.15.27.24.34.28.33.24.68.36,1.05.36h.69c.4,0,.77-.14,1.12-.42.16-.13.28-.26.36-.38.27-.36.41-.76.41-1.19v-7.95h.02Z"/>
    <path class="cls-2" d="m68.78,9.83h6.14v1.5h-4.64v3.47h3.67l.02.02v1.47l-.02.02h-3.67v3.47h4.64v1.5h-6.16v-11.44h.02Z"/>
    <path class="cls-2" d="m84.01,9.83v1.5h-3.03v9.94h-1.52v-9.94h-3.03v-1.5h7.58Z"/>
    <path class="cls-2" d="m85.72,9.83h8.45v.02c-1.07,1.66-3.22,4.96-6.45,9.91h6.42l.02.02v1.48l-.02.02h-9.22v-.02c1.08-1.66,3.24-4.96,6.48-9.92h-5.69v-1.5Z"/>
    <path class="cls-2" d="m103.02,9.83v1.5h-3.03v9.94h-1.52v-9.94h-3.03v-1.5h7.58Z"/>
  </g>
  <g>
    <path class="cls-2" d="m41.23,29.03h3.77c1.22,0,2.19.41,2.91,1.23.39.48.58,1.05.58,1.7v.17c0,.88-.33,1.62-1,2.22v.02c.16.07.36.24.62.5.5.55.75,1.17.75,1.86v.56c0,1.07-.48,1.94-1.45,2.61-.49.26-.8.39-.92.39-.32.12-.79.17-1.39.17h-3.86s-.02,0-.03-.02v-11.41l.03-.02Zm1.47,6.25v3.67h2.59c.91,0,1.54-.33,1.89-.98.11-.22.17-.49.17-.83v-.28c0-.68-.35-1.14-1.06-1.39-.33-.15-.75-.22-1.23-.22h-2.33s-.02.01-.03.03Zm.02-4.75v3.22h2.19c.92,0,1.56-.32,1.94-.97.09-.2.14-.38.14-.55v-.34c0-.57-.4-.99-1.2-1.25-.24-.07-.57-.11-1-.11h-2.06Z"/>
    <path class="cls-2" d="m51.43,29.03h6.14v1.5h-4.64v3.47h3.67l.02.02v1.47l-.02.02h-3.67v3.47h4.64v1.5h-6.16v-11.44h.02Z"/>
    <path class="cls-2" d="m63.02,28.9h.14c.59,0,1.18.14,1.75.42.19.09.37.21.55.34.08.06.22.18.42.36.2.22.34.4.44.53.07.12.14.23.2.34-.3.15-.76.37-1.36.67-.04-.09-.14-.23-.3-.41-.48-.51-1.07-.77-1.78-.77s-1.26.21-1.69.62c-.17.17-.27.31-.31.42-.12.23-.19.47-.19.73v.05c0,.37.13.65.39.84.12.09.24.17.36.22.26.16.66.31,1.19.45.41.12.89.23,1.44.34.31.09.57.19.78.3.2.09.41.22.64.39.19.17.35.34.5.52.42.56.62,1.18.62,1.86v.03c0,.67-.2,1.3-.61,1.91-.07.1-.2.25-.38.44-.24.22-.43.38-.58.47-.17.1-.35.2-.55.28-.55.23-1.12.34-1.7.34-.91,0-1.73-.27-2.48-.8-.12-.1-.27-.22-.42-.36-.21-.21-.35-.37-.44-.48-.16-.22-.28-.41-.38-.58-.09-.18-.14-.28-.14-.31.3-.15.75-.36,1.36-.64.08.19.2.38.34.58.07.09.18.21.31.36.2.18.36.3.48.38.43.23.87.34,1.33.34h.06c.46,0,.9-.11,1.33-.34.11-.07.23-.16.36-.27.15-.15.25-.28.31-.39.18-.3.27-.62.27-.95,0-.53-.22-.95-.67-1.27-.12-.08-.25-.15-.36-.19-.18-.08-.46-.16-.84-.23-1.09-.25-1.89-.5-2.39-.77-1.1-.55-1.66-1.38-1.66-2.48,0-.75.24-1.42.72-2.02.16-.2.32-.36.5-.5.22-.16.41-.28.56-.36.19-.09.41-.18.66-.27.4-.11.8-.17,1.2-.17Z"/>
    <path class="cls-2" d="m75.57,29.03v1.5h-3.03v9.94h-1.52v-9.94h-3.03v-1.5h7.58Z"/>
    <path class="cls-2" d="m77.35,29.03h6.14v1.5h-4.64v3.47h3.67l.02.02v1.47l-.02.02h-3.67v3.47h4.64v1.5h-6.16v-11.44h.02Z"/>
    <path class="cls-2" d="m85.88,29.03h1.5v9.94h4.95v1.5h-6.47v-11.44h.02Z"/>
    <path class="cls-2" d="m94.12,29.03h1.5v9.94h4.95v1.5h-6.47v-11.44h.02Z"/>
    <path class="cls-2" d="m102.36,29.03h6.14v1.5h-4.64v3.47h3.67l.02.02v1.47l-.02.02h-3.67v3.47h4.64v1.5h-6.16v-11.44h.02Z"/>
    <path class="cls-2" d="m110.92,29.03h1.62c.91,1.37,2.73,4.09,5.48,8.17.08.12.25.38.5.77v-8.92l.02-.02h1.48l.02.02v11.41l-.02.02h-1.62c-.28-.4-1.32-1.95-3.12-4.66-.65-.95-1.61-2.38-2.89-4.28v8.92l-.02.02h-1.45s-.02,0-.03-.02v-11.41l.03-.02Z"/>
  </g>
  <path class="cls-2" d="m137,51.5H25.75C11.55,51.5,0,39.95,0,25.75S11.55,0,25.75,0h111.25c14.2,0,25.75,11.55,25.75,25.75s-11.55,25.75-25.75,25.75ZM25.75,2C12.65,2,2,12.65,2,25.75s10.65,23.75,23.75,23.75h111.25c13.1,0,23.75-10.65,23.75-23.75s-10.65-23.75-23.75-23.75H25.75Z"/>
</svg>