<?xml version="1.0" encoding="UTF-8"?>
<svg id="Ebene_1" data-name="Ebene 1" xmlns="http://www.w3.org/2000/svg" viewBox="0 0 403.58 171.13">
  <defs>
    <style>
      .cls-1 {
        fill: #fff;
      }
    </style>
  </defs>
  <g>
    <path class="cls-1" d="m10.11,8.4l5.06,3.94v2.67c-.07.05-1.35,1.03-3.83,2.95-1.34,1.05-3.33,2.61-5.98,4.68l-2.11-2.67c.77-.61,2.32-1.8,4.64-3.59.56-.47,1.7-1.37,3.41-2.71-.52-.4-1.55-1.21-3.09-2.43-3.3-2.55-4.96-3.84-4.96-3.87.47-.59,1.17-1.48,2.11-2.67.8.61,2.38,1.84,4.75,3.69Z"/>
    <path class="cls-1" d="m19.19,8.4l5.06,3.94v2.67c-.07.05-1.35,1.03-3.83,2.95-1.34,1.05-3.33,2.61-5.98,4.68l-2.11-2.67c.77-.61,2.32-1.8,4.64-3.59.56-.47,1.7-1.37,3.41-2.71-.52-.4-1.55-1.21-3.09-2.43-3.3-2.55-4.96-3.84-4.96-3.87.47-.59,1.17-1.48,2.11-2.67.8.61,2.38,1.84,4.75,3.69Z"/>
  </g>
  <g>
    <path class="cls-1" d="m32.53,0h6.68c3.09,0,5.89,1.04,8.4,3.13.98.91,1.62,1.58,1.9,2,1.71,2.37,2.57,4.92,2.57,7.66v.18c0,3.42-1.3,6.47-3.9,9.14-1.43,1.29-2.82,2.19-4.18,2.71-1.57.61-3.11.91-4.61.91h-6.86s-.05-.01-.07-.04V.07l.07-.07Zm3.34,3.45v18.91h3.09c3,0,5.48-1.11,7.45-3.34,1.52-1.83,2.29-3.87,2.29-6.12s-.79-4.39-2.36-6.22c-.91-.98-1.63-1.59-2.14-1.83-.47-.33-1.2-.67-2.18-1.02-.89-.28-2.04-.42-3.45-.42h-2.67s-.04.01-.04.04Z"/>
    <path class="cls-1" d="m62.81,25.73h-.14c-3.05,0-5.23-1.14-6.54-3.41-.45-.91-.67-1.98-.67-3.2v-10.16s.02-.05.07-.07h3.27l.07.07v10.2c0,1.45.59,2.4,1.76,2.85.52.23,1.16.35,1.93.35h.28c1.43,0,2.45-.23,3.06-.7.77-.47,1.16-1.32,1.16-2.57v-10.12s.04-.05.04-.07h3.34v16.73h-3.34l-.04-.04v-1.12c-.61.45-1.39.81-2.36,1.09-.52.12-1.15.18-1.9.18Z"/>
    <path class="cls-1" d="m85.14,8.89c.02.07.27.66.74,1.76.7,1.62,1.77,4.04,3.2,7.28l1.27,2.81c.4-.96,1.22-2.86,2.46-5.7.44-1.03,1.35-3.08,2.71-6.15h3.9l-3.8,8.44c-.4.89-1.21,2.67-2.43,5.34-.21.52-.66,1.54-1.34,3.06h-3.06l-.53-1.16c-.7-1.59-1.77-3.97-3.2-7.14-.56-1.27-1.71-3.81-3.45-7.63-.05-.14-.18-.45-.39-.91h3.9Z"/>
    <path class="cls-1" d="m107.42,8.61h.49c1.71,0,3.36.69,4.96,2.07.77.75,1.3,1.41,1.58,1.97.84,1.5,1.27,3.08,1.27,4.75v.53c0,.33-.01.49-.04.49h-12.62c.28,1.24.74,2.18,1.37,2.81.94,1.03,2.02,1.55,3.23,1.55,1.52,0,2.8-.77,3.83-2.32.19-.4.29-.6.32-.6,2.04.91,3.06,1.38,3.06,1.41-.16.42-.53,1.03-1.09,1.83-1.71,2.04-3.74,3.06-6.08,3.06h-.11c-2.39,0-4.46-1.08-6.22-3.23-1.2-1.66-1.79-3.49-1.79-5.48v-.07c0-2.74,1.05-5.06,3.16-6.96,1.55-1.2,3.11-1.79,4.68-1.79Zm-4.04,6.61h8.54v-.04c-.19-.59-.65-1.25-1.37-2-.89-.77-1.86-1.16-2.92-1.16-1.62,0-2.94.86-3.97,2.57-.05.14-.14.35-.28.63Z"/>
    <path class="cls-1" d="m126.17,8.79h.46c1.17,0,2.37.34,3.59,1.02v.04c-.47,2.23-.74,3.39-.81,3.48-1.12-.73-2.12-1.09-2.99-1.09h-.28c-1.12,0-2.11.41-2.95,1.23-.66.77-.98,2.26-.98,4.46v7.8h-3.3s-.02-.05-.07-.07V9.14h3.38v1.27c1.31-1.08,2.64-1.62,3.97-1.62Z"/>
    <path class="cls-1" d="m148.29,25.73h-3.38v-1.76c-.19.21-.38.41-.56.6-.38.28-.69.5-.95.67-.35.21-.75.39-1.2.53-.89.26-1.64.39-2.25.39h-.25c-1.5,0-2.95-.42-4.36-1.27-.28-.19-.57-.41-.88-.67-.28-.21-.66-.57-1.12-1.09-.42-.52-.75-1.01-.98-1.48-.73-1.34-1.09-2.75-1.09-4.25,0-1.12.2-2.21.6-3.27.35-.94.94-1.86,1.76-2.78.4-.42.7-.71.91-.88,1.59-1.24,3.34-1.86,5.24-1.86h.04c1.62,0,3.07.52,4.36,1.55.3.26.55.49.74.7V0h3.38v25.73Zm-4.54-11.78c-.09-.12-.3-.33-.63-.63-.35-.33-.7-.57-1.05-.74-.8-.38-1.54-.56-2.21-.56-1.5,0-2.78.59-3.83,1.76-.89,1.05-1.34,2.25-1.34,3.59v.07c0,.8.18,1.57.53,2.32.19.42.48.87.88,1.34,1.05,1.12,2.3,1.69,3.73,1.69.7,0,1.42-.18,2.14-.53.26-.12.57-.32.95-.6.07-.07.18-.16.32-.28.28-.28.5-.53.67-.74.68-.98,1.02-2.05,1.02-3.2v-.07c-.19-.56-.57-1.7-1.16-3.41Z"/>
    <path class="cls-1" d="m154.28,0h.14c.49,0,.97.2,1.44.6.44.47.67.98.67,1.55v.11c0,.54-.19,1.04-.56,1.51-.47.45-1,.67-1.58.67h-.11c-.54,0-1.03-.21-1.48-.63-.23-.26-.4-.48-.49-.67-.12-.3-.18-.59-.18-.84v-.14c0-.54.21-1.04.63-1.51.05-.05.13-.12.25-.21.42-.28.84-.42,1.27-.42Zm1.76,8.89v16.84h-3.41V8.89h3.41Z"/>
    <path class="cls-1" d="m166.87,8.61h.49c1.71,0,3.36.69,4.96,2.07.77.75,1.3,1.41,1.58,1.97.84,1.5,1.27,3.08,1.27,4.75v.53c0,.33-.01.49-.04.49h-12.62c.28,1.24.74,2.18,1.37,2.81.94,1.03,2.02,1.55,3.23,1.55,1.52,0,2.8-.77,3.83-2.32.19-.4.29-.6.32-.6,2.04.91,3.06,1.38,3.06,1.41-.16.42-.53,1.03-1.09,1.83-1.71,2.04-3.74,3.06-6.08,3.06h-.11c-2.39,0-4.46-1.08-6.22-3.23-1.2-1.66-1.79-3.49-1.79-5.48v-.07c0-2.74,1.05-5.06,3.16-6.96,1.55-1.2,3.11-1.79,4.68-1.79Zm-4.04,6.61h8.54v-.04c-.19-.59-.65-1.25-1.37-2-.89-.77-1.86-1.16-2.92-1.16-1.62,0-2.94.86-3.97,2.57-.05.14-.14.35-.28.63Z"/>
    <path class="cls-1" d="m185.94,8.89h.18c3.02,0,5.19,1.15,6.5,3.45.44.89.67,1.95.67,3.16v10.2l-.04.04h-3.3l-.04-.04v-10.23c0-1.43-.6-2.38-1.79-2.85-.52-.23-1.17-.35-1.97-.35h-.28c-1.41,0-2.41.22-3.02.67-.77.47-1.16,1.35-1.16,2.64v10.12l-.04.04h-3.3l-.07-.04V9.04s.05-.01.07-.04h3.3l.04.04v.95c.61-.33,1.39-.63,2.36-.91.52-.12,1.15-.18,1.9-.18Z"/>
    <path class="cls-1" d="m203.49,7.91c2.16,0,3.98.68,5.48,2.04.35.3.59.55.7.74.05.09.13.21.25.35-.02.05-.35.25-.98.6-.59.38-1.22.77-1.9,1.2-.21-.23-.42-.43-.63-.6-.77-.59-1.72-.88-2.85-.88h-.11c-1.22,0-2.2.29-2.95.88-.4.35-.6.73-.6,1.12,0,.26.11.46.32.6.23.19.67.4,1.3.63.91.28,2.31.59,4.18.91.59.14,1.1.3,1.55.49.4.16.81.39,1.23.67.19.14.44.38.77.7.87.94,1.3,1.99,1.3,3.16v.04c0,1.2-.45,2.32-1.34,3.38-.38.38-.65.61-.81.7-.47.35-.86.59-1.16.7-1.2.54-2.46.81-3.8.81h-.14c-1.76,0-3.36-.46-4.82-1.37-.33-.21-.67-.49-1.02-.84-.33-.3-.56-.55-.7-.74-.23-.3-.45-.62-.63-.95.66-.38,1.64-.94,2.95-1.69.02.05.07.13.14.25.14.21.35.45.63.7.52.49,1.17.86,1.97,1.09.52.12,1.03.18,1.55.18,1.03,0,1.95-.23,2.74-.7.16-.09.35-.23.56-.42.3-.38.46-.75.46-1.12,0-.63-.49-1.14-1.48-1.51-.33-.12-.93-.25-1.79-.39-1.9-.35-3.3-.74-4.22-1.16-.4-.14-.8-.34-1.2-.6-.89-.59-1.48-1.32-1.76-2.21-.14-.4-.21-.82-.21-1.27v-.11c0-1.1.41-2.14,1.23-3.13.35-.38.61-.61.77-.7.4-.3.77-.54,1.12-.7,1.17-.56,2.46-.84,3.87-.84Z"/>
    <path class="cls-1" d="m214.41,0h3.38v8.86h4.36l.04.04v3.38h-4.39v8.51c0,.66.23,1.09.7,1.3.28.19.6.28.95.28.45,0,1.09-.15,1.93-.46.02-.02.07-.06.14-.11.21.54.63,1.61,1.27,3.2-.28.12-.74.27-1.37.46-.75.19-1.41.28-1.97.28h-.04c-1.1,0-2.14-.34-3.13-1.02-.16-.12-.38-.3-.63-.56-.07-.09-.18-.22-.32-.39-.19-.26-.34-.49-.46-.7-.3-.73-.46-1.44-.46-2.14v-8.65h-2.53v-3.38s.04-.01.04-.04h2.5V0Z"/>
    <path class="cls-1" d="m250.17,25.73h-3.38v-1.76c-.19.21-.38.41-.56.6-.38.28-.69.5-.95.67-.35.21-.75.39-1.2.53-.89.26-1.64.39-2.25.39h-.25c-1.5,0-2.95-.42-4.36-1.27-.28-.19-.58-.41-.88-.67-.28-.21-.66-.57-1.12-1.09-.42-.52-.75-1.01-.98-1.48-.73-1.34-1.09-2.75-1.09-4.25,0-1.12.2-2.21.6-3.27.35-.94.94-1.86,1.76-2.78.4-.42.7-.71.91-.88,1.59-1.24,3.34-1.86,5.24-1.86h.04c1.62,0,3.07.52,4.36,1.55.3.26.55.49.74.7V0h3.38v25.73Zm-4.54-11.78c-.09-.12-.3-.33-.63-.63-.35-.33-.7-.57-1.05-.74-.8-.38-1.54-.56-2.21-.56-1.5,0-2.78.59-3.83,1.76-.89,1.05-1.34,2.25-1.34,3.59v.07c0,.8.18,1.57.53,2.32.19.42.48.87.88,1.34,1.05,1.12,2.3,1.69,3.73,1.69.7,0,1.42-.18,2.14-.53.26-.12.57-.32.95-.6.07-.07.18-.16.32-.28.28-.28.5-.53.67-.74.68-.98,1.02-2.05,1.02-3.2v-.07c-.19-.56-.58-1.7-1.16-3.41Z"/>
    <path class="cls-1" d="m261.05,8.61h.49c1.71,0,3.36.69,4.96,2.07.77.75,1.3,1.41,1.58,1.97.84,1.5,1.27,3.08,1.27,4.75v.53c0,.33-.01.49-.04.49h-12.62c.28,1.24.74,2.18,1.37,2.81.94,1.03,2.02,1.55,3.23,1.55,1.52,0,2.8-.77,3.83-2.32.19-.4.29-.6.32-.6,2.04.91,3.06,1.38,3.06,1.41-.16.42-.53,1.03-1.09,1.83-1.71,2.04-3.74,3.06-6.08,3.06h-.11c-2.39,0-4.46-1.08-6.22-3.23-1.2-1.66-1.79-3.49-1.79-5.48v-.07c0-2.74,1.05-5.06,3.16-6.96,1.55-1.2,3.11-1.79,4.68-1.79Zm-4.04,6.61h8.54v-.04c-.19-.59-.65-1.25-1.37-2-.89-.77-1.86-1.16-2.92-1.16-1.62,0-2.94.86-3.97,2.57-.05.14-.14.35-.28.63Z"/>
    <path class="cls-1" d="m280.11,8.89h.18c3.02,0,5.19,1.15,6.5,3.45.45.89.67,1.95.67,3.16v10.2l-.04.04h-3.3l-.04-.04v-10.23c0-1.43-.6-2.38-1.79-2.85-.52-.23-1.17-.35-1.97-.35h-.28c-1.41,0-2.41.22-3.02.67-.77.47-1.16,1.35-1.16,2.64v10.12l-.04.04h-3.3l-.07-.04V9.04s.05-.01.07-.04h3.3l.04.04v.95c.61-.33,1.39-.63,2.36-.91.52-.12,1.15-.18,1.9-.18Z"/>
    <path class="cls-1" d="m314.92,0v3.38h-6.82v22.36h-3.41V3.38h-6.82V0h17.05Z"/>
    <path class="cls-1" d="m322.05,8.61c1.9,0,3.64.62,5.24,1.86.21.16.53.46.95.88.8.89,1.37,1.82,1.72,2.78.4,1.05.6,2.16.6,3.3,0,1.48-.35,2.88-1.05,4.22-.26.47-.59.96-.98,1.48-.47.52-.84.88-1.12,1.09-.33.26-.63.48-.91.67-1.38.84-2.84,1.27-4.36,1.27h-.14c-1.59,0-3.12-.47-4.57-1.41-.28-.21-.54-.41-.77-.6-.47-.38-.8-.7-.98-.98-.23-.28-.47-.59-.7-.91-.21-.38-.41-.74-.6-1.09-.54-1.22-.81-2.43-.81-3.62v-.28c0-1.31.33-2.62.98-3.94.19-.38.41-.75.67-1.12.19-.28.48-.64.88-1.09.58-.52,1-.84,1.23-.98,1.45-1.01,3.04-1.51,4.75-1.51Zm-5.13,8.82c0,1.27.42,2.43,1.27,3.48.35.4.63.66.84.77.91.73,1.92,1.09,3.02,1.09,1.34,0,2.52-.52,3.55-1.55.4-.42.68-.8.84-1.12.49-.84.74-1.73.74-2.67v-.04c0-1.36-.47-2.58-1.41-3.66-.4-.42-.66-.66-.77-.7-.21-.16-.4-.29-.56-.39-.77-.42-1.57-.63-2.39-.63-1.24,0-2.38.46-3.41,1.37-.35.38-.58.64-.67.81-.7.96-1.05,2.04-1.05,3.23Z"/>
    <path class="cls-1" d="m349.83,25.73h-3.38v-1.76c-.19.21-.38.41-.56.6-.38.28-.69.5-.95.67-.35.21-.75.39-1.2.53-.89.26-1.64.39-2.25.39h-.25c-1.5,0-2.95-.42-4.36-1.27-.28-.19-.58-.41-.88-.67-.28-.21-.66-.57-1.12-1.09-.42-.52-.75-1.01-.98-1.48-.73-1.34-1.09-2.75-1.09-4.25,0-1.12.2-2.21.6-3.27.35-.94.94-1.86,1.76-2.78.4-.42.7-.71.91-.88,1.59-1.24,3.34-1.86,5.24-1.86h.04c1.62,0,3.07.52,4.36,1.55.3.26.55.49.74.7V0h3.38v25.73Zm-4.54-11.78c-.09-.12-.3-.33-.63-.63-.35-.33-.7-.57-1.05-.74-.8-.38-1.54-.56-2.21-.56-1.5,0-2.78.59-3.83,1.76-.89,1.05-1.34,2.25-1.34,3.59v.07c0,.8.18,1.57.53,2.32.19.42.48.87.88,1.34,1.05,1.12,2.3,1.69,3.73,1.69.7,0,1.42-.18,2.14-.53.26-.12.57-.32.95-.6.07-.07.18-.16.32-.28.28-.28.5-.53.67-.74.68-.98,1.02-2.05,1.02-3.2v-.07c-.19-.56-.58-1.7-1.16-3.41Z"/>
    <path class="cls-1" d="m359.7,0c-.09,3.4-.27,10.18-.53,20.36l-.04.04h-3.38v-.04c-.09-3.4-.27-10.18-.53-20.36h4.46Zm-2.21,21.3c.7,0,1.3.3,1.79.91.28.4.42.81.42,1.23v.14c0,.56-.23,1.08-.7,1.55-.35.3-.68.49-.98.56-.19.02-.33.04-.42.04h-.25c-.38,0-.76-.14-1.16-.42s-.68-.66-.84-1.12c-.07-.21-.11-.41-.11-.6v-.14c0-.54.22-1.04.67-1.51.47-.42,1-.63,1.58-.63Z"/>
  </g>
  <g>
    <path class="cls-1" d="m17.21,43.2v3.38h-6.82v22.36h-3.41v-22.36H.16v-3.38h17.05Z"/>
    <path class="cls-1" d="m24.38,51.99h.46c1.17,0,2.37.34,3.59,1.02v.04c-.47,2.23-.74,3.39-.81,3.48-1.12-.73-2.12-1.09-2.99-1.09h-.28c-1.12,0-2.11.41-2.95,1.23-.66.77-.98,2.26-.98,4.46v7.8h-3.3s-.02-.05-.07-.07v-16.52h3.38v1.27c1.31-1.08,2.64-1.62,3.97-1.62Z"/>
    <path class="cls-1" d="m37.92,51.81c1.9,0,3.64.62,5.24,1.86.21.16.53.46.95.88.8.89,1.37,1.82,1.72,2.78.4,1.05.6,2.16.6,3.3,0,1.48-.35,2.88-1.05,4.22-.26.47-.59.96-.98,1.48-.47.52-.84.88-1.12,1.09-.33.26-.63.48-.91.67-1.38.84-2.84,1.27-4.36,1.27h-.14c-1.59,0-3.12-.47-4.57-1.41-.28-.21-.54-.41-.77-.6-.47-.38-.8-.7-.98-.98-.23-.28-.47-.59-.7-.91-.21-.38-.41-.74-.6-1.09-.54-1.22-.81-2.43-.81-3.62v-.28c0-1.31.33-2.62.98-3.94.19-.38.41-.75.67-1.12.19-.28.48-.64.88-1.09.59-.52,1-.84,1.23-.98,1.45-1.01,3.04-1.51,4.75-1.51Zm-5.13,8.82c0,1.27.42,2.43,1.27,3.48.35.4.63.66.84.77.91.73,1.92,1.09,3.02,1.09,1.34,0,2.52-.52,3.55-1.55.4-.42.68-.8.84-1.12.49-.84.74-1.73.74-2.67v-.04c0-1.36-.47-2.58-1.41-3.66-.4-.42-.66-.66-.77-.7-.21-.16-.4-.29-.56-.39-.77-.42-1.57-.63-2.39-.63-1.24,0-2.38.46-3.41,1.37-.35.38-.57.64-.67.81-.7.96-1.05,2.04-1.05,3.23Z"/>
    <path class="cls-1" d="m50.02,43.2h3.38v8.86h4.36l.04.04v3.38h-4.39v8.51c0,.66.23,1.09.7,1.3.28.19.6.28.95.28.44,0,1.09-.15,1.93-.46.02-.02.07-.06.14-.11.21.54.63,1.61,1.27,3.2-.28.12-.74.27-1.37.46-.75.19-1.41.28-1.97.28h-.04c-1.1,0-2.14-.34-3.13-1.02-.16-.12-.38-.3-.63-.56-.07-.09-.18-.22-.32-.39-.19-.26-.34-.49-.46-.7-.3-.73-.46-1.44-.46-2.14v-8.65h-2.53v-3.38s.04-.01.04-.04h2.5v-8.86Z"/>
    <path class="cls-1" d="m61.18,52.09h15.15l.04.07c-1.57,2.23-4.72,6.69-9.46,13.39h9.18s.05.01.07.04v3.3l-.07.04h-15.75c1.59-2.25,4.76-6.74,9.49-13.46h-8.65v-3.38Z"/>
    <path class="cls-1" d="m94.86,68.93h-3.38v-1.76c-.19.21-.38.41-.56.6-.38.28-.69.5-.95.67-.35.21-.75.39-1.2.53-.89.26-1.64.39-2.25.39h-.25c-1.5,0-2.95-.42-4.36-1.27-.28-.19-.57-.41-.88-.67-.28-.21-.66-.57-1.12-1.09-.42-.52-.75-1.01-.98-1.48-.73-1.34-1.09-2.75-1.09-4.25,0-1.12.2-2.21.6-3.27.35-.94.94-1.86,1.76-2.78.4-.42.7-.71.91-.88,1.59-1.24,3.34-1.86,5.24-1.86h.04c1.62,0,3.07.52,4.36,1.55.3.26.55.49.74.7v-10.86h3.38v25.73Zm-4.54-11.78c-.09-.12-.3-.33-.63-.63-.35-.33-.7-.57-1.05-.74-.8-.38-1.54-.56-2.21-.56-1.5,0-2.78.59-3.83,1.76-.89,1.05-1.34,2.25-1.34,3.59v.07c0,.8.18,1.57.53,2.32.19.42.48.87.88,1.34,1.05,1.12,2.3,1.69,3.73,1.69.7,0,1.42-.18,2.14-.53.26-.12.57-.32.95-.6.07-.07.18-.16.32-.28.28-.28.5-.53.67-.74.68-.98,1.02-2.05,1.02-3.2v-.07c-.19-.56-.57-1.7-1.16-3.41Z"/>
    <path class="cls-1" d="m105.74,51.81h.49c1.71,0,3.36.69,4.96,2.07.77.75,1.3,1.41,1.58,1.97.84,1.5,1.27,3.08,1.27,4.75v.53c0,.33-.01.49-.04.49h-12.62c.28,1.24.74,2.18,1.37,2.81.94,1.03,2.02,1.55,3.23,1.55,1.52,0,2.8-.77,3.83-2.32.19-.4.29-.6.32-.6,2.04.91,3.06,1.38,3.06,1.41-.16.42-.53,1.03-1.09,1.83-1.71,2.04-3.74,3.06-6.08,3.06h-.11c-2.39,0-4.46-1.08-6.22-3.23-1.2-1.66-1.79-3.49-1.79-5.48v-.07c0-2.74,1.05-5.06,3.16-6.96,1.55-1.2,3.11-1.79,4.68-1.79Zm-4.04,6.61h8.54v-.04c-.19-.59-.65-1.25-1.37-2-.89-.77-1.86-1.16-2.92-1.16-1.62,0-2.94.86-3.97,2.57-.05.14-.14.35-.28.63Z"/>
    <path class="cls-1" d="m124.8,52.09h.18c2.27,0,4.1.69,5.48,2.07,1.34-1.38,3.18-2.07,5.52-2.07h.56c3.09,0,5.29,1.16,6.57,3.48.4.94.6,1.84.6,2.71v10.65h-3.34l-.04-.04v-10.55c0-1.29-.7-2.17-2.11-2.64-.42-.16-.97-.25-1.65-.25h-.67c-1.83,0-3.01.61-3.55,1.83-.14.35-.21.73-.21,1.12v10.48l-.04.04h-3.3l-.04-.04v-10.2c0-1.24-.41-2.1-1.23-2.57-.61-.45-1.45-.67-2.53-.67h-.28c-1.41,0-2.41.22-3.02.67-.77.47-1.16,1.35-1.16,2.64v10.12l-.04.04h-3.3l-.07-.04v-16.66s.05-.01.07-.04h3.3l.04.04v.95c.61-.33,1.39-.63,2.36-.91.52-.12,1.15-.18,1.9-.18Z"/>
    <path class="cls-1" d="m159.93,43.2h.04v25.73h-3.41v-25.73h3.38Z"/>
    <path class="cls-1" d="m170.84,51.81h.49c1.71,0,3.36.69,4.96,2.07.77.75,1.3,1.41,1.58,1.97.84,1.5,1.27,3.08,1.27,4.75v.53c0,.33-.01.49-.04.49h-12.62c.28,1.24.74,2.18,1.37,2.81.94,1.03,2.02,1.55,3.23,1.55,1.52,0,2.8-.77,3.83-2.32.19-.4.29-.6.32-.6,2.04.91,3.06,1.38,3.06,1.41-.16.42-.53,1.03-1.09,1.83-1.71,2.04-3.74,3.06-6.08,3.06h-.11c-2.39,0-4.46-1.08-6.22-3.23-1.2-1.66-1.79-3.49-1.79-5.48v-.07c0-2.74,1.05-5.06,3.16-6.96,1.55-1.2,3.11-1.79,4.68-1.79Zm-4.04,6.61h8.54v-.04c-.19-.59-.65-1.25-1.37-2-.89-.77-1.86-1.16-2.92-1.16-1.62,0-2.94.86-3.97,2.57-.05.14-.14.35-.28.63Z"/>
    <path class="cls-1" d="m185.62,43.2h.04v10.86c.19-.21.43-.45.74-.7,1.27-1.03,2.73-1.55,4.39-1.55,1.9,0,3.64.62,5.24,1.86.19.16.49.46.91.88.8.91,1.38,1.84,1.76,2.78.4,1.05.6,2.14.6,3.27,0,1.5-.36,2.92-1.09,4.25-.23.47-.56.96-.98,1.48-.45.52-.81.88-1.09,1.09-.35.26-.67.48-.95.67-1.38.84-2.82,1.27-4.32,1.27h-.21c-.63,0-1.39-.13-2.29-.39-.45-.14-.84-.32-1.2-.53-.28-.16-.6-.39-.95-.67-.19-.19-.38-.39-.56-.6v1.76h-3.41v-25.73h3.38Zm.04,17.37v.07c0,1.15.35,2.21,1.05,3.2.14.21.35.46.63.74.07.07.18.16.32.28.37.28.69.48.95.6.73.35,1.44.53,2.14.53,1.43,0,2.67-.56,3.73-1.69.4-.47.69-.91.88-1.34.35-.75.53-1.52.53-2.32v-.07c0-1.34-.43-2.53-1.3-3.59-1.08-1.17-2.38-1.76-3.9-1.76-.66,0-1.38.19-2.18.56-.35.16-.7.41-1.05.74-.33.3-.53.52-.6.63-.8,1.01-1.2,2.14-1.2,3.41Z"/>
    <path class="cls-1" d="m209.16,51.81h.49c1.71,0,3.36.69,4.96,2.07.77.75,1.3,1.41,1.58,1.97.84,1.5,1.27,3.08,1.27,4.75v.53c0,.33-.01.49-.04.49h-12.62c.28,1.24.74,2.18,1.37,2.81.94,1.03,2.02,1.55,3.23,1.55,1.52,0,2.8-.77,3.83-2.32.19-.4.29-.6.32-.6,2.04.91,3.06,1.38,3.06,1.41-.16.42-.53,1.03-1.09,1.83-1.71,2.04-3.74,3.06-6.08,3.06h-.11c-2.39,0-4.46-1.08-6.22-3.23-1.2-1.66-1.79-3.49-1.79-5.48v-.07c0-2.74,1.05-5.06,3.16-6.96,1.55-1.2,3.11-1.79,4.68-1.79Zm-4.04,6.61h8.54v-.04c-.19-.59-.64-1.25-1.37-2-.89-.77-1.86-1.16-2.92-1.16-1.62,0-2.94.86-3.97,2.57-.05.14-.14.35-.28.63Z"/>
    <path class="cls-1" d="m230.88,43.2h.14c.49,0,.97.2,1.44.6.44.47.67.98.67,1.55v.11c0,.54-.19,1.04-.56,1.51-.47.45-1,.67-1.58.67h-.11c-.54,0-1.03-.21-1.48-.63-.23-.26-.4-.48-.49-.67-.12-.3-.18-.59-.18-.84v-.14c0-.54.21-1.04.63-1.51.05-.05.13-.12.25-.21.42-.28.84-.42,1.27-.42Zm1.76,8.89v16.84h-3.41v-16.84h3.41Z"/>
    <path class="cls-1" d="m244.39,51.81h.04c1.76,0,3.4.55,4.92,1.65.28.19.6.46.95.81.42.45.71.79.88,1.02.16.21.25.34.25.39-.63.4-1.57,1.02-2.81,1.86-.14-.21-.38-.49-.7-.84-1.03-.98-2.2-1.48-3.52-1.48s-2.4.46-3.41,1.37c-.38.38-.6.64-.67.81-.7.96-1.05,2.03-1.05,3.2,0,1.27.41,2.41,1.23,3.45.26.33.53.6.81.81.94.75,1.98,1.12,3.13,1.12,1.03,0,1.98-.33,2.85-.98.21-.12.49-.35.84-.7.19-.23.36-.47.53-.7.47.33,1.41.95,2.81,1.86-.19.33-.46.69-.81,1.09-.4.42-.68.69-.84.81-.38.3-.7.55-.98.74-1.41.84-2.86,1.27-4.36,1.27h-.14c-1.62,0-3.14-.47-4.57-1.41-.28-.21-.55-.41-.81-.6-.42-.4-.74-.73-.95-.98-.47-.56-.81-1.04-1.02-1.44-.21-.38-.42-.87-.63-1.48-.3-.96-.46-1.86-.46-2.71v-.28c0-1.31.32-2.62.95-3.94.21-.38.45-.75.7-1.12.19-.28.48-.64.88-1.09.47-.45.88-.77,1.23-.98,1.48-1.01,3.06-1.51,4.75-1.51Z"/>
    <path class="cls-1" d="m254.14,43.2h3.41v9.98c.61-.33,1.39-.63,2.36-.91.51-.12,1.15-.18,1.9-.18h.18c3.02,0,5.19,1.15,6.5,3.45.44.89.67,1.95.67,3.16v10.2l-.04.04h-3.3l-.04-.04v-10.23c0-1.43-.6-2.38-1.79-2.85-.52-.23-1.17-.35-1.97-.35h-.28c-1.41,0-2.41.22-3.02.67-.77.47-1.16,1.35-1.16,2.64v10.16h-3.41v-25.73Z"/>
    <path class="cls-1" d="m283.92,52.09l.42,1.23c.61,1.85,1.54,4.64,2.78,8.37.07.23.22.7.46,1.41.42-1.34,1.25-4,2.5-7.98.16-.52.48-1.52.95-3.02h2.99l.11.28c.52,1.71,1.3,4.25,2.36,7.63.16.52.48,1.55.95,3.09.02,0,.16-.41.42-1.23.61-1.83,1.52-4.58,2.74-8.26.09-.26.26-.76.49-1.51h3.76c-.47,1.38-1.41,4.12-2.81,8.23-.42,1.24-1.28,3.76-2.57,7.56-.07.16-.2.52-.39,1.05h-3.38l-.14-.49c-.49-1.55-.96-3.06-1.41-4.54-.38-1.15-.91-2.87-1.62-5.17h-.04c-.4,1.27-1.2,3.82-2.39,7.66-.12.42-.38,1.27-.77,2.53h-3.38s-.14-.32-.35-.95c-.54-1.62-1.36-4.03-2.46-7.24-.45-1.31-1.34-3.91-2.67-7.8l-.28-.84h3.73Z"/>
    <path class="cls-1" d="m313.27,51.81h.49c1.71,0,3.36.69,4.96,2.07.77.75,1.3,1.41,1.58,1.97.84,1.5,1.27,3.08,1.27,4.75v.53c0,.33-.01.49-.04.49h-12.62c.28,1.24.74,2.18,1.37,2.81.94,1.03,2.02,1.55,3.23,1.55,1.52,0,2.8-.77,3.83-2.32.19-.4.29-.6.32-.6,2.04.91,3.06,1.38,3.06,1.41-.16.42-.53,1.03-1.09,1.83-1.71,2.04-3.74,3.06-6.08,3.06h-.11c-2.39,0-4.46-1.08-6.22-3.23-1.2-1.66-1.79-3.49-1.79-5.48v-.07c0-2.74,1.05-5.06,3.16-6.96,1.55-1.2,3.11-1.79,4.68-1.79Zm-4.04,6.61h8.54v-.04c-.19-.59-.65-1.25-1.37-2-.89-.77-1.86-1.16-2.92-1.16-1.62,0-2.94.86-3.97,2.57-.05.14-.14.35-.28.63Z"/>
    <path class="cls-1" d="m326.29,43.2h.14c.49,0,.97.2,1.44.6.45.47.67.98.67,1.55v.11c0,.54-.19,1.04-.56,1.51-.47.45-1,.67-1.58.67h-.11c-.54,0-1.03-.21-1.48-.63-.23-.26-.4-.48-.49-.67-.12-.3-.18-.59-.18-.84v-.14c0-.54.21-1.04.63-1.51.05-.05.13-.12.25-.21.42-.28.84-.42,1.27-.42Zm1.76,8.89v16.84h-3.41v-16.84h3.41Z"/>
    <path class="cls-1" d="m332.87,43.2h3.38v8.86h4.36l.04.04v3.38h-4.39v8.51c0,.66.23,1.09.7,1.3.28.19.6.28.95.28.44,0,1.09-.15,1.93-.46.02-.02.07-.06.14-.11.21.54.63,1.61,1.27,3.2-.28.12-.74.27-1.37.46-.75.19-1.41.28-1.97.28h-.04c-1.1,0-2.14-.34-3.13-1.02-.16-.12-.38-.3-.63-.56-.07-.09-.18-.22-.32-.39-.19-.26-.34-.49-.46-.7-.3-.73-.46-1.44-.46-2.14v-8.65h-2.53v-3.38s.04-.01.04-.04h2.5v-8.86Z"/>
    <path class="cls-1" d="m349.92,51.81h.49c1.71,0,3.36.69,4.96,2.07.77.75,1.3,1.41,1.58,1.97.84,1.5,1.27,3.08,1.27,4.75v.53c0,.33-.01.49-.04.49h-12.62c.28,1.24.74,2.18,1.37,2.81.94,1.03,2.02,1.55,3.23,1.55,1.52,0,2.8-.77,3.83-2.32.19-.4.29-.6.32-.6,2.04.91,3.06,1.38,3.06,1.41-.16.42-.53,1.03-1.09,1.83-1.71,2.04-3.74,3.06-6.08,3.06h-.11c-2.39,0-4.46-1.08-6.22-3.23-1.2-1.66-1.79-3.49-1.79-5.48v-.07c0-2.74,1.05-5.06,3.16-6.96,1.55-1.2,3.11-1.79,4.68-1.79Zm-4.04,6.61h8.54v-.04c-.19-.59-.64-1.25-1.37-2-.89-.77-1.86-1.16-2.92-1.16-1.62,0-2.94.86-3.97,2.57-.05.14-.14.35-.28.63Z"/>
    <path class="cls-1" d="m368.67,51.99h.46c1.17,0,2.37.34,3.59,1.02v.04c-.47,2.23-.74,3.39-.81,3.48-1.12-.73-2.12-1.09-2.99-1.09h-.28c-1.12,0-2.11.41-2.95,1.23-.66.77-.98,2.26-.98,4.46v7.8h-3.3s-.02-.05-.07-.07v-16.52h3.38v1.27c1.31-1.08,2.64-1.62,3.97-1.62Z"/>
  </g>
  <g>
    <path class="cls-1" d="m392.31,47.91c.35.45,1.04,1.34,2.07,2.67,0,.02-1.64,1.31-4.92,3.87-.68.54-1.71,1.35-3.09,2.43.56.45,1.7,1.35,3.41,2.71.77.59,2.31,1.78,4.61,3.59-.33.45-1.02,1.34-2.07,2.67-1.01-.77-3-2.33-5.98-4.68-2.51-1.92-3.79-2.91-3.83-2.95v-2.67l5.06-3.94c.8-.61,2.38-1.84,4.75-3.69Z"/>
    <path class="cls-1" d="m401.51,47.91c.35.45,1.04,1.34,2.07,2.67,0,.02-1.64,1.31-4.92,3.87-.68.54-1.71,1.35-3.09,2.43.56.45,1.7,1.35,3.41,2.71.77.59,2.31,1.78,4.61,3.59-.33.45-1.02,1.34-2.07,2.67-1.01-.77-3-2.33-5.98-4.68-2.51-1.92-3.79-2.91-3.83-2.95v-2.67l5.06-3.94c.8-.61,2.38-1.84,4.75-3.69Z"/>
  </g>
  <g>
    <path class="cls-1" d="m13.19,103.1h.03v16.38c0,1.25-.35,2.45-1.06,3.59-.19.33-.47.69-.84,1.06-.35.38-.6.6-.75.69-.19.15-.41.29-.66.44-.27.15-.53.26-.78.34-.65.25-1.23.38-1.75.38h-1.56c-.65,0-1.34-.17-2.09-.5-1.46-.69-2.52-1.81-3.19-3.38-.35-.85-.53-1.7-.53-2.53v-1.25h2.09l.03.03v1.12c0,1,.33,1.96,1,2.88.25.33.51.58.78.75.67.5,1.33.75,2,.75h1.34c.79,0,1.55-.31,2.28-.94.33-.31.53-.54.59-.69.65-.83.97-1.79.97-2.88v-16.25h2.09Z"/>
    <path class="cls-1" d="m23.33,110.98c2.15,0,3.99.96,5.53,2.88,1.02,1.48,1.53,2.93,1.53,4.34v.19c0,.48-.03.72-.09.72h-11.88c0,.5.21,1.21.62,2.12.62,1.17,1.53,1.97,2.72,2.41.56.21,1.07.31,1.53.31,1.42,0,2.66-.62,3.72-1.88.35-.5.58-.91.69-1.22h.06c.83.33,1.49.62,1.97.88-.23.65-.74,1.41-1.53,2.28-1.44,1.4-3.07,2.09-4.91,2.09-2.17,0-4.02-.95-5.56-2.84-1.02-1.44-1.53-2.98-1.53-4.62v-.12c0-2.08.75-3.91,2.25-5.47,1.4-1.38,3.02-2.06,4.88-2.06Zm-4.69,5.97h9.34c-.44-1.38-1.18-2.38-2.22-3-.75-.5-1.57-.75-2.47-.75-1.52,0-2.82.71-3.91,2.12-.33.5-.58,1.04-.75,1.62Z"/>
    <path class="cls-1" d="m33.52,103.1h2.16v8.03h4.06v2.22h-4.06v8.56c0,.44.11.83.34,1.19.23.29.52.5.88.62.17.04.32.06.47.06h.06c.4,0,.94-.13,1.62-.41.04-.02.11-.05.22-.09.52,1.17.81,1.83.88,2-.15.08-.44.2-.88.34-.75.23-1.33.34-1.75.34h-.25c-.56,0-1.15-.17-1.75-.5-.83-.44-1.41-1.08-1.72-1.94-.19-.54-.28-1.13-.28-1.78v-8.41h-2.47s-.01-.03-.03-.03v-2.19h2.5v-8.03Z"/>
    <path class="cls-1" d="m42.72,111.13h11.78c-1.42,2.12-4.26,6.34-8.53,12.66h8.16l.06.03v2.12s-.04.01-.06.03h-12.28v-.03c1.44-2.1,4.28-6.31,8.53-12.62h-7.66l-.03-.03v-2.09s.01-.04.03-.06Z"/>
    <path class="cls-1" d="m58.5,103.1h2.16v8.03h4.06v2.22h-4.06v8.56c0,.44.11.83.34,1.19.23.29.52.5.88.62.17.04.32.06.47.06h.06c.4,0,.94-.13,1.62-.41.04-.02.11-.05.22-.09.52,1.17.81,1.83.88,2-.15.08-.44.2-.88.34-.75.23-1.33.34-1.75.34h-.25c-.56,0-1.15-.17-1.75-.5-.83-.44-1.41-1.08-1.72-1.94-.19-.54-.28-1.13-.28-1.78v-8.41h-2.47s-.01-.03-.03-.03v-2.19h2.5v-8.03Z"/>
    <path class="cls-1" d="m80.97,110.98c2.15,0,3.99.96,5.53,2.88,1.02,1.48,1.53,2.93,1.53,4.34v.19c0,.48-.03.72-.09.72h-11.88c0,.5.21,1.21.62,2.12.62,1.17,1.53,1.97,2.72,2.41.56.21,1.07.31,1.53.31,1.42,0,2.66-.62,3.72-1.88.35-.5.58-.91.69-1.22h.06c.83.33,1.49.62,1.97.88-.23.65-.74,1.41-1.53,2.28-1.44,1.4-3.07,2.09-4.91,2.09-2.17,0-4.02-.95-5.56-2.84-1.02-1.44-1.53-2.98-1.53-4.62v-.12c0-2.08.75-3.91,2.25-5.47,1.4-1.38,3.02-2.06,4.88-2.06Zm-4.69,5.97h9.34c-.44-1.38-1.18-2.38-2.22-3-.75-.5-1.57-.75-2.47-.75-1.52,0-2.82.71-3.91,2.12-.33.5-.58,1.04-.75,1.62Z"/>
    <path class="cls-1" d="m97.04,111.01c1.1,0,2.07.25,2.91.75-.1.52-.27,1.3-.5,2.34-.94-.56-1.79-.84-2.56-.84-1.73,0-2.95.81-3.66,2.44-.15.38-.22.76-.22,1.16v9.09s-.04.01-.06.03h-2.09l-.06-.03v-14.59s.04,0,.06-.03h2.09l.06.03v1.28c.46-.62,1.14-1.07,2.03-1.34.67-.19,1.33-.28,2-.28Z"/>
    <path class="cls-1" d="m102.05,103.1h2.09l.06.03v9.69c1.17-1.15,2.59-1.72,4.28-1.72,3.06,0,5.08,1.09,6.06,3.28.29.67.44,1.4.44,2.19v9.38s-.03.01-.03.03h-2.12l-.06-.03v-9.34c0-1.73-.95-2.8-2.84-3.22-.27-.04-.67-.06-1.19-.06h-.62c-1.75,0-2.96.6-3.62,1.81-.19.48-.28,1.01-.28,1.59v9.22s-.04.01-.06.03h-2.09l-.06-.03v-22.81s.04,0,.06-.03Z"/>
    <path class="cls-1" d="m125.22,110.98c2.04,0,3.68.84,4.91,2.53,0,.02.01.05.03.09v-2.44s.04-.02.06-.06h2.09s.02.04.06.06v14.78s-.04.01-.06.03h-2.09s-.04,0-.06-.03v-2.44c-1.12,1.73-2.82,2.59-5.09,2.59h-.03c-2.02,0-3.79-.8-5.31-2.41-1.27-1.54-1.91-3.23-1.91-5.06v-.16c0-1.98.7-3.73,2.09-5.25,1.48-1.5,3.25-2.25,5.31-2.25Zm-5.22,7.5v.09c0,1.75.7,3.19,2.09,4.31.88.69,1.84,1.03,2.91,1.03,2.27,0,3.84-1.1,4.72-3.31.21-.67.31-1.32.31-1.97v-.31c0-.92-.28-1.86-.84-2.84-.98-1.52-2.29-2.28-3.94-2.28-2.19,0-3.78,1.04-4.78,3.12-.31.75-.47,1.47-.47,2.16Zm2.44-13.12c.46,0,.85.18,1.19.53.25.31.38.64.38.97v.12c0,.42-.17.79-.5,1.12-.33.25-.69.38-1.06.38h-.03c-.52,0-.95-.24-1.28-.72-.17-.27-.25-.53-.25-.78v-.12c0-.4.17-.76.5-1.09.33-.27.69-.41,1.06-.41Zm5.31,0c.44,0,.82.18,1.16.53.27.31.41.64.41.97v.12c0,.42-.18.79-.53,1.12-.29.25-.64.38-1.03.38-.54,0-.99-.24-1.34-.72-.15-.27-.22-.53-.22-.78v-.12c0-.4.18-.76.53-1.09.29-.27.64-.41,1.03-.41Z"/>
    <path class="cls-1" d="m138.35,103.1h.03v22.88h-2.22v-22.88h2.19Z"/>
    <path class="cls-1" d="m142.9,103.1h2.16v8.03h4.06v2.22h-4.06v8.56c0,.44.11.83.34,1.19.23.29.52.5.88.62.17.04.32.06.47.06h.06c.4,0,.94-.13,1.62-.41.04-.02.11-.05.22-.09.52,1.17.81,1.83.88,2-.15.08-.44.2-.88.34-.75.23-1.33.34-1.75.34h-.25c-.56,0-1.15-.17-1.75-.5-.83-.44-1.41-1.08-1.72-1.94-.19-.54-.28-1.13-.28-1.78v-8.41h-2.47s-.01-.03-.03-.03v-2.19h2.5v-8.03Z"/>
    <path class="cls-1" d="m153.93,103.1h.03v22.88h-2.22v-22.88h2.19Z"/>
    <path class="cls-1" d="m158.97,103.1h.12c.38,0,.73.17,1.06.5.29.33.44.67.44,1v.09c0,.44-.2.82-.59,1.16-.29.25-.6.38-.94.38h-.09c-.46,0-.85-.21-1.19-.62-.21-.27-.31-.56-.31-.88v-.12c0-.4.17-.76.5-1.09.31-.27.65-.41,1-.41Zm1.12,8.03h.03v14.84h-2.22v-14.84h2.19Z"/>
    <path class="cls-1" d="m170.04,111.01h.41c1.54,0,3.01.57,4.41,1.72.69.67,1.14,1.19,1.34,1.56-.4.27-1,.68-1.81,1.22-.65-1-1.56-1.7-2.75-2.09-.42-.12-.84-.19-1.28-.19h-.25c-1.25,0-2.41.53-3.47,1.59-.94,1.1-1.41,2.35-1.41,3.75v.06c0,1.48.56,2.79,1.69,3.94,1,.92,2.11,1.38,3.34,1.38,1.5,0,2.8-.68,3.91-2.03.04-.06.11-.17.22-.31.31.19.94.57,1.88,1.16-.92,1.42-2.21,2.42-3.88,3-.75.23-1.46.34-2.12.34-1.83,0-3.47-.67-4.91-2-1.54-1.58-2.31-3.41-2.31-5.47v-.16c0-2.06.77-3.88,2.31-5.47,1.46-1.33,3.02-2,4.69-2Z"/>
    <path class="cls-1" d="m178.77,103.1h2.09l.06.03v9.69c1.17-1.15,2.59-1.72,4.28-1.72,3.06,0,5.08,1.09,6.06,3.28.29.67.44,1.4.44,2.19v9.38s-.03.01-.03.03h-2.12l-.06-.03v-9.34c0-1.73-.95-2.8-2.84-3.22-.27-.04-.67-.06-1.19-.06h-.62c-1.75,0-2.96.6-3.62,1.81-.19.48-.28,1.01-.28,1.59v9.22s-.04.01-.06.03h-2.09l-.06-.03v-22.81s.04,0,.06-.03Z"/>
  </g>
  <g>
    <path class="cls-1" d="m3.47,141.5h.12c.38,0,.73.17,1.06.5.29.33.44.67.44,1v.09c0,.44-.2.82-.59,1.16-.29.25-.6.38-.94.38h-.09c-.46,0-.85-.21-1.19-.62-.21-.27-.31-.56-.31-.88v-.12c0-.4.17-.76.5-1.09.31-.27.65-.41,1-.41Zm1.12,8.03h.03v14.84h-2.22v-14.84h2.19Z"/>
    <path class="cls-1" d="m14.98,149.54h.28c2.94,0,4.91,1.12,5.91,3.34.27.67.41,1.38.41,2.12v9.34s-.04.01-.06.03h-2.09s-.04,0-.06-.03v-9.34c0-1.54-.78-2.57-2.34-3.09-.38-.12-1.09-.19-2.16-.19-1.29,0-2.26.27-2.91.81-.77.5-1.16,1.37-1.16,2.59v9.22s-.04.01-.06.03h-2.09l-.06-.03v-14.56s.04,0,.06-.03h2.09l.06.03v1.47c1.12-1.15,2.52-1.72,4.19-1.72Z"/>
    <path class="cls-1" d="m39.39,149.38c2.04,0,3.68.84,4.91,2.53,0,.02.01.05.03.09v-2.44s.04-.02.06-.06h2.09s.02.04.06.06v14.78s-.04.01-.06.03h-2.09s-.04,0-.06-.03v-2.44c-1.12,1.73-2.82,2.59-5.09,2.59h-.03c-2.02,0-3.79-.8-5.31-2.41-1.27-1.54-1.91-3.23-1.91-5.06v-.16c0-1.98.7-3.73,2.09-5.25,1.48-1.5,3.25-2.25,5.31-2.25Zm-5.22,7.5v.09c0,1.75.7,3.19,2.09,4.31.88.69,1.84,1.03,2.91,1.03,2.27,0,3.84-1.1,4.72-3.31.21-.67.31-1.32.31-1.97v-.31c0-.92-.28-1.86-.84-2.84-.98-1.52-2.29-2.28-3.94-2.28-2.19,0-3.78,1.04-4.78,3.12-.31.75-.47,1.47-.47,2.16Z"/>
    <path class="cls-1" d="m52.52,141.5h.03v22.88h-2.22v-22.88h2.19Z"/>
    <path class="cls-1" d="m58.59,141.5h.03v22.88h-2.22v-22.88h2.19Z"/>
    <path class="cls-1" d="m68.55,149.38c2.15,0,3.99.96,5.53,2.88,1.02,1.48,1.53,2.93,1.53,4.34v.19c0,.48-.03.72-.09.72h-11.88c0,.5.21,1.21.62,2.12.62,1.17,1.53,1.97,2.72,2.41.56.21,1.07.31,1.53.31,1.42,0,2.66-.62,3.72-1.88.35-.5.58-.91.69-1.22h.06c.83.33,1.49.62,1.97.88-.23.65-.74,1.41-1.53,2.28-1.44,1.4-3.07,2.09-4.91,2.09-2.17,0-4.02-.95-5.56-2.84-1.02-1.44-1.53-2.98-1.53-4.62v-.12c0-2.08.75-3.91,2.25-5.47,1.4-1.38,3.02-2.06,4.88-2.06Zm-4.69,5.97h9.34c-.44-1.38-1.18-2.38-2.22-3-.75-.5-1.57-.75-2.47-.75-1.52,0-2.82.71-3.91,2.12-.33.5-.58,1.04-.75,1.62Z"/>
    <path class="cls-1" d="m84.78,149.54h.28c2.94,0,4.91,1.12,5.91,3.34.27.67.41,1.38.41,2.12v9.34s-.04.01-.06.03h-2.09s-.04,0-.06-.03v-9.34c0-1.54-.78-2.57-2.34-3.09-.38-.12-1.09-.19-2.16-.19-1.29,0-2.26.27-2.91.81-.77.5-1.16,1.37-1.16,2.59v9.22s-.04.01-.06.03h-2.09l-.06-.03v-14.56s.04,0,.06-.03h2.09l.06.03v1.47c1.12-1.15,2.52-1.72,4.19-1.72Z"/>
    <path class="cls-1" d="m103.09,141.5h6.88c2.21,0,3.96.81,5.25,2.44.67.94,1,2,1,3.19v.41c0,1.88-.76,3.44-2.28,4.69.67.29,1.33.88,2,1.75.67.92,1,2.02,1,3.31v.75c0,2.65-1.18,4.55-3.53,5.72-1.02.42-1.84.62-2.47.62h-7.84s-.04,0-.06-.03v-22.81l.06-.03Zm2.12,2.19v7.66h4.59c1.69,0,2.95-.69,3.78-2.06.27-.52.41-1.11.41-1.78v-.38c0-1.58-.85-2.67-2.56-3.25-.48-.12-.97-.19-1.47-.19h-4.75Zm0,9.81v8.69h.16c.92,0,2.72,0,5.41-.03.69,0,1.43-.22,2.22-.66,1.15-.75,1.72-1.92,1.72-3.5v-.75c0-1.75-.93-2.92-2.78-3.5-.56-.17-1.14-.25-1.72-.25h-5Z"/>
    <path class="cls-1" d="m120.11,149.54h2.09l.03.06v9.31c0,1.65.88,2.69,2.62,3.12.33.1.92.16,1.75.16,1.08,0,1.89-.15,2.41-.44.81-.38,1.34-.91,1.59-1.59.15-.48.22-.95.22-1.41v-9.16s.01-.04.03-.06h2.12l.03.06v14.53l-.03.03h-2.12l-.03-.03v-1.47c-1.15,1.15-2.59,1.72-4.34,1.72-1.85,0-3.3-.4-4.34-1.19-1.4-1.06-2.09-2.46-2.09-4.19v-9.41s.02-.04.06-.06Z"/>
    <path class="cls-1" d="m142.93,149.41h.41c1.54,0,3.01.57,4.41,1.72.69.67,1.14,1.19,1.34,1.56-.4.27-1,.68-1.81,1.22-.65-1-1.56-1.7-2.75-2.09-.42-.12-.84-.19-1.28-.19h-.25c-1.25,0-2.41.53-3.47,1.59-.94,1.1-1.41,2.35-1.41,3.75v.06c0,1.48.56,2.79,1.69,3.94,1,.92,2.11,1.38,3.34,1.38,1.5,0,2.8-.68,3.91-2.03.04-.06.11-.17.22-.31.31.19.94.57,1.88,1.16-.92,1.42-2.21,2.42-3.88,3-.75.23-1.46.34-2.12.34-1.83,0-3.47-.67-4.91-2-1.54-1.58-2.31-3.41-2.31-5.47v-.16c0-2.06.77-3.88,2.31-5.47,1.46-1.33,3.02-2,4.69-2Z"/>
    <path class="cls-1" d="m151.66,141.5h2.09l.06.03v9.69c1.17-1.15,2.59-1.72,4.28-1.72,3.06,0,5.08,1.09,6.06,3.28.29.67.44,1.4.44,2.19v9.38s-.03.01-.03.03h-2.12l-.06-.03v-9.34c0-1.73-.95-2.8-2.84-3.22-.27-.04-.67-.06-1.19-.06h-.62c-1.75,0-2.96.6-3.62,1.81-.19.48-.28,1.01-.28,1.59v9.22s-.04.01-.06.03h-2.09l-.06-.03v-22.81s.04,0,.06-.03Z"/>
    <path class="cls-1" d="m168.42,141.5h2.09l.06.03v9.69c1.17-1.15,2.59-1.72,4.28-1.72,3.06,0,5.08,1.09,6.06,3.28.29.67.44,1.4.44,2.19v9.38s-.03.01-.03.03h-2.12l-.06-.03v-9.34c0-1.73-.95-2.8-2.84-3.22-.27-.04-.67-.06-1.19-.06h-.62c-1.75,0-2.96.6-3.62,1.81-.19.48-.28,1.01-.28,1.59v9.22s-.04.01-.06.03h-2.09l-.06-.03v-22.81s.04,0,.06-.03Z"/>
    <path class="cls-1" d="m191.59,149.38c2.04,0,3.68.84,4.91,2.53,0,.02.01.05.03.09v-2.44s.04-.02.06-.06h2.09s.02.04.06.06v14.78s-.04.01-.06.03h-2.09s-.04,0-.06-.03v-2.44c-1.12,1.73-2.82,2.59-5.09,2.59h-.03c-2.02,0-3.79-.8-5.31-2.41-1.27-1.54-1.91-3.23-1.91-5.06v-.16c0-1.98.7-3.73,2.09-5.25,1.48-1.5,3.25-2.25,5.31-2.25Zm-5.22,7.5v.09c0,1.75.7,3.19,2.09,4.31.88.69,1.84,1.03,2.91,1.03,2.27,0,3.84-1.1,4.72-3.31.21-.67.31-1.32.31-1.97v-.31c0-.92-.28-1.86-.84-2.84-.98-1.52-2.29-2.28-3.94-2.28-2.19,0-3.78,1.04-4.78,3.12-.31.75-.47,1.47-.47,2.16Z"/>
    <path class="cls-1" d="m208.97,149.54h.28c2.94,0,4.91,1.12,5.91,3.34.27.67.41,1.38.41,2.12v9.34s-.04.01-.06.03h-2.09s-.04,0-.06-.03v-9.34c0-1.54-.78-2.57-2.34-3.09-.38-.12-1.09-.19-2.16-.19-1.29,0-2.26.27-2.91.81-.77.5-1.16,1.37-1.16,2.59v9.22s-.04.01-.06.03h-2.09l-.06-.03v-14.56s.04,0,.06-.03h2.09l.06.03v1.47c1.12-1.15,2.52-1.72,4.19-1.72Z"/>
    <path class="cls-1" d="m230.8,141.5h2.12l.03.03v22.81l-.03.03h-2.12v-2.47h-.03c-1.12,1.73-2.82,2.59-5.09,2.59h-.03c-2.02,0-3.79-.8-5.31-2.41-1.27-1.54-1.91-3.23-1.91-5.06v-.16c0-1.98.71-3.73,2.12-5.25,1.48-1.5,3.23-2.25,5.25-2.25s3.7.84,4.91,2.53c.02.02.04.05.06.09h.03v-10.5Zm-10.19,15.38v.09c0,1.75.7,3.19,2.09,4.31.88.69,1.85,1.03,2.94,1.03,2.25,0,3.8-1.1,4.66-3.31.25-.67.38-1.32.38-1.97v-.31c0-.92-.29-1.86-.88-2.84-.98-1.52-2.28-2.28-3.91-2.28-2.23,0-3.84,1.04-4.84,3.12-.29.75-.44,1.47-.44,2.16Z"/>
    <path class="cls-1" d="m238.96,141.5h.03v22.88h-2.22v-22.88h2.19Z"/>
    <path class="cls-1" d="m242.85,149.54h2.09l.03.06v9.31c0,1.65.88,2.69,2.62,3.12.33.1.92.16,1.75.16,1.08,0,1.89-.15,2.41-.44.81-.38,1.34-.91,1.59-1.59.15-.48.22-.95.22-1.41v-9.16s.01-.04.03-.06h2.12l.03.06v14.53l-.03.03h-2.12l-.03-.03v-1.47c-1.15,1.15-2.59,1.72-4.34,1.72-1.85,0-3.3-.4-4.34-1.19-1.4-1.06-2.09-2.46-2.09-4.19v-9.41s.02-.04.06-.06Z"/>
    <path class="cls-1" d="m266.01,149.54h.28c2.94,0,4.91,1.12,5.91,3.34.27.67.41,1.38.41,2.12v9.34s-.04.01-.06.03h-2.09s-.04,0-.06-.03v-9.34c0-1.54-.78-2.57-2.34-3.09-.38-.12-1.09-.19-2.16-.19-1.29,0-2.26.27-2.91.81-.77.5-1.16,1.37-1.16,2.59v9.22s-.04.01-.06.03h-2.09l-.06-.03v-14.56s.04,0,.06-.03h2.09l.06.03v1.47c1.12-1.15,2.52-1.72,4.19-1.72Z"/>
    <path class="cls-1" d="m281.61,149.41c1.27,0,2.44.37,3.5,1.09.21-.25.38-.42.53-.5.35-.25.7-.41,1.03-.47.27-.08.53-.12.78-.12h.47l.03.03v2.16l-.03.03h-.38c-.33,0-.58.08-.75.25-.08.1-.12.2-.12.28.17.29.33.66.5,1.09.19.56.28,1.14.28,1.72,0,1.4-.51,2.65-1.53,3.75-.44.4-.75.66-.94.78-.31.19-.67.37-1.06.53-.75.31-1.5.47-2.25.47h-.09c-.88,0-1.74-.21-2.59-.62-.21.25-.31.51-.31.78,0,.25.07.41.22.47.42.29,1.38.44,2.88.44.25,0,.62,0,1.12-.03,2.02,0,3.59.48,4.72,1.44.27.27.47.49.59.66.52.75.78,1.54.78,2.38s-.28,1.65-.84,2.44c-.1.21-.34.48-.72.81-.35.33-.66.57-.91.72-.27.19-.58.35-.94.5-.44.17-.85.3-1.25.41-.71.17-1.34.25-1.91.25h-.53c-.92,0-1.87-.17-2.84-.5-.5-.19-.94-.4-1.31-.62-.27-.17-.56-.39-.88-.66-.29-.29-.49-.52-.59-.69-.58-.79-.88-1.59-.88-2.41v-.19c0-.85.33-1.74,1-2.66.27-.29.53-.53.78-.72.02-.02.05-.04.09-.06-.52-.5-.78-1.16-.78-1.97v-.03c0-.73.23-1.4.69-2,.02-.02.03-.04.03-.06-.23-.25-.43-.52-.59-.81-.54-.88-.81-1.8-.81-2.78,0-1.38.48-2.59,1.44-3.66.35-.38.58-.59.69-.66.33-.25.68-.46,1.03-.62.88-.42,1.76-.62,2.66-.62Zm-4.03,16.72v.03c0,.67.36,1.28,1.09,1.84.92.6,2.08.91,3.5.91,1.29,0,2.41-.3,3.34-.91.17-.08.36-.25.59-.5.44-.5.66-1,.66-1.5v-.03c0-.48-.2-.93-.59-1.34-.31-.27-.73-.48-1.25-.62-.62-.17-1.24-.25-1.84-.25h-1.47c-.79,0-1.49-.05-2.09-.16-.25.17-.58.43-1,.78-.62.65-.94,1.23-.94,1.75Zm.41-11.25v.16c0,.65.24,1.29.72,1.94.25.27.44.45.56.53.71.52,1.5.78,2.38.78.94,0,1.78-.31,2.53-.94.73-.69,1.09-1.48,1.09-2.38s-.33-1.62-1-2.31c-.33-.31-.7-.55-1.09-.72-.5-.21-1.01-.31-1.53-.31h-.06c-.69,0-1.34.18-1.97.53-.21.12-.45.32-.72.59-.31.33-.52.66-.62.97-.19.4-.28.78-.28,1.16Z"/>
    <path class="cls-1" d="m297.42,149.38c2.15,0,3.99.96,5.53,2.88,1.02,1.48,1.53,2.93,1.53,4.34v.19c0,.48-.03.72-.09.72h-11.88c0,.5.21,1.21.62,2.12.62,1.17,1.53,1.97,2.72,2.41.56.21,1.07.31,1.53.31,1.42,0,2.66-.62,3.72-1.88.35-.5.58-.91.69-1.22h.06c.83.33,1.49.62,1.97.88-.23.65-.74,1.41-1.53,2.28-1.44,1.4-3.07,2.09-4.91,2.09-2.17,0-4.02-.95-5.56-2.84-1.02-1.44-1.53-2.98-1.53-4.62v-.12c0-2.08.75-3.91,2.25-5.47,1.4-1.38,3.02-2.06,4.88-2.06Zm-4.69,5.97h9.34c-.44-1.38-1.18-2.38-2.22-3-.75-.5-1.57-.75-2.47-.75-1.52,0-2.82.71-3.91,2.12-.33.5-.58,1.04-.75,1.62Z"/>
    <path class="cls-1" d="m313.65,149.54h.28c2.94,0,4.91,1.12,5.91,3.34.27.67.41,1.38.41,2.12v9.34s-.04.01-.06.03h-2.09s-.04,0-.06-.03v-9.34c0-1.54-.78-2.57-2.34-3.09-.38-.12-1.09-.19-2.16-.19-1.29,0-2.26.27-2.91.81-.77.5-1.16,1.37-1.16,2.59v9.22s-.04.01-.06.03h-2.09l-.06-.03v-14.56s.04,0,.06-.03h2.09l.06.03v1.47c1.12-1.15,2.52-1.72,4.19-1.72Z"/>
    <path class="cls-1" d="m326.42,161.25h.03c.44,0,.82.18,1.16.53.25.31.38.64.38.97v.09c0,.44-.19.82-.56,1.16-.31.25-.65.38-1,.38-.4,0-.76-.15-1.09-.44-.31-.33-.47-.69-.47-1.06v-.12c0-.4.17-.76.5-1.09.31-.27.67-.41,1.06-.41Zm-1.38-19.75h2.78c-.06,2.98-.17,8.91-.31,17.78h-2.19c-.06-2.96-.17-8.88-.31-17.78h.03Z"/>
  </g>
</svg>